<ttFont>
<head>
    <!-- Most of this table will be recalculated by the compiler -->
    <tableVersion value="1.0"/>
    <fontRevision value="2.004"/>
    <checkSumAdjustment value="0x6710f753"/>
    <magicNumber value="0x5f0f3cf5"/>
    <flags value="00000000 00000011"/>
    <unitsPerEm value="1000"/>
    <created value="Thu Oct  8 10:01:02 2009"/>
    <modified value="Thu Oct  8 10:01:02 2009"/>
    <xMin value="-395"/>
    <yMin value="-305"/>
    <xMax value="1355"/>
    <yMax value="1159"/>
    <macStyle value="00000000 00000000"/>
    <lowestRecPPEM value="3"/>
    <fontDirectionHint value="2"/>
    <indexToLocFormat value="0"/>
    <glyphDataFormat value="0"/>
  </head>
          <CharString index="0">
            386 hmoveto
            283 vlineto
            94 -67 65 -90 -44 -48 -8 -32 -55 vhcurveto
            6 -66 rlineto
            18 25 43 29 72 hhcurveto
            51 31 -39 -62 hvcurveto
            -38 vlineto
            -160 -5 -100 -46 -79 vvcurveto
            -41 25 -81 83 15 81 2 43 58 vhcurveto
            -37 vlineto
            -2 132 rmoveto
            -18 0 -24 -30 -18 vhcurveto
            -17 -26 -33 -2 -14 hhcurveto
            -50 -34 28 35 70 156 7 31 1 hvcurveto
            return
          </CharString>
          <CharString index="1">
            598 hmoveto
            -243 694 rlineto
            -86 hlineto
            -243 -694 rlineto
            76 hlineto
            70 202 rlineto
            268 hlineto
            71 -202 rlineto
            -90 258 rmoveto
            -230 hlineto
            48 140 60 174 7 45 rrcurveto
            1 hlineto
            7 -41 20 -60 17 -51 rrcurveto
            return
          </CharString>
          <CharString index="2">
            rmoveto
            -61 hlineto
            -80 -2 -47 -47 -50 hhcurveto
            -54 -44 49 78 -2 hvcurveto
            -61 hlineto
            -120 3 75 -73 82 hhcurveto
            86 72 76 117 3 hvcurveto
            return
          </CharString>
          <CharString index="3">
            44 callsubr
            -127 96 -95 111 114 94 98 124 vhcurveto
            -91 callgsubr
            return
          </CharString>
          <CharString index="4">
            -20 -104 callgsubr
            return
          </CharString>
          <CharString index="5">
            rmoveto
            -11 62 -57 -1 -49 -11 -40 -19 rlinecurve
            26 -33 -34 5 -23 hhcurveto
            -87 -66 -72 -84 -54 30 -41 2 -2 hvcurveto
            hintmask 0000000000100000
            -18 -25 -10 -27 -30 vvcurveto
            -35 14 -25 11 -14 vhcurveto
            hintmask 1110100010011100
            -52 -32 -7 -49 -19 vvcurveto
            -73 91 -60 117 118 91 60 74 138 -153 1 -42 vhcurveto
            -81 hlineto
            -15 -40 0 51 20 10 14 0 hvcurveto
            -11 15 31 -17 41 hhcurveto
            83 69 70 86 48 -22 35 -9 12 hvcurveto
            3 hlineto
            3 42 3 15 hhcurveto
            32 3 -1 -3 28 hvcurveto
            -166 -94 rmoveto
            -87 -55 -14 -26 vhcurveto
            hintmask 1000010001001000
            -34 -48 21 80 87 55 14 26 34 48 -21 -80 hvcurveto
            82 -354 rmoveto
            -43 -62 -34 -75 vhcurveto
            hintmask 0100000010000100
            -76 -62 33 45 5 0 62 69 hvcurveto
            81 hlineto
            24 101 0 -68 hvcurveto
            return
          </CharString>
          <CharString index="6">
            -76 -462 vlineto
            -133 -81 -59 -74 -76 -76 62 129 vhcurveto
            463 -84 -461 vlineto
            -144 111 -105 124 124 108 105 144 vhcurveto
            return
          </CharString>
          <CharString index="7">
            -16 callsubr
            hintmask 11001100
            -105 callgsubr
            return
          </CharString>
          <CharString index="8">
            -20 -100 callgsubr
            hintmask 00011000
            return
          </CharString>
          <CharString index="9">
            rmoveto
            -61 hlineto
            hintmask 00100000
            -24 -6 -32 -28 -15 -18 8 15 -20 vhcurveto
            hintmask 00010000
            19 -27 -19 14 -27 hhcurveto
            hintmask 00100000
            -41 -49 -38 -79 -2 hvcurveto
            61 hlineto
            hintmask 00010000
            24 6 32 28 15 18 -8 -15 20 vhcurveto
            hintmask 00100000
            -19 27 19 -14 27 hhcurveto
            return
          </CharString>
          <CharString index="10">
            521 hmoveto
            69 vlineto
            -215 -1 -134 -1 rlineto
            262 310 61 -310 238 129 vlineto
            12 12 -1 12 hhcurveto
            171 65 -420 -692 hlineto
            return
          </CharString>
          <CharString index="11">
            -103 callsubr
            hintmask 00011000
            return
          </CharString>
          <CharString index="12">
            579 hmoveto
            -185 326 2 1 rlineto
            156 54 1 108 19 vvcurveto
            95 -96 91 -144 vhcurveto
            -224 -694 82 317 147 hlineto
            177 -317 rlineto
            -21 508 rmoveto
            -54 -40 -76 -132 vhcurveto
            -131 260 131 hlineto
            127 45 -72 -58 hvcurveto
            return
          </CharString>
          <CharString index="13">
            rmoveto
            -111 hlineto
            -175 -122 rlineto
            89 hlineto
            endchar
          </CharString>
          <CharString index="14">
            872 73 callsubr
            -84 -311 -37 -150 -18 -74 -13 -52 -2 -26 rlinecurve
            -1 hlineto
            -2 27 -13 57 -16 64 -39 158 rcurveline
            -83 307 rlineto
            -84 hlineto
            -79 -291 -40 -159 -30 -126 -1 -18 -2 -20 rlinecurve
            -1 hlineto
            6 -4 33 -28 117 vhcurveto
            -43 173 -77 285 rlineto
            -86 hlineto
            190 -694 rlineto
            83 hlineto
            79 289 40 159 27 112 6 28 2 25 rlinecurve
            1 hlineto
            -4 9 -63 39 -146 vhcurveto
            106 -400 rlineto
            87 hlineto
            return
          </CharString>
          <CharString index="15">
            rmoveto
            -31 -25 -8 -22 -20 -27 7 32 31 25 8 22 20 27 -7 -32 vhcurveto
            58 hmoveto
            46 -45 42 -60 -60 -45 -42 -46 -46 45 -42 60 60 45 42 46 vhcurveto
            return
          </CharString>
          <CharString index="16">
            rmoveto
            -61 hlineto
            hintmask 10000000
            -24 -6 -32 -28 -15 -18 8 15 -20 vhcurveto
            hintmask 01000000
            19 -27 -19 14 -27 hhcurveto
            hintmask 10000000
            -41 -49 -38 -79 -2 hvcurveto
            61 hlineto
            hintmask 01000000
            24 6 32 28 15 18 -8 -15 20 vhcurveto
            hintmask 10000000
            -19 27 19 -14 27 hhcurveto
            hintmask 01000000
            41 49 38 79 2 hvcurveto
            endchar
          </CharString>
          <CharString index="17">
            -24 callgsubr
            hintmask 01100110
            409 hmoveto
            430 -92 callgsubr
            hintmask 10000010
            -78 27 -38 69 34 77 8 50 54 vhcurveto
            -50 vlineto
            return
          </CharString>
          <CharString index="18">
            rmoveto
            -125 172 rlineto
            -60 hlineto
            -125 -172 rlineto
            59 hlineto
            96 123 96 -123 rlineto
            return
          </CharString>
          <CharString index="19">
            627 430 rmoveto
            -76 hlineto
            -53 -180 -11 -38 -31 -105 -4 -49 rlinecurve
            -1 hlineto
            -2 30 -17 72 -28 95 -51 175 rcurveline
            -69 hlineto
            -50 -171 -25 -87 -19 -74 -2 -40 rlinecurve
            -1 hlineto
            -4 59 -41 138 -6 22 -45 153 rcurveline
            -78 hlineto
            130 -430 rlineto
            76 hlineto
            52 172 40 133 3 67 2 -33 17 -71 10 -35 66 -233 rcurveline
            88 hlineto
            return
          </CharString>
          <CharString index="20">
            rmoveto
            290 -125 47 -67 -67 -43 -30 -48 -37 vhcurveto
            -44 -55 -8 -49 -57 vvcurveto
            -68 12 -42 28 -48 vhcurveto
            -62 38 35 -13 39 hhcurveto
            59 59 29 50 40 hvcurveto
            -135 -7 -61 -98 -88 hhcurveto
            -36 -29 11 27 -29 hvcurveto
            -31 -53 rlineto
            -24 28 36 -23 61 hhcurveto
            121 116 134 217 hvcurveto
            -83 76 rmoveto
            -84 -48 -66 -70 -46 -24 24 31 -18 vhcurveto
            -22 39 -1 38 40 vvcurveto
            39 0 43 28 43 vhcurveto
            31 21 26 22 45 hhcurveto
            92 15 -135 -41 1 hvcurveto
            return
          </CharString>
          <CharString index="21">
            rmoveto
            71 -72 -72 22 vlineto
            -23 -112 rlineto
            36 hlineto
            endchar
          </CharString>
          <CharString index="22">
            rmoveto
            -61 hlineto
            hintmask 00001000
            -24 -6 -32 -28 -15 -18 8 15 -20 vhcurveto
            hintmask 00000100
            19 -27 -19 14 -27 hhcurveto
            hintmask 00001000
            -41 -49 -38 -79 -2 hvcurveto
            61 hlineto
            hintmask 00000100
            24 6 32 28 15 18 -8 -15 20 vhcurveto
            hintmask 00001000
            -19 27 19 -14 27 hhcurveto
            hintmask 00000100
            41 49 38 79 2 hvcurveto
            endchar
          </CharString>
          <CharString index="23">
            34 vstem
            694 347 rmoveto
            192 -155 155 -192 -192 -155 -155 -192 -192 155 -155 192 192 155 155 192 vhcurveto
            -34 hmoveto
            -173 -140 -140 -173 -173 -140 140 173 173 140 140 173 173 140 -140 -173 vhcurveto
            return
          </CharString>
          <CharString index="24">
            409 hmoveto
            292 vlineto
            63 -15 83 -113 -64 -42 -33 -34 -28 vhcurveto
            62 -73 -433 76 242 vlineto
            63 24 72 68 88 3 -59 -34 vhcurveto
            -284 vlineto
            return
          </CharString>
          <CharString index="25">
            338 124 rmoveto
            49 -28 33 -19 15 vhcurveto
            -33 26 -12 3 -82 17 rrcurveto
            -14 2 -49 11 45 vvcurveto
            57 63 0 14 65 40 -20 -15 27 vhcurveto
            12 65 rlineto
            28 -59 -46 2 -30 hhcurveto
            -71 -85 -25 -101 hvcurveto
            return
          </CharString>
          <CharString index="26">
            678 346 rmoveto
            170 -93 90 -31 30 vhcurveto
            49 92 -56 30 -45 -85 rlineto
            16 -28 -49 21 -60 hhcurveto
            -169 -144 -159 -205 -113 44 -106 80 -69 hvcurveto
            -49 -92 56 -30 38 72 rlineto
            6 10 2 1 0 vvcurveto
            0 3 0 12 -6 vhcurveto
            -21 42 43 -8 36 hhcurveto
            167 146 155 207 hvcurveto
            -206 271 rmoveto
            -264 -497 rlineto
            -67 82 -5 98 46 vvcurveto
            195 113 108 116 45 38 -17 -15 24 vhcurveto
            122 -271 rmoveto
            -199 -116 -102 -113 -39 -35 12 20 -33 vhcurveto
            263 496 rlineto
            65 -77 8 -98 -52 vvcurveto
            return
          </CharString>
          <CharString index="27">
            -74 callgsubr
            endchar
          </CharString>
          <CharString index="28">
            hstemhm
            55 callgsubr
            -71 79 hintmask 00100001
            450 432 rmoveto
            78 -79 -79 24 vlineto
            -34 -35 rlineto
            hintmask 11000110
            29 -39 -44 17 -44 hhcurveto
            -114 -93 -103 -125 -127 96 -95 111 114 94 98 124 63 -26 56 -34 40 hvcurveto
            hintmask 11000101
            -38 callsubr
            hintmask 00000010
            65 67 -46 -112 hvcurveto
            return
          </CharString>
          <CharString index="29">
            -69 callgsubr
            169 rmoveto
            -89 hlineto
            -197 122 rlineto
            111 hlineto
            endchar
          </CharString>
          <CharString index="30">
            -98 callgsubr
            -54 return
          </CharString>
          <CharString index="31">
            606 626 rmoveto
            65 -572 -65 125 vlineto
            12 12 1 12 hhcurveto
            83 -627 84 627 83 hlineto
            12 12 -1 12 hhcurveto
            return
          </CharString>
          <CharString index="32">
            306 372 rmoveto
            66 vlineto
            -64 -1 -60 -32 -36 -52 rrcurveto
            80 -71 -433 74 213 vlineto
            94 69 63 88 2 vhcurveto
            return
          </CharString>
          <CharString index="33">
            679 -8 61 -45 55 53 59 44 55 107 61 -59 59 hstemhm
            42 73 -37 73 150 76 132 76 0 67 hintmask 0000010110000000
            652 219 rmoveto
            33 0 190 -159 -44 -54 -20 -51 -42 vhcurveto
            41 -27 -43 30 -63 hhcurveto
            -36 -53 -5 -35 -59 hvcurveto
            6 -66 rlineto
            26 37 42 21 62 hhcurveto
            48 34 -37 -64 hvcurveto
            -36 vlineto
            hintmask 0010001000000000
            -111 -148 -34 -96 hvcurveto
            hintmask 1000000100000000
            -34 18 -90 91 vhcurveto
            hintmask 0100000000000000
            4 61 0 16 51 hvcurveto
            23 7 40 13 26 35 rrcurveto
            hintmask 1001000011000000
            -5 4 55 -66 93 hhcurveto
            46 50 15 34 43 35 callgsubr
            -40 -45 -51 -12 -36 hhcurveto
            -71 -60 67 99 -1 hvcurveto
            hintmask 1011101000100000
            208 55 rmoveto
            -201 hlineto
            68 18 47 39 44 hhcurveto
            38 43 -27 -80 11 hvcurveto
            -280 -149 rmoveto
            -72 -98 0 -9 -51 -32 30 34 66 144 7 43 2 vhcurveto
            1 -17 rlineto
            2 -18 0 -15 -17 vvcurveto
            endchar
          </CharString>
          <CharString index="34">
            527 hmoveto
            66 -89 vlineto
            -250 -2 rlineto
            -30 hlineto
            364 589 rlineto
            41 -457 -63 187 vlineto
            12 12 1 12 hhcurveto
            128 hlineto
            -364 -589 rlineto
            -43 vlineto
            return
          </CharString>
          <CharString index="35">
            rmoveto
            -61 hlineto
            hintmask 01000000
            -24 -6 -32 -28 -15 -18 8 15 -20 vhcurveto
            hintmask 00100000
            19 -27 -19 14 -27 hhcurveto
            hintmask 01000000
            -41 -49 -38 -79 -2 hvcurveto
            61 hlineto
            hintmask 00100000
            24 6 32 28 15 18 -8 -15 20 vhcurveto
            hintmask 01000000
            -19 27 19 -14 27 hhcurveto
            hintmask 00100000
            41 49 38 79 2 hvcurveto
            endchar
          </CharString>
          <CharString index="36">
            -43 1 31 -42 67 hhcurveto
            33 25 6 19 40 hvcurveto
            return
          </CharString>
          <CharString index="37">
            -95 callgsubr
            117 return
          </CharString>
          <CharString index="38">
            rmoveto
            -175 122 rlineto
            -111 hlineto
            197 -122 rlineto
            endchar
          </CharString>
          <CharString index="39">
            6 -13 -31 11 -35 hhcurveto
            54 callsubr
            -73 33 -64 45 -36 hvcurveto
            -67 -123 54 -30 65 120 rlineto
            -7 16 28 -9 33 hhcurveto
            114 94 98 124 hvcurveto
            -158 157 rmoveto
            -147 -270 rlineto
            -30 38 -4 46 29 vvcurveto
            114 65 53 67 17 17 -3 -7 15 vhcurveto
            82 -157 rmoveto
            -113 -68 -48 -64 -16 -16 3 6 -15 vhcurveto
            return
          </CharString>
          <CharString index="40">
            451 -8 61 141 51 138 59 return
          </CharString>
          <CharString index="41">
            913 -16 61 -45 69 -2 65 198 61 238 65 -45 61 hstemhm
            25 82 332 86 -82 82 hintmask 0100000000000000
            873 hmoveto
            69 vlineto
            hintmask 0011100010000000
            -348 -2 rlineto
            263 309 61 -309 239 vlineto
            335 -1 rlineto
            65 -372 vlineto
            -13 -17 0 7 -41 hvcurveto
            hintmask 1000011000000000
            8 -49 -15 1 -15 hhcurveto
            -169 -144 -159 -205 -208 147 -154 166 22 18 3 6 41 hvcurveto
            hintmask 0100000000000000
            7 40 15 0 14 hhcurveto
            -45 348 rmoveto
            hintmask 1010011100000000
            -112 0 -72 -4 -32 vhcurveto
            -52 -8 -11 -35 -80 hhcurveto
            -132 -101 144 170 167 107 123 126 79 13 -34 -57 7 hvcurveto
            hintmask 0000000010000000
            4 -32 0 -94 -84 vvcurveto
            endchar
          </CharString>
          <CharString index="42">
            116 -62 85 -68 -67 -64 -83 -118 -118 64 -83 67 69 61 85 116 vhcurveto
            return
          </CharString>
          <CharString index="43">
            44 53 17 44 77 vvcurveto
            -79 hmoveto
            -39 0 -39 -23 -40 vhcurveto
            -31 -19 -25 -27 -48 hhcurveto
            -95 -16 133 40 -4 hvcurveto
            8 0 5 1 15 vhcurveto
            78 45 70 73 47 24 -25 -31 18 vhcurveto
            21 -39 1 -37 -41 vvcurveto
            endchar
          </CharString>
          <CharString index="44">
            731 -38 callgsubr
            hstemhm
            27 73 253 76 132 76 0 59 hintmask 10110010
            704 219 rmoveto
            33 0 190 -159 -44 -65 -20 -72 -46 vhcurveto
            67 -45 -64 25 -54 hhcurveto
            -107 -93 -98 -127 -128 94 -97 106 45 69 18 76 50 hvcurveto
            -74 52 64 -20 53 hhcurveto
            46 50 15 34 43 hvcurveto
            4 -3 33 0 vhcurveto
            0 -3 23 4 vvcurveto
            hintmask 11111100
            -40 -45 -51 -12 -36 hhcurveto
            -71 -60 67 99 -1 hvcurveto
            208 55 rmoveto
            -201 hlineto
            68 18 47 39 44 hhcurveto
            38 43 -27 -80 11 hvcurveto
            -284 -51 rmoveto
            -120 -65 -50 -61 -61 -66 51 119 112 67 46 60 62 64 -47 -111 vhcurveto
            endchar
          </CharString>
          <CharString index="45">
            84 -84 -84 vlineto
            return
          </CharString>
          <CharString index="46">
            469 hmoveto
            65 -208 vlineto
            -12 -12 -1 -12 hhcurveto
            -53 630 -84 -694 hlineto
            return
          </CharString>
          <CharString index="47">
            rmoveto
            -124 176 rlineto
            -76 hlineto
            139 47 callsubr
          </CharString>
          <CharString index="48">
            rmoveto
            79 -55 66 -75 25 vhcurveto
            60 33 44 62 72 vvcurveto
            84 -77 67 -94 -86 -67 -53 -57 -28 vhcurveto
            7 -10 18 -29 9 -15 rrcurveto
            59 22 57 44 67 hhcurveto
            56 37 -37 -53 -55 -35 -60 -59 -14 hvcurveto
            return
          </CharString>
          <CharString index="49">
            679 0 68 581 61 hstemhm
            52 84 -16 84 270 84 -16 84 hintmask 10001000
            636 hmoveto
            68 -78 vlineto
            -12 -12 -1 -12 hhcurveto
            -48 hlineto
            14 57 31 59 35 63 rrcurveto
            hintmask 01100100
            37 68 35 72 75 vvcurveto
            138 -128 111 -159 -160 -127 -111 -138 -73 33 -69 38 -71 vhcurveto
            hintmask 10010000
            36 -67 32 -57 13 -57 rrcurveto
            -48 hlineto
            -12 -12 1 -12 hhcurveto
            -78 -68 231 hlineto
            -1 80 -26 61 -48 104 rrcurveto
            hintmask 11100100
            -38 82 -24 67 66 vvcurveto
            114 93 75 110 111 92 -75 -114 -78 -34 -77 -31 -67 vhcurveto
            -44 -95 -27 -62 -1 -81 rrcurveto
            endchar
          </CharString>
          <CharString index="50">
            149 rmoveto
            545 -82 -542 vlineto
            -48 -20 -59 -90 -51 -43 24 30 -27 vhcurveto
            -13 -73 rlineto
            -33 62 57 -9 42 hhcurveto
            97 68 56 109 hvcurveto
            return
          </CharString>
          <CharString index="51">
            10 callgsubr
            -84 -303 -318 303 -84 -694 84 330 318 -330 vlineto
            return
          </CharString>
          <CharString index="52">
            422 -187 rmoveto
            -45 callsubr
            11 283 hlineto
            94 -67 65 -90 -44 -48 -8 -32 -55 vhcurveto
            6 -66 rlineto
            18 25 43 29 72 hhcurveto
            51 31 -39 -62 hvcurveto
            -38 vlineto
            -160 -5 -100 -46 -79 vvcurveto
            -41 25 -81 83 15 81 2 43 58 vhcurveto
            -37 -6 callsubr
            -112 319 rmoveto
            -18 0 -24 -30 -18 vhcurveto
            -17 -26 -33 -2 -14 hhcurveto
            -50 -34 28 35 70 156 7 31 1 hvcurveto
            return
          </CharString>
          <CharString index="53">
            rmoveto
            -65 callsubr
            return
          </CharString>
          <CharString index="54">
            -67 -20 -73 -37 -21 -34 19 121 120 34 20 21 37 20 -73 -67 vhcurveto
            return
          </CharString>
          <CharString index="55">
            626 0 56 274 61 247 56 hstemhm
            89 81 140 81 -79 79 78 78 -53 79 hintmask 00001010
            573 188 rmoveto
            76 -65 77 -117 22 vhcurveto
            130 38 26 76 43 vvcurveto
            hintmask 11110101
            90 -98 84 -137 vhcurveto
            -223 -694 249 hlineto
            136 99 90 98 hvcurveto
            -104 331 rmoveto
            -60 -64 -68 -129 vhcurveto
            -106 247 115 hlineto
            hintmask 11011010
            103 81 -53 -66 hvcurveto
            25 -330 rmoveto
            -68 -73 -65 -111 vhcurveto
            -140 274 133 hlineto
            hintmask 00000001
            108 83 -67 -74 hvcurveto
            endchar
          </CharString>
          <CharString index="56">
            222 rmoveto
            124 -61 110 -91 -66 -57 -35 -44 -35 vhcurveto
            141 10 66 93 95 hhcurveto
            hintmask 00100000
            26 34 -4 -17 39 hvcurveto
            62 vlineto
            hintmask 10010110
            17 -42 -30 3 -28 hhcurveto
            -130 -121 -136 -215 -275 115 -62 82 45 45 14 50 43 hvcurveto
            hintmask 11000101
            -64 callsubr
          </CharString>
          <CharString index="57">
            69 46 37 21 24 hvcurveto
            -50 vlineto
            134 vmoveto
            -14 0 -15 -31 -27 vhcurveto
            -17 -20 -24 -8 -23 hhcurveto
            -54 -71 40 121 126 80 37 55 37 30 -18 -30 21 hvcurveto
            return
          </CharString>
          <CharString index="58">
            611 hmoveto
            -262 419 249 275 rlineto
            -96 hlineto
            -330 -363 rlineto
            363 -84 -694 84 225 vlineto
            121 133 225 -358 rlineto
            return
          </CharString>
          <CharString index="59">
            470 -204 55 145 73 57 55 -55 59 195 58 -55 55 return
          </CharString>
          <CharString index="60">
            418 -38 callgsubr
            return
          </CharString>
          <CharString index="61">
            451 -8 61 316 61 211 61 hstemhm
            75 74 174 75 -49 75 hintmask 01111000
            424 174 rmoveto
            126 -77 74 -38 25 vhcurveto
            69 42 20 64 45 vvcurveto
            84 -72 68 -90 -76 -85 -54 -103 vhcurveto
            -545 74 543 vlineto
            98 79 0 8 46 41 -31 -60 -55 -37 -63 -85 -2 vhcurveto
            -61 vlineto
            hintmask 10000100
            94 -2 54 -93 -100 vvcurveto
            -80 -42 -41 -49 -3 -28 0 12 -29 vhcurveto
            -22 -58 rlineto
            -3 7 36 -12 39 hhcurveto
            93 73 79 103 hvcurveto
            endchar
          </CharString>
          <CharString index="62">
            -72 callgsubr
            -1 44 42 47 callgsubr
            return
          </CharString>
          <CharString index="63">
            148 hmoveto
            430 -74 -430 vlineto
            return
          </CharString>
          <CharString index="64">
            621 31 callsubr
            43 47 callgsubr
            23 hlineto
            -243 694 rlineto
            -86 hlineto
            -243 -694 rlineto
            76 hlineto
            70 202 rlineto
            268 hlineto
            71 -202 -12 callgsubr
            rlinecurve
            -71 callsubr
            -200 445 rmoveto
            -230 hlineto
            48 140 60 174 7 45 rrcurveto
            1 hlineto
            7 -41 20 -60 17 -51 rrcurveto
            return
          </CharString>
          <CharString index="65">
            184 rmoveto
            66 -39 70 -89 35 vhcurveto
            76 25 39 60 59 vvcurveto
            93 -80 80 -102 -106 -77 -83 -90 -58 38 -60 77 -26 vhcurveto
            -98 -38 -30 -76 -57 vvcurveto
            -110 89 -90 106 110 86 92 108 vhcurveto
            -84 314 rmoveto
            -72 -48 -41 -63 -67 -45 45 68 69 45 44 67 62 49 -40 -73 vhcurveto
            6 -313 rmoveto
            -104 -66 -35 -51 vhcurveto
            hintmask 01010010
            -57 -61 39 100 103 68 36 49 54 64 -38 -101 hvcurveto
            endchar
          </CharString>
          <CharString index="66">
            -221 -21 112 72 return
          </CharString>
          <CharString index="67">
            -176 265 155 165 rlineto
            -96 hlineto
            -175 -186 rlineto
            450 -74 -694 73 140 vlineto
            67 71 141 -211 rlineto
            return
          </CharString>
          <CharString index="68">
            -21 694 -20 return
          </CharString>
          <CharString index="69">
            -16 -151 -87 callgsubr
            vhcurveto
            return
          </CharString>
          <CharString index="70">
            hstemhm
            74 -31 callsubr
            return
          </CharString>
          <CharString index="71">
            640 346 rmoveto
            return
          </CharString>
          <CharString index="72">
            -46 callgsubr
            -1 return
          </CharString>
          <CharString index="73">
            hmoveto
            55 -321 vlineto
            158 89 rlineto
            67 38 96 59 90 vvcurveto
            96 -100 48 -88 2 vhcurveto
            -8 hlineto
            -69 -68 -23 -72 -42 hvcurveto
            -2 -4 -4 -5 -5 vvcurveto
            -1 vlineto
            1 -6 23 -20 13 -9 rrcurveto
            63 21 53 31 60 hhcurveto
            49 93 -15 -75 9 hvcurveto
            -7 vlineto
            -85 -92 -60 -71 -41 vhcurveto
            -138 -79 rlineto
            -9 -6 -11 -2 -13 vvcurveto
            -43 vlineto
            endchar
          </CharString>
          <CharString index="74">
            21 -39 callsubr
            return
          </CharString>
          <CharString index="75">
            hmoveto
            68 -170 vlineto
            -12 -12 -1 -12 hhcurveto
            -100 1 hlineto
            142 144 28 29 42 35 29 35 rlinecurve
            28 34 37 48 70 vvcurveto
            110 -74 99 -126 -99 -57 -62 -97 -27 vhcurveto
            39 -54 rlineto
            91 22 31 58 78 hhcurveto
            86 48 -70 -77 -92 -70 -71 -53 -53 hvcurveto
            hintmask 10010000
            -173 -181 rlineto
            -64 vlineto
            endchar
          </CharString>
          <CharString index="76">
            74 hintmask 11001000
            -44 callsubr
            return
          </CharString>
          <CharString index="77">
            644 -16 56 654 -20 return
          </CharString>
          <CharString index="78">
            -50 -28 -40 -48 3 -51 -54 callgsubr
            return
          </CharString>
          <CharString index="79">
            hstemhm
            26 71 -41 71 -67 67 40 67 56 71 11 71 return
          </CharString>
          <CharString index="80">
            223 -23 callsubr
            return
          </CharString>
          <CharString index="81">
            670 hmoveto
            292 vlineto
            67 -17 79 -112 -75 -45 -47 -29 -20 vhcurveto
            53 -18 -42 23 -60 hhcurveto
            -68 -43 -39 -28 -23 hvcurveto
            62 -73 -433 48 callgsubr
            48 callgsubr
            vlineto
            return
          </CharString>
          <CharString index="82">
            -33 57 55 -10 46 hhcurveto
            123 31 75 57 hvcurveto
            return
          </CharString>
          <CharString index="83">
            287 -4 callsubr
            83 74 vstem
            325 628 rmoveto
            66 vlineto
            5 -23 -28 3 -22 hhcurveto
            -93 -65 -76 -99 hvcurveto
            -97 12 callgsubr
            101 58 -103 128 vlineto
            71 54 12 31 10 28 0 -13 36 vhcurveto
            endchar
          </CharString>
          <CharString index="84">
            21 56 callgsubr
            return
          </CharString>
          <CharString index="85">
            625 24 callsubr
            611 hmoveto
            -265 366 226 328 rlineto
            -92 hlineto
            -175 -260 -180 260 rlineto
            -99 hlineto
            238 -328 -251 -366 rlineto
            92 hlineto
            200 305 207 -305 rlineto
            endchar
          </CharString>
          <CharString index="86">
            -82 -211 -219 vvcurveto
            80 hlineto
            212 70 215 137 172 vhcurveto
            endchar
          </CharString>
          <CharString index="87">
            -20 hstemhm
            115 76 88 76 hintmask 10011000
            8 callsubr
            hintmask 01100000
            return
          </CharString>
          <CharString index="88">
            148 hmoveto
            694 42 callgsubr
            return
          </CharString>
          <CharString index="89">
            76 240 vlineto
            -32 33 45 -21 48 hhcurveto
            93 80 96 128 hvcurveto
            -76 hmoveto
            -99 -68 -64 -67 -20 -21 5 17 -20 vhcurveto
            -27 24 0 15 14 vvcurveto
            197 vlineto
            12 8 34 38 55 hhcurveto
            70 56 -72 -87 hvcurveto
            endchar
          </CharString>
          <CharString index="90">
            rmoveto
            19 -15 15 -19 -18 -16 -15 -19 -19 16 -15 18 19 15 15 19 vhcurveto
            return
          </CharString>
          <CharString index="91">
            hstemhm
            52 84 420 84 return
          </CharString>
          <CharString index="92">
            -200 84 return
          </CharString>
          <CharString index="93">
            -68 callgsubr
            endchar
          </CharString>
          <CharString index="94">
            -15 callsubr
            137 -21 return
          </CharString>
          <CharString index="95">
            -22 -9 -23 -6 -22 1 -28 2 -24 6 -1 30 -1 44 42 47 callgsubr
            430 -74 -430 11 -6 callsubr
            return
          </CharString>
          <CharString index="96">
            hmoveto
            48 -117 429 vlineto
            hintmask 00101000
            -8 hlineto
            -17 -22 -21 -6 -20 hvcurveto
            hintmask 01010000
            -13 -37 -39 -3 -38 hhcurveto
            -48 vlineto
            hintmask 10000100
            42 40 5 13 40 hvcurveto
            -356 -117 -48 vlineto
            endchar
          </CharString>
          <CharString index="97">
            rmoveto
            66 vlineto
            7 -26 -4 1 -34 hhcurveto
            -82 -60 -75 -99 hvcurveto
            -98 12 callgsubr
            109 58 -111 129 vlineto
            67 41 15 29 17 24 -3 -10 23 vhcurveto
            return
          </CharString>
          <CharString index="98">
            171 rmoveto
            61 -91 424 -88 vlineto
            -238 -424 rlineto
            -61 247 -171 79 171 vlineto
            -76 61 rmoveto
            -173 hlineto
            58 102 114 206 1 70 rrcurveto
            endchar
          </CharString>
          <CharString index="99">
            rmoveto
            41 -123 vlineto
            -8 -9 -1 -8 hhcurveto
            -72 1 hlineto
            102 86 20 18 30 21 21 21 rlinecurve
            20 20 27 29 42 vvcurveto
            66 -53 59 -91 -71 -41 -37 -58 -20 vhcurveto
            28 return
          </CharString>
          <CharString index="100">
            rmoveto
            -61 hlineto
            -69 -168 rlineto
            68 hlineto
            endchar
          </CharString>
          <CharString index="101">
            vlineto
            -29 callsubr
            return
          </CharString>
          <CharString index="102">
            rmoveto
            64 -183 -64 vlineto
            113 -43 0 113 hhcurveto
            endchar
          </CharString>
          <CharString index="103">
            21 -21 372 58 211 61 hstem
            94 74 return
          </CharString>
          <CharString index="104">
            -1 44 42 47 callgsubr
            42 69 hlineto
            -215 -1 -134 -1 rlineto
            262 310 61 -310 238 129 vlineto
            12 12 -1 12 hhcurveto
            return
          </CharString>
          <CharString index="105">
            -11 1 -20 4 -19 5 rrcurveto
            6 -19 -29 8 -21 hhcurveto
            -35 -2 -28 -5 -13 6 -21 31 21 29 8 6 21 hvcurveto
            3 1 25 7 20 2 return
          </CharString>
          <CharString index="106">
            432 -203 62 571 -20 return
          </CharString>
          <CharString index="107">
            hstemhm
            30 71 224 66 return
          </CharString>
          <CharString index="108">
            rmoveto
            36 -66 255 -63 vlineto
            -171 -255 rlineto
            -36 177 -103 57 103 vlineto
            1 571 rmoveto
            -39 27 callgsubr
            return
          </CharString>
          <CharString index="109">
            hmoveto
            -81 219 81 218 rlineto
            -61 hlineto
            -96 -218 96 -219 rlineto
            return
          </CharString>
          <CharString index="110">
            259 -33 callsubr
            return
          </CharString>
          <CharString index="111">
            87 26 65 85 103 vvcurveto
            -76 8 rmoveto
            -113 -65 -54 -66 -71 -61 58 109 116 71 43 60 65 67 -47 -112 vhcurveto
            return
          </CharString>
          <CharString index="112">
            456 376 rmoveto
            -11 62 -57 -1 -49 -11 -40 -19 rlinecurve
            26 -33 -34 5 -23 hhcurveto
            -87 -66 -72 -84 -54 30 -41 2 -2 hvcurveto
            return
          </CharString>
          <CharString index="113">
            14 callgsubr
            hstemhm
            return
          </CharString>
          <CharString index="114">
            13 callgsubr
            hintmask 00111000
            return
          </CharString>
          <CharString index="115">
            191 466 -70 callgsubr
            return
          </CharString>
          <CharString index="116">
            -277 497 -70 callgsubr
            return
          </CharString>
          <CharString index="117">
            259 21 -21 694 -20 87 -21 122 -7 callgsubr
            hintmask 00111000
            return
          </CharString>
          <CharString index="118">
            418 -165 -21 168 -20 hstem
            135 130 vstem
            265 -18 -7 callsubr
          </CharString>
          <CharString index="119">
            249 -203 64 569 -20 return
          </CharString>
          <CharString index="120">
            360 -8 0 callgsubr
            return
          </CharString>
          <CharString index="121">
            -16 62 349 61 134 62 -41 61 hstemhm
            return
          </CharString>
          <CharString index="122">
            678 -16 63 600 63 -39 78 return
          </CharString>
          <CharString index="123">
            418 -8 63 324 63 return
          </CharString>
          <CharString index="124">
            97 46 callsubr
            hstemhm
            return
          </CharString>
          <CharString index="125">
            562 144 rmoveto
            -76 hlineto
            -42 -19 -42 -37 -27 -27 6 7 -26 vhcurveto
            -50 12 -49 13 -51 1 27 47 21 return
          </CharString>
          <CharString index="126">
            hlineto
            77 302 rlineto
            3 10 1 5 3 vvcurveto
            10 -8 8 -10 -14 -3 -14 -8 -2 vhcurveto
            -80 -316 rlineto
            return
          </CharString>
          <CharString index="127">
            694 -30 callgsubr
            return
          </CharString>
          <CharString index="128">
            451 22 callsubr
            61 141 51 138 59 return
          </CharString>
          <CharString index="129">
            -15 callsubr
            108 return
          </CharString>
          <CharString index="130">
            146 -54 callsubr
            return
          </CharString>
          <CharString index="131">
            -33 callsubr
            hstem
            return
          </CharString>
          <CharString index="132">
            60 -46 rcurveline
            34 43 93 -24 74 -19 rrcurveto
            -8 32 34 -7 33 hhcurveto
            79 53 76 84 hvcurveto
            endchar
          </CharString>
          <CharString index="133">
            61 324 61 256 -20 hstemhm
            return
          </CharString>
          <CharString index="134">
            80 hstem
            90 80 vstem
            170 return
          </CharString>
          <CharString index="135">
            809 0 68 154 56 52 61 238 65 return
          </CharString>
          <CharString index="136">
            hstem
            207 58 94 58 vstem
            359 return
          </CharString>
          <CharString index="137">
            21 80 callgsubr
            return
          </CharString>
          <CharString index="138">
            -17 callgsubr
            -1 44 return
          </CharString>
          <CharString index="139">
            219 rmoveto
            -96 218 rlineto
            -61 hlineto
            81 -218 -81 -219 rlineto
            61 hlineto
            endchar
          </CharString>
          <CharString index="140">
            hintmask 00111000
            286 862 -94 callsubr
          </CharString>
          <CharString index="141">
            45 callsubr
            109 73 192 84 vstem
            458 return
          </CharString>
          <CharString index="142">
            21 46 callgsubr
            return
          </CharString>
          <CharString index="143">
            470 -91 -21 104 61 278 61 -11 61 return
          </CharString>
          <CharString index="144">
            641 21 -21 626 68 return
          </CharString>
          <CharString index="145">
            647 -16 56 632 77 return
          </CharString>
          <CharString index="146">
            483 -8 58 381 79 return
          </CharString>
          <CharString index="147">
            627 30 callgsubr
            return
          </CharString>
          <CharString index="148">
            489 80 125 -20 hstem
            return
          </CharString>
          <CharString index="149">
            11 -1 20 -4 19 -5 rrcurveto
            -6 19 29 -8 21 hhcurveto
            35 2 28 5 hvcurveto
            return
          </CharString>
          <CharString index="150">
            45 callsubr
            73 73 192 84 vstem
            422 return
          </CharString>
          <CharString index="151">
            -29 callgsubr
            128 -95 100 -112 54 callsubr
            return
          </CharString>
          <CharString index="152">
            62 93 64 157 61 171 64 hstem
            return
          </CharString>
          <CharString index="153">
            -21 176 -20 return
          </CharString>
          <CharString index="154">
            -176 rlineto
            endchar
          </CharString>
          <CharString index="155">
            21 -21 372 58 131 80 -26 80 -54 61 hstemhm
            94 74 return
          </CharString>
          <CharString index="156">
            418 rmoveto
            47 -40 40 -54 15 vhcurveto
            43 19 32 38 43 vvcurveto
            return
          </CharString>
          <CharString index="157">
            470 547 -21 190 -20 hstem
            return
          </CharString>
          <CharString index="158">
            hstemhm
            74 76 50 84 49 76 return
          </CharString>
          <CharString index="159">
            -229 -21 1000 -20 hstem
            return
          </CharString>
          <CharString index="160">
            62 154 61 350 61 return
          </CharString>
          <CharString index="161">
            -115 -93 -103 -125 return
          </CharString>
          <CharString index="162">
            470 487 -21 return
          </CharString>
          <CharString index="163">
            -21 172 -20 return
          </CharString>
          <CharString index="164">
            762 -7 -21 555 -20 hstem
            82 597 vstem
            679 return
          </CharString>
          <CharString index="165">
            940 14 -21 239 36 -35 36 239 -20 hstemhm
            return
          </CharString>
          <CharString index="166">
            vstem
            493 142 rmoveto
            254 -254 -254 vlineto
            return
          </CharString>
          <CharString index="167">
            -41 -57 17 44 -32 hvcurveto
            -5 -21 0 -1 -3 -15 rrcurveto
            return
          </CharString>
          <CharString index="168">
            -33 callsubr
            56 75 hstemhm
            return
          </CharString>
          <CharString index="169">
            hstemhm
            89 82 91 84 128 79 return
          </CharString>
          <CharString index="170">
            484 -174 -21 187 61 return
          </CharString>
          <CharString index="171">
            -402 74 callsubr
            return
          </CharString>
          <CharString index="172">
            hstemhm
            88 84 157 63 24 63 -51 84 -67 63 return
          </CharString>
          <CharString index="173">
            -254 66 127 -20 return
          </CharString>
          <CharString index="174">
            -55 61 280 61 0 61 280 61 hstemhm
            return
          </CharString>
          <CharString index="175">
            169 426 rmoveto
            284 -76 -284 vlineto
            return
          </CharString>
          <CharString index="176">
            35 296 -20 hstem
            348 35 vstem
            678 return
          </CharString>
          <CharString index="177">
            368 1 hlineto
            0 5 -27 37 -105 vhcurveto
            79 return
          </CharString>
          <CharString index="178">
            443 -16 61 649 -20 return
          </CharString>
          <CharString index="179">
            hstemhm
            30 71 66 84 74 66 return
          </CharString>
          <CharString index="180">
            694 rmoveto
            -76 hlineto
            return
          </CharString>
          <CharString index="181">
            rmoveto
            -67 -20 -73 -37 -21 -34 19 121 return
          </CharString>
          <CharString index="182">
            52 callsubr
            119 40 return
          </CharString>
          <CharString index="183">
            -174 -21 195 61 416 -20 hstemhm
            return
          </CharString>
          <CharString index="184">
            601 -16 64 598 64 hstem
            62 84 return
          </CharString>
          <CharString index="185">
            26 callsubr
            33 76 return
          </CharString>
          <CharString index="186">
            65 629 -20 return
          </CharString>
        <CharString name=".notdef">
          280 endchar
        </CharString>
        <CharString name="A">
          -56 callgsubr
          hstem
          -106 callsubr
          endchar
        </CharString>
        <CharString name="AE">
          28 callsubr
          hstem
          393 83 vstem
          -57 callgsubr
          endchar
        </CharString>
        <CharString name="AE.dup">
          28 callsubr
          hstem
          393 83 vstem
          -57 callgsubr
          endchar
        </CharString>
        <CharString name="AEacute">
          28 callsubr
          67 callgsubr
          393 83 hintmask 11110010
          -57 callgsubr
          hintmask 00001100
          202 232 -94 callsubr
        </CharString>
        <CharString name="Aacute">
          -56 callgsubr
          87 -21 122 -95 callgsubr
          152 397 -94 callsubr
        </CharString>
        <CharString name="Abreve">
          -56 callgsubr
          66 66 127 -95 callgsubr
          122 468 -105 callsubr
          endchar
        </CharString>
        <CharString name="Abreveacute">
          -56 callgsubr
          66 66 284 -95 callgsubr
          122 468 -105 callsubr
          -17 157 -94 callsubr
        </CharString>
        <CharString name="Abrevedotbelow">
          22 callgsubr
          66 66 127 -20 hstemhm
          271 84 hintmask 01111110
          -106 callsubr
          122 468 -105 callsubr
          hintmask 10000010
          -118 -1133 -80 callsubr
        </CharString>
        <CharString name="Abrevegrave">
          -56 callgsubr
          66 66 127 -95 callgsubr
          122 468 -105 callsubr
          -18 35 rmoveto
          -89 hlineto
          -197 122 rlineto
          111 hlineto
          endchar
        </CharString>
        <CharString name="Abrevehookabove">
          -56 callgsubr
          66 66 287 66 -96 callgsubr
          122 468 -105 callsubr
          -70 154 -107 callgsubr
        </CharString>
        <CharString name="Abrevetilde">
          -56 callgsubr
          66 66 182 61 -5 61 -102 callgsubr
          hintmask 00010100
          122 468 -105 callsubr
          -4 172 -85 callsubr
        </CharString>
        <CharString name="Acaron">
          -56 callgsubr
          77 -21 134 -70 callsubr
          399 -81 callgsubr
        </CharString>
        <CharString name="Acircumflex">
          -56 callgsubr
          77 -21 134 -70 callsubr
          265 -103 callgsubr
          endchar
        </CharString>
        <CharString name="Acircumflexacute">
          -56 callgsubr
          77 -21 291 -70 callsubr
          265 -78 callgsubr
        </CharString>
        <CharString name="Acircumflexdotbelow">
          22 callgsubr
          77 -21 134 -20 hstemhm
          271 84 hintmask 01111110
          -106 callsubr
          117 265 -103 callgsubr
          hintmask 10000010
          -54 -930 -80 callsubr
        </CharString>
        <CharString name="Acircumflexgrave">
          -56 callgsubr
          77 -21 134 -70 callsubr
          265 -78 callsubr
        </CharString>
        <CharString name="Acircumflexhookabove">
          -56 callgsubr
          77 -21 360 -70 callsubr
          265 -103 callgsubr
          83 288 -107 callgsubr
        </CharString>
        <CharString name="Acircumflextilde">
          -56 callgsubr
          77 -21 189 61 -5 61 -102 callgsubr
          hintmask 00010100
          117 265 -103 callgsubr
          60 306 -85 callsubr
        </CharString>
        <CharString name="Adblgrave">
          -56 callgsubr
          87 -21 176 -95 callgsubr
          71 275 -88 callgsubr
        </CharString>
        <CharString name="Adieresis">
          -56 callgsubr
          56 75 hstemhm
          192 76 88 76 hintmask 11100000
          -106 callsubr
          hintmask 00011100
          -83 265 -70 callgsubr
          endchar
        </CharString>
        <CharString name="Adotbelow">
          22 callgsubr
          hstemhm
          271 84 hintmask 01111000
          -106 callsubr
          hintmask 10001000
          4 -665 -80 callsubr
        </CharString>
        <CharString name="Agrave">
          -56 callgsubr
          87 -21 122 -95 callgsubr
          56 275 -69 callsubr
        </CharString>
        <CharString name="Ahookabove">
          -56 callgsubr
          77 -21 211 -95 callgsubr
          51 404 -107 callgsubr
        </CharString>
        <CharString name="Alpha">
          -56 callgsubr
          hstem
          -106 callsubr
          endchar
        </CharString>
        <CharString name="Amacron">
          -56 callgsubr
          76 64 -102 callgsubr
          hintmask 00010000
          131 285 -58 callgsubr
        </CharString>
        <CharString name="Aogonek">
          57 callgsubr
          hstem
          424 63 vstem
          -43 callsubr
          endchar
        </CharString>
        <CharString name="Aogonekacute">
          57 callgsubr
          87 -21 122 -20 hstemhm
          424 63 hintmask 11110010
          -43 callsubr
          hintmask 00001100
          152 397 -94 callsubr
        </CharString>
        <CharString name="Aring">
          -59 callgsubr
          49 78 49 hstemhm
          207 58 94 58 hintmask 11100000
          -106 callsubr
          hintmask 00111100
          8 317 -92 callsubr
          endchar
        </CharString>
        <CharString name="Aringacute">
          -59 callgsubr
          49 78 49 157 -20 hstemhm
          207 58 94 58 hintmask 11100000
          -106 callsubr
          hintmask 00111110
          8 317 -92 callsubr
          38 245 -94 callsubr
        </CharString>
        <CharString name="Atilde">
          -56 callgsubr
          56 61 -5 61 -102 callgsubr
          hintmask 00001000
          118 382 -97 callgsubr
        </CharString>
        <CharString name="B">
          -52 callsubr
        </CharString>
        <CharString name="Beta">
          -52 callsubr
        </CharString>
        <CharString name="C">
          73 callgsubr
          hstem
          61 83 vstem
          -93 callgsubr
          endchar
        </CharString>
        <CharString name="Cacute">
          73 callgsubr
          66 -21 122 -20 hstemhm
          61 83 hintmask 11001000
          -93 callgsubr
          hintmask 00110000
          -26 815 -94 callsubr
        </CharString>
        <CharString name="Ccaron">
          73 callgsubr
          56 -21 134 -20 hstemhm
          61 83 hintmask 11001000
          -93 callgsubr
          hintmask 00110000
          -61 817 -81 callgsubr
        </CharString>
        <CharString name="Ccedilla">
          77 callsubr
          31 callgsubr
          -144 -83 149 150 159 92 140 132 49 callgsubr
          -181 -128 -170 -193 -191 125 -172 185 80 37 14 42 64 hvcurveto
          -177 -74 -7 callsubr
        </CharString>
        <CharString name="Ccircumflex">
          73 callgsubr
          56 -21 134 -20 hstemhm
          61 83 hintmask 11001000
          -93 callgsubr
          hintmask 00110000
          -61 683 -103 callgsubr
          endchar
        </CharString>
        <CharString name="Cdotaccent">
          73 callgsubr
          35 84 hstemhm
          61 83 144 84 hintmask 11010000
          -93 callgsubr
          hintmask 00101000
          -175 683 -80 callsubr
        </CharString>
        <CharString name="Chi">
          -22 callsubr
        </CharString>
        <CharString name="D">
          678 0 56 582 56 hstem
          89 82 372 82 vstem
          -66 callgsubr
          endchar
        </CharString>
        <CharString name="Dcaron">
          678 0 56 582 56 57 -21 134 -20 hstemhm
          89 82 372 82 hintmask 11001100
          -66 callgsubr
          hintmask 00110000
          -145 523 -81 callgsubr
        </CharString>
        <CharString name="Dcroat">
          -35 callgsubr
        </CharString>
        <CharString name="Ddotbelow">
          678 -15 callsubr
          116 56 582 56 hstemhm
          89 82 29 84 259 82 hintmask 01110100
          -66 callgsubr
          hintmask 10001000
          -259 -541 -80 callsubr
        </CharString>
        <CharString name="Delta">
          784 0 79 615 -20 hstem
          744 hmoveto
          -308 694 rlineto
          -89 hlineto
          -308 -694 rlineto
          578 79 rmoveto
          -465 hlineto
          148 335 29 67 41 91 14 48 rlinecurve
          16 -51 41 -92 31 -70 rrcurveto
          endchar
        </CharString>
        <CharString name="Dlinebelow">
          678 -190 64 126 56 582 56 hstemhm
          89 82 372 82 hintmask 01111000
          -66 callgsubr
          hintmask 10000000
          -131 -531 -58 callgsubr
        </CharString>
        <CharString name="E">
          -53 callgsubr
          hstem
          88 84 vstem
          -97 callsubr
          endchar
        </CharString>
        <CharString name="Eacute">
          -53 callgsubr
          69 -21 122 -89 callgsubr
          383 862 -94 callsubr
        </CharString>
        <CharString name="Ebreve">
          -53 callgsubr
          48 66 127 -89 callgsubr
          353 933 -105 callsubr
          endchar
        </CharString>
        <CharString name="Ecaron">
          -53 callgsubr
          59 -21 134 -60 callgsubr
          864 -81 callgsubr
        </CharString>
        <CharString name="Ecircumflex">
          -53 callgsubr
          59 -21 134 -60 callgsubr
          730 -103 callgsubr
          endchar
        </CharString>
        <CharString name="Ecircumflexacute">
          -53 callgsubr
          59 -21 291 -60 callgsubr
          730 -78 callgsubr
        </CharString>
        <CharString name="Ecircumflexdotbelow">
          561 -15 callsubr
          116 68 261 61 237 65 59 -21 134 -20 hstemhm
          88 84 67 84 hintmask 01111110
          -97 callsubr
          348 730 -103 callgsubr
          hintmask 10000001
          -54 -930 -80 callsubr
        </CharString>
        <CharString name="Ecircumflexgrave">
          -53 callgsubr
          59 -21 134 -60 callgsubr
          730 -78 callsubr
        </CharString>
        <CharString name="Ecircumflexhookabove">
          -53 callgsubr
          59 -21 360 -60 callgsubr
          730 -103 callgsubr
          83 288 -107 callgsubr
        </CharString>
        <CharString name="Ecircumflextilde">
          -53 callgsubr
          59 -21 189 33 callgsubr
          88 84 hintmask 11100010
          -97 callsubr
          hintmask 00010100
          348 730 -103 callgsubr
          60 306 -85 callsubr
        </CharString>
        <CharString name="Edblgrave">
          -53 callgsubr
          69 -21 176 -89 callgsubr
          328 740 -88 callgsubr
        </CharString>
        <CharString name="Edieresis">
          -53 callgsubr
          38 75 hstemhm
          88 84 -12 76 88 76 hintmask 11101000
          -97 callsubr
          hintmask 00010110
          148 730 -70 callgsubr
          endchar
        </CharString>
        <CharString name="Edotaccent">
          -53 callgsubr
          38 84 hstemhm
          88 84 67 84 hintmask 11101000
          -97 callsubr
          hintmask 00010100
          235 730 -80 callsubr
        </CharString>
        <CharString name="Edotbelow">
          561 -15 callsubr
          116 68 261 61 237 65 hstemhm
          88 84 67 84 hintmask 01111000
          -97 callsubr
          hintmask 10000100
          235 -200 -80 callsubr
        </CharString>
        <CharString name="Egrave">
          -53 callgsubr
          69 -21 122 -89 callgsubr
          287 740 -69 callsubr
        </CharString>
        <CharString name="Ehookabove">
          -53 callgsubr
          59 -21 211 -89 callgsubr
          282 869 -107 callgsubr
        </CharString>
        <CharString name="Emacron">
          -53 callgsubr
          58 64 hstemhm
          88 84 hintmask 11101000
          -97 callsubr
          hintmask 00010000
          362 750 -58 callgsubr
        </CharString>
        <CharString name="Eng">
          663 -16 76 574 76 40 callgsubr
          574 347 rmoveto
          178 -55 185 -154 -77 -67 -33 -52 -49 vhcurveto
          69 -84 -694 84 460 vlineto
          97 18 76 77 99 hhcurveto
          116 9 -152 -135 -135 -9 -152 -116 hvcurveto
          -76 vlineto
          154 55 186 177 hvcurveto
          endchar
        </CharString>
        <CharString name="Eogonek">
          561 -212 70 142 68 261 61 237 65 65 callsubr
          hintmask 0000000100000000
          526 -187 rmoveto
          -14 59 rlineto
          hintmask 1000010010000000
          -22 -9 -23 -6 -22 1 -28 2 -24 6 -1 30 rrcurveto
          hintmask 0111101000000000
          -3 callsubr
          hintmask 0101100010000000
          171 65 -420 -692 hlineto
          hintmask 0100011000000000
          328 hlineto
          52 callgsubr
          hintmask 1000000100000000
          -71 callsubr
          endchar
        </CharString>
        <CharString name="Eogonekacute">
          561 -212 70 142 68 261 61 237 65 69 -21 122 -20 65 callsubr
          hintmask 0000000001000000
          526 -187 rmoveto
          -14 59 rlineto
          hintmask 1000000100100000
          -22 -9 -23 -6 -22 1 -28 2 -24 6 -1 30 rrcurveto
          hintmask 0111001010000000
          -3 callsubr
          hintmask 0101001000100000
          171 65 -420 -692 hlineto
          hintmask 0100000110000000
          328 hlineto
          52 callgsubr
          hintmask 1000000001000000
          -71 callsubr
          hintmask 0000110000000000
          -55 1049 -94 callsubr
        </CharString>
        <CharString name="Epsilon">
          -53 callgsubr
          hstem
          88 84 vstem
          -97 callsubr
          endchar
        </CharString>
        <CharString name="Ereversed">
          -53 callgsubr
          hstem
          437 84 vstem
          521 hmoveto
          692 -420 -65 171 vlineto
          12 12 1 12 hhcurveto
          129 -238 -310 -61 310 -262 hlineto
          -134 1 -215 1 rlineto
          -69 vlineto
          endchar
        </CharString>
        <CharString name="Eta">
          3 callgsubr
          40 callgsubr
          -56 callsubr
          endchar
        </CharString>
        <CharString name="Eth">
          -35 callgsubr
        </CharString>
        <CharString name="Etilde">
          -53 callgsubr
          38 61 -5 61 -90 callgsubr
          hintmask 00001000
          349 847 -97 callgsubr
        </CharString>
        <CharString name="Euro">
          563 -16 56 -56 64 207 56 72 56 207 64 hstemhm
          114 84 hintmask 01111100
          516 40 rmoveto
          -6 68 rlineto
          -48 -44 -28 -12 -65 hhcurveto
          -54 -42 40 48 -28 hvcurveto
          -22 37 -13 40 -8 42 rrcurveto
          225 hlineto
          10 56 rlineto
          -242 hlineto
          -1 12 0 12 12 vvcurveto
          12 0 12 1 12 vhcurveto
          254 hlineto
          10 56 rlineto
          -257 hlineto
          8 42 13 41 22 37 rrcurveto
          47 28 42 40 54 hhcurveto
          49 35 -14 -36 34 hvcurveto
          14 80 rlineto
          25 -45 -36 9 -51 hhcurveto
          -75 -65 -45 -61 -43 hvcurveto
          -35 -49 -22 -57 -11 -59 rrcurveto
          -65 hlineto
          -10 -56 rlineto
          68 hlineto
          -1 -12 0 -12 -12 vvcurveto
          -12 0 -12 1 -12 vhcurveto
          -58 hlineto
          -10 -56 rlineto
          75 hlineto
          11 -59 22 -56 35 -50 rrcurveto
          -61 43 65 -45 75 hhcurveto
          hintmask 10000000
          66 28 11 45 49 hvcurveto
          endchar
        </CharString>
        <CharString name="F">
          535 21 -21 316 61 250 65 hstem
          88 84 vstem
          495 627 rmoveto
          65 -407 -692 84 316 284 61 -284 251 122 vlineto
          12 12 -1 12 hhcurveto
          endchar
        </CharString>
        <CharString name="G">
          40 callsubr
          hstem
          61 84 337 76 vstem
          -99 callgsubr
          endchar
        </CharString>
        <CharString name="Gacute">
          40 callsubr
          66 -21 122 -20 hstemhm
          61 84 337 76 hintmask 11001100
          -99 callgsubr
          hintmask 00110000
          -54 821 -94 callsubr
        </CharString>
        <CharString name="Gamma">
          509 21 -21 627 65 hstem
          88 84 vstem
          469 627 rmoveto
          65 -381 -692 84 628 109 vlineto
          12 12 -1 12 hhcurveto
          endchar
        </CharString>
        <CharString name="Gbreve">
          40 callsubr
          45 66 127 -20 hstemhm
          61 84 337 76 hintmask 11001100
          -99 callgsubr
          hintmask 00110000
          -84 892 -105 callsubr
          endchar
        </CharString>
        <CharString name="Gcaron">
          40 callsubr
          56 -21 134 -20 hstemhm
          61 84 337 76 hintmask 11001100
          -99 callgsubr
          hintmask 00110000
          -89 823 -81 callgsubr
        </CharString>
        <CharString name="Gcedilla">
          627 -41 callsubr
          50 64 575 64 hstem
          61 84 337 76 vstem
          -99 callgsubr
          -208 -170 -86 callsubr
        </CharString>
        <CharString name="Gcircumflex">
          40 callsubr
          56 -21 134 -20 hstemhm
          61 84 337 76 hintmask 11001100
          -99 callgsubr
          hintmask 00110000
          -89 689 -103 callgsubr
          endchar
        </CharString>
        <CharString name="Gcommaaccent">
          627 -41 callsubr
          50 64 575 64 hstemhm
          61 84 337 76 hintmask 00111100
          -99 callgsubr
          hintmask 11000000
          -208 -170 -86 callsubr
        </CharString>
        <CharString name="Gdotaccent">
          40 callsubr
          35 84 hstemhm
          61 84 127 84 126 76 hintmask 11010100
          -99 callgsubr
          hintmask 00101000
          -202 689 -80 callsubr
        </CharString>
        <CharString name="H">
          3 callgsubr
          40 callgsubr
          -56 callsubr
          endchar
        </CharString>
        <CharString name="H_uni0303">
          3 callgsubr
          56 33 callgsubr
          88 84 318 84 hintmask 11100110
          -56 callsubr
          hintmask 00001000
          -2 847 -97 callgsubr
        </CharString>
        <CharString name="Hbar">
          663 21 -21 330 61 98 64 141 -20 40 callgsubr
          625 489 rmoveto
          64 -51 141 -84 -141 -318 141 -84 -141 -51 -64 51 -489 84 330 318 -330 84 489 vlineto
          -84 -98 rmoveto
          -318 98 318 hlineto
          endchar
        </CharString>
        <CharString name="Hbrevebelow">
          663 66 callsubr
          102 77 callgsubr
          318 84 hintmask 00111110
          -56 callsubr
          hintmask 11000000
          2 -61 -105 callsubr
          endchar
        </CharString>
        <CharString name="Hcircumflex">
          3 callgsubr
          77 -21 134 -20 hstemhm
          88 84 318 84 hintmask 11100110
          -56 callsubr
          hintmask 00011000
          -3 730 -103 callgsubr
          endchar
        </CharString>
        <CharString name="Hdieresis">
          3 callgsubr
          56 75 hstemhm
          88 84 39 76 88 76 39 84 hintmask 11101001
          -56 callsubr
          hintmask 00010110
          -203 730 -70 callgsubr
          endchar
        </CharString>
        <CharString name="Hdotbelow">
          663 -200 84 137 77 callgsubr
          118 84 116 84 hintmask 01111010
          -56 callsubr
          hintmask 10000100
          -116 -200 -80 callsubr
        </CharString>
        <CharString name="I">
          3 callsubr
          hstem
          87 84 vstem
          -51 callgsubr
          endchar
        </CharString>
        <CharString name="I_J">
          676 -16 61 649 -20 hstem
          87 84 345 82 vstem
          -51 callgsubr
          511 -57 callsubr
          endchar
        </CharString>
        <CharString name="Iacute">
          10 callsubr
          286 862 rmoveto
          -111 hlineto
          -175 -122 rlineto
          89 hlineto
          endchar
        </CharString>
        <CharString name="Ibreve">
          3 callsubr
          66 66 127 -14 callgsubr
          203 933 -105 callsubr
          endchar
        </CharString>
        <CharString name="Icaron">
          3 callsubr
          77 -21 134 -14 callgsubr
          198 864 -81 callgsubr
        </CharString>
        <CharString name="Icircumflex">
          3 callsubr
          77 -21 134 -14 callgsubr
          198 730 -103 callgsubr
          endchar
        </CharString>
        <CharString name="Idblgrave">
          3 callsubr
          87 -21 176 -14 callgsubr
          178 740 -88 callgsubr
        </CharString>
        <CharString name="Idieresis">
          259 61 callsubr
          9 76 2 84 2 76 hintmask 11001000
          -51 callgsubr
          hintmask 00110100
          -2 730 -70 callgsubr
          endchar
        </CharString>
        <CharString name="Idieresisacute">
          3 callsubr
          56 75 67 callgsubr
          9 76 2 84 2 76 hintmask 11000010
          -51 callgsubr
          hintmask 00111101
          -2 730 -70 callgsubr
          147 243 -94 callsubr
        </CharString>
        <CharString name="Idotaccent">
          3 callsubr
          56 84 hstemhm
          87 84 -83 84 hintmask 11010000
          -51 callgsubr
          hintmask 00101000
          85 730 -80 callsubr
        </CharString>
        <CharString name="Idotbelow">
          259 -13 callsubr
          694 -20 hstemhm
          87 84 -83 84 hintmask 01110000
          -51 callgsubr
          hintmask 10001000
          85 -200 -80 callsubr
        </CharString>
        <CharString name="Igrave">
          10 callsubr
          84 740 -69 callsubr
        </CharString>
        <CharString name="Ihookabove">
          3 callsubr
          77 -21 211 -7 callgsubr
          hintmask 00111000
          132 869 -107 callgsubr
        </CharString>
        <CharString name="Imacron">
          3 callsubr
          76 64 hstemhm
          87 84 hintmask 11010000
          -51 callgsubr
          hintmask 00100000
          212 750 -58 callgsubr
        </CharString>
        <CharString name="Imacron.alt">
          3 callsubr
          76 64 hstemhm
          87 84 hintmask 11010000
          -51 callgsubr
          hintmask 00100000
          134 750 -5 callsubr
        </CharString>
        <CharString name="Iogonek">
          259 -212 70 163 -39 callsubr
          hstemhm
          87 84 -51 84 hintmask 10001000
          218 -17 callgsubr
          rrcurveto
          hintmask 01110000
          28 callgsubr
          hintmask 10001000
          -71 callsubr
          endchar
        </CharString>
        <CharString name="Iogonekacute">
          259 -212 70 163 46 callgsubr
          87 84 -51 84 hintmask 10000010
          218 -17 callgsubr
          rrcurveto
          hintmask 01100100
          28 callgsubr
          hintmask 10000010
          -71 callsubr
          hintmask 00011100
          155 1049 -94 callsubr
        </CharString>
        <CharString name="Iota">
          3 callsubr
          hstem
          87 84 vstem
          -51 callgsubr
          endchar
        </CharString>
        <CharString name="Itilde">
          3 callsubr
          56 61 -5 61 -16 callgsubr
          hintmask 00010000
          199 847 -98 callsubr
          hintmask 00010000
          41 49 38 79 2 hvcurveto
          endchar
        </CharString>
        <CharString name="J">
          71 callsubr
          hstem
          283 82 vstem
          365 -57 callsubr
          endchar
        </CharString>
        <CharString name="J_uni030C.cap">
          442.86667 -16 61 486 -21 112 72 hstem
          283 82 vstem
          365 -57 callsubr
          108 474 -86 callsubr
        </CharString>
        <CharString name="Jacute">
          71 callsubr
          87 -21 122 -20 hstemhm
          283 82 hintmask 11001000
          365 -57 callsubr
          hintmask 00111000
          204 713 -94 callsubr
        </CharString>
        <CharString name="Jcircumflex">
          71 callsubr
          77 -21 134 -20 hstemhm
          283 82 hintmask 11001000
          365 -57 callsubr
          hintmask 00110000
          115 581 -103 callgsubr
          endchar
        </CharString>
        <CharString name="K">
          651 24 callsubr
          88 84 vstem
          -49 callsubr
          endchar
        </CharString>
        <CharString name="Kappa">
          651 24 callsubr
          88 84 vstem
          -49 callsubr
          endchar
        </CharString>
        <CharString name="Kcedilla">
          651 14 callgsubr
          hstem
          88 84 vstem
          -49 callsubr
          -156 -129 -86 callsubr
        </CharString>
        <CharString name="Kcommaaccent">
          651 6 callsubr
          88 84 hintmask 00111000
          -49 callsubr
          hintmask 11000000
          -156 -129 -86 callsubr
        </CharString>
        <CharString name="L">
          509 0 79 callsubr
          hstem
          88 84 vstem
          -61 callsubr
          endchar
        </CharString>
        <CharString name="L_uni0303">
          509 0 79 callsubr
          56 33 callgsubr
          88 84 hintmask 11001000
          -61 callsubr
          hintmask 00010000
          199 847 -98 callsubr
          hintmask 00010000
          41 49 38 79 2 hvcurveto
          endchar
        </CharString>
        <CharString name="Lacute">
          509 0 79 callsubr
          87 -21 122 -20 hstemhm
          88 84 hintmask 11001000
          -61 callsubr
          33 callsubr
        </CharString>
        <CharString name="Lambda">
          572 24 callsubr
          545 hmoveto
          -217 694 rlineto
          -85 hlineto
          -217 -694 rlineto
          75 hlineto
          97 317 46 158 12 40 18 64 4 36 rlinecurve
          1 1 6 -52 60 -202 21 -67 rlinecurve
          91 -295 rlineto
          endchar
        </CharString>
        <CharString name="Lcaron">
          509 0 65 466 -21 112 72 hstem
          88 84 vstem
          -61 callsubr
          209 623 -86 callsubr
        </CharString>
        <CharString name="Lcedilla">
          509 -41 callsubr
          58 79 callsubr
          hstem
          88 84 vstem
          -61 callsubr
          203 -129 -86 callsubr
        </CharString>
        <CharString name="Lcommaaccent">
          509 -41 callsubr
          58 79 callsubr
          hstemhm
          88 84 hintmask 00111000
          -61 callsubr
          hintmask 11000000
          203 -129 -86 callsubr
        </CharString>
        <CharString name="Ldot">
          509 0 65 256 84 289 -20 hstem
          88 84 170 84 vstem
          -61 callsubr
          338 321 -80 callsubr
        </CharString>
        <CharString name="Ldotbelow">
          509 -15 callsubr
          116 79 callsubr
          hstemhm
          88 84 41 84 hintmask 01110000
          -61 callsubr
          hintmask 10001000
          209 -200 -80 callsubr
        </CharString>
        <CharString name="Ldotbelowmacron">
          509 -15 callsubr
          116 79 callsubr
          76 64 hstemhm
          88 84 41 84 hintmask 11101100
          -61 callsubr
          209 -200 -74 callgsubr
          hintmask 00010000
          87 950 -58 callgsubr
        </CharString>
        <CharString name="Lslash">
          587 0 79 callsubr
          hstem
          164 84 vstem
          545 hmoveto
          65 -208 vlineto
          -12 -12 -1 -12 hhcurveto
          -53 297 hlineto
          171 142 -38 45 -133 -111 rlineto
          257 -84 -329 vlineto
          -103 -87 37 -43 66 56 rlineto
          -291 vlineto
          endchar
        </CharString>
        <CharString name="M">
          -44 callgsubr
        </CharString>
        <CharString name="Mdotbelow">
          820 -13 callsubr
          694 -20 hstemhm
          90 78 -78 79 199 84 198 79 hintmask 01110010
          729 hmoveto
          694 -116 vlineto
          -114 -321 -48 -141 -8 -26 -27 -81 -6 -32 rlinecurve
          -1 hlineto
          -3 20 -6 21 -16 51 -29 89 rcurveline
          -148 420 rlineto
          -117 -694 78 613 hlineto
          hintmask 01001010
          1 hlineto
          0 9 -45 61 -175 vhcurveto
          132 -377 rlineto
          74 hlineto
          119 335 44 131 10 30 25 74 6 29 rlinecurve
          1 -615 hlineto
          hintmask 10000100
          -198 -200 -80 callsubr
        </CharString>
        <CharString name="Mu">
          -44 callgsubr
        </CharString>
        <CharString name="N">
          663 24 callsubr
          88 78 330 78 vstem
          -86 callgsubr
          endchar
        </CharString>
        <CharString name="Nacute">
          663 35 callsubr
          88 78 330 78 hintmask 11001100
          -86 callgsubr
          hintmask 00110000
          71 862 -94 callsubr
        </CharString>
        <CharString name="Ncaron">
          663 -33 callsubr
          77 -21 134 -20 hstemhm
          88 78 330 78 hintmask 11001100
          -86 callgsubr
          hintmask 00110000
          36 864 -81 callgsubr
        </CharString>
        <CharString name="Ncedilla">
          663 14 callgsubr
          hstem
          88 78 330 78 vstem
          -86 callgsubr
          -83 -129 -86 callsubr
        </CharString>
        <CharString name="Ncommaaccent">
          663 6 callsubr
          88 78 330 78 hintmask 00111100
          -86 callgsubr
          hintmask 11000000
          -83 -129 -86 callsubr
        </CharString>
        <CharString name="Ndotaccent">
          663 -33 callsubr
          56 84 hstemhm
          88 78 124 84 122 78 hintmask 11010100
          -86 callgsubr
          hintmask 00101000
          -77 730 -80 callsubr
        </CharString>
        <CharString name="Ndotbelow">
          663 -13 callsubr
          694 -20 hstemhm
          88 78 124 84 122 78 hintmask 01110100
          -86 callgsubr
          hintmask 10001000
          -77 -200 -80 callsubr
        </CharString>
        <CharString name="Ntilde">
          663 -33 callsubr
          56 33 callgsubr
          88 78 330 78 hintmask 11001100
          -86 callgsubr
          hintmask 00010000
          37 847 -98 callsubr
          hintmask 00010000
          41 49 38 79 2 hvcurveto
          endchar
        </CharString>
        <CharString name="Nu">
          663 24 callsubr
          88 78 330 78 vstem
          -86 callgsubr
          endchar
        </CharString>
        <CharString name="O">
          -39 callgsubr
          hstem
          52 84 420 84 vstem
          -105 callgsubr
          endchar
        </CharString>
        <CharString name="OE">
          -66 callsubr
        </CharString>
        <CharString name="OE.dup">
          -66 callsubr
        </CharString>
        <CharString name="Oacute">
          51 callgsubr
          122 -98 callgsubr
          -19 503 -94 callsubr
        </CharString>
        <CharString name="Obreve">
          -39 callgsubr
          30 66 127 -98 callgsubr
          -49 574 -105 callsubr
          endchar
        </CharString>
        <CharString name="Ocaron">
          -39 callgsubr
          41 -21 134 -77 callsubr
          505 -81 callgsubr
        </CharString>
        <CharString name="Ocircumflex">
          -39 callgsubr
          41 -21 134 -77 callsubr
          371 -103 callgsubr
          endchar
        </CharString>
        <CharString name="Ocircumflexacute">
          -39 callgsubr
          41 -21 291 -77 callsubr
          371 -78 callgsubr
        </CharString>
        <CharString name="Ocircumflexdotbelow">
          693 -15 callsubr
          100 63 600 63 41 -21 134 -20 hstemhm
          52 84 169 84 167 84 hintmask 01111101
          -105 callgsubr
          -54 371 -103 callgsubr
          hintmask 10000010
          -54 -930 -80 callsubr
        </CharString>
        <CharString name="Ocircumflexgrave">
          -39 callgsubr
          41 -21 134 -77 callsubr
          371 -78 callsubr
        </CharString>
        <CharString name="Ocircumflexhookabove">
          -39 callgsubr
          41 -21 360 -77 callsubr
          371 -103 callgsubr
          83 288 -107 callgsubr
        </CharString>
        <CharString name="Ocircumflextilde">
          -39 callgsubr
          41 -21 189 61 -5 61 -16 callsubr
          hintmask 11000110
          -105 callgsubr
          hintmask 00101000
          -54 371 -103 callgsubr
          60 306 -97 callgsubr
        </CharString>
        <CharString name="Odblgrave">
          51 callgsubr
          176 -98 callgsubr
          -74 381 -88 callgsubr
        </CharString>
        <CharString name="Odieresis">
          -39 callgsubr
          20 75 hstemhm
          52 84 90 76 88 76 90 84 hintmask 11010010
          -105 callgsubr
          hintmask 00101100
          -254 371 -70 callgsubr
          endchar
        </CharString>
        <CharString name="Odotbelow">
          693 -15 callsubr
          100 63 600 63 hstemhm
          52 84 169 84 167 84 hintmask 01110100
          -105 callgsubr
          hintmask 10001000
          -167 -559 -80 callsubr
        </CharString>
        <CharString name="Ograve">
          51 callgsubr
          122 -98 callgsubr
          -115 381 -69 callsubr
        </CharString>
        <CharString name="Ohookabove">
          -39 callgsubr
          41 -21 211 -98 callgsubr
          -120 510 -107 callgsubr
        </CharString>
        <CharString name="Ohorn">
          15 callsubr
          hstemhm
          52 84 380 79 -39 84 hintmask 00101000
          -36 callsubr
          116 -43 100 -64 65 vhcurveto
          62 45 rlineto
          77 -79 -78 24 vlineto
          -30 -23 rlineto
          hintmask 11010100
          -83 callgsubr
          endchar
        </CharString>
        <CharString name="Ohornacute">
          15 callsubr
          12 -21 122 -20 -82 callgsubr
          hintmask 00011000
          -45 503 -94 callsubr
        </CharString>
        <CharString name="Ohorndotbelow">
          678 -15 callsubr
          100 63 600 63 -39 78 hstemhm
          52 84 161 84 135 79 -39 84 hintmask 00010010
          -36 callsubr
          116 -43 100 -64 65 vhcurveto
          62 45 rlineto
          77 -79 -78 24 vlineto
          -30 -23 rlineto
          hintmask 01101001
          -83 callgsubr
          hintmask 10000100
          -175 -559 -80 callsubr
        </CharString>
        <CharString name="Ohorngrave">
          15 callsubr
          12 -21 122 -20 -82 callgsubr
          hintmask 00011000
          -115 381 -69 callsubr
        </CharString>
        <CharString name="Ohornhookabove">
          15 callsubr
          2 -21 211 -20 -82 callgsubr
          hintmask 00011000
          -120 510 -107 callgsubr
        </CharString>
        <CharString name="Ohorntilde">
          15 callsubr
          -19 61 -5 61 -82 callgsubr
          hintmask 00001000
          -53 488 -97 callgsubr
        </CharString>
        <CharString name="Ohungarumlaut">
          51 callgsubr
          176 -98 callgsubr
          -211 557 -64 callgsubr
        </CharString>
        <CharString name="Omacron">
          -39 callgsubr
          40 64 -16 callsubr
          hintmask 11011000
          -105 callgsubr
          hintmask 00100000
          -40 391 -58 callgsubr
        </CharString>
        <CharString name="Omega">
          -58 callsubr
        </CharString>
        <CharString name="Omicron">
          -39 callgsubr
          hstem
          52 84 420 84 vstem
          -105 callgsubr
          endchar
        </CharString>
        <CharString name="Oogonek">
          -39 callgsubr
          hstem
          52 84 232 84 104 84 vstem
          -49 callgsubr
          endchar
        </CharString>
        <CharString name="Oogonekacute">
          51 callgsubr
          122 -20 hstemhm
          52 84 232 84 104 84 hintmask 11001110
          -49 callgsubr
          hintmask 00110000
          -19 503 -94 callsubr
        </CharString>
        <CharString name="Orogate">
          693 52 84 179 62 179 84 vstem
          -36 callsubr
          194 -119 149 -144 19 vhcurveto
          181 -62 -181 vlineto
          -144 -19 -119 -150 -193 vvcurveto
          -195 121 -146 142 -19 vhcurveto
          -181 62 181 vlineto
          142 19 121 146 195 vvcurveto
          -84 13 rmoveto
          -190 -101 -122 -109 -110 -100 123 189 184 106 104 104 104 106 -104 -184 vhcurveto
          endchar
        </CharString>
        <CharString name="Oslash">
          36 callgsubr
          hstem
          52 84 458 84 vstem
          -81 callsubr
          endchar
        </CharString>
        <CharString name="Oslash.dup">
          36 callgsubr
          hstem
          52 84 458 84 vstem
          -81 callsubr
          endchar
        </CharString>
        <CharString name="Oslashacute">
          36 callgsubr
          23 -21 122 -20 hstemhm
          52 84 458 84 hintmask 11110011
          -81 callsubr
          hintmask 00001100
          -37 516 -94 callsubr
        </CharString>
        <CharString name="Otilde">
          -39 callgsubr
          20 61 -5 61 -100 callsubr
          hintmask 00010000
          -53 488 -98 callsubr
          hintmask 00010000
          41 49 38 79 2 hvcurveto
          endchar
        </CharString>
        <CharString name="P">
          -28 callgsubr
        </CharString>
        <CharString name="Phi">
          679 21 -21 108 60 358 60 108 -20 hstem
          52 82 163 81 166 82 vstem
          626 347 rmoveto
          114 -96 108 -152 19 vhcurveto
          106 -81 -107 vlineto
          -142 -16 -103 -106 -118 vvcurveto
          -118 103 -106 142 -16 vhcurveto
          -107 81 106 vlineto
          152 19 96 108 114 vvcurveto
          -329 -179 rmoveto
          -111 19 -52 79 81 vvcurveto
          81 52 79 111 19 vhcurveto
          247 -179 rmoveto
          -75 -47 -86 -119 -18 vhcurveto
          358 vlineto
          120 -18 46 -86 -75 vvcurveto
          endchar
        </CharString>
        <CharString name="Pi">
          663 21 -21 631 61 40 callgsubr
          574 hmoveto
          692 -486 -692 84 631 318 -631 vlineto
          endchar
        </CharString>
        <CharString name="Psi">
          731 21 -21 108 63 382 60 81 -20 hstem
          116 81 126 81 129 81 vstem
          678 552 rmoveto
          61 -70 vlineto
          -22 -26 0 -48 -15 hvcurveto
          -12 -39 0 -55 -54 vvcurveto
          -83 -14 -131 -115 -32 vhcurveto
          523 -81 -523 vlineto
          -120 35 -6 146 67 vvcurveto
          157 -16 37 -59 vhcurveto
          -70 -61 hlineto
          56 -3 8 -61 -80 vvcurveto
          1 -142 52 -135 154 -24 rrcurveto
          -107 81 107 vlineto
          171 29 38 143 1 144 rrcurveto
          93 22 34 42 2 vhcurveto
          endchar
        </CharString>
        <CharString name="Q">
          693 -104 -21 109 63 600 63 hstem
          52 82 424 82 vstem
          -36 callsubr
          208 -137 156 -157 -157 -137 -157 -207 -209 139 -153 155 35 30 8 8 21 vhcurveto
          84 -125 rlineto
          98 hlineto
          -114 162 rlineto
          122 99 18 134 76 vvcurveto
          -82 hmoveto
          -64 -10 -107 -87 -82 vhcurveto
          -72 101 rlineto
          -86 hlineto
          92 -139 rlineto
          -5 -14 -17 -3 -18 hhcurveto
          -108 -104 113 186 185 103 116 109 110 102 -117 -184 hvcurveto
          endchar
        </CharString>
        <CharString name="R">
          24 callgsubr
          hstem
          89 82 303 79 vstem
          -95 callsubr
          endchar
        </CharString>
        <CharString name="Racute">
          24 callgsubr
          67 callgsubr
          89 82 303 79 hintmask 11100110
          -95 callsubr
          hintmask 00011000
          20 354 -94 callsubr
        </CharString>
        <CharString name="Rcaron">
          24 callgsubr
          57 -21 134 -20 hstemhm
          89 82 303 79 hintmask 11100110
          -95 callsubr
          hintmask 00011000
          -15 356 -81 callgsubr
        </CharString>
        <CharString name="Rcedilla">
          606 62 callgsubr
          317 61 260 56 hstem
          89 82 303 79 vstem
          -95 callsubr
          -134 -637 -86 callsubr
        </CharString>
        <CharString name="Rcommaaccent">
          606 62 callgsubr
          317 61 260 56 hstemhm
          89 82 303 79 hintmask 00111110
          -95 callsubr
          hintmask 11000000
          -134 -637 -86 callsubr
        </CharString>
        <CharString name="Rdblgrave">
          24 callgsubr
          67 46 callsubr
          hstemhm
          89 82 303 79 hintmask 11100110
          -95 callsubr
          hintmask 00011000
          -61 232 -88 callgsubr
        </CharString>
        <CharString name="Rdotaccent">
          24 callgsubr
          36 84 62 callsubr
          hintmask 11101010
          -95 callsubr
          hintmask 00010100
          -128 222 -80 callsubr
        </CharString>
        <CharString name="Rdotbelow">
          606 -200 84 137 39 callgsubr
          62 callsubr
          hintmask 01111010
          -95 callsubr
          hintmask 10000100
          -128 -708 -80 callsubr
        </CharString>
        <CharString name="Rdotbelowmacron">
          606 -200 84 137 39 callgsubr
          56 64 62 callsubr
          hintmask 11110111
          -95 callsubr
          -128 -708 -74 callgsubr
          hintmask 00001000
          211 950 -58 callgsubr
        </CharString>
        <CharString name="Rho">
          -28 callgsubr
        </CharString>
        <CharString name="S">
          38 callgsubr
          hstem
          52 76 265 76 vstem
          469 191 rmoveto
          -101 callgsubr
          endchar
        </CharString>
        <CharString name="S_S">
          1045 -16 68 592 66 hstem
          52 76 265 76 105 76 265 76 vstem
          469 191 rmoveto
          -101 callgsubr
          522 hmoveto
          -101 callgsubr
          endchar
        </CharString>
        <CharString name="Sacute">
          38 callgsubr
          51 -21 122 -20 hstemhm
          52 76 265 76 hintmask 11001100
          469 191 rmoveto
          -101 callgsubr
          hintmask 00110000
          -17 671 -94 callsubr
        </CharString>
        <CharString name="Scaron">
          38 callgsubr
          41 -21 134 -20 hstemhm
          52 76 265 76 hintmask 11001100
          469 191 rmoveto
          -101 callgsubr
          hintmask 00110000
          -52 673 -81 callgsubr
        </CharString>
        <CharString name="Scedilla">
          38 callgsubr
          hstem
          52 76 265 76 vstem
          469 191 rmoveto
          -101 callgsubr
          -162 -225 -7 callsubr
        </CharString>
        <CharString name="Scircumflex">
          38 callgsubr
          41 -21 134 -20 hstemhm
          52 76 265 76 hintmask 11001100
          469 191 rmoveto
          -101 callgsubr
          hintmask 00110000
          -52 539 -103 callgsubr
          endchar
        </CharString>
        <CharString name="Sdotbelow">
          522 -15 callsubr
          100 68 592 66 hstemhm
          52 76 92 84 89 76 hintmask 01110100
          469 191 rmoveto
          -101 callgsubr
          hintmask 10001000
          -165 -391 -80 callsubr
        </CharString>
        <CharString name="Sigma">
          679 0 69 560 65 hstem
          626 hmoveto
          69 -225 vlineto
          -12 -12 -1 -12 hhcurveto
          -179 hlineto
          179 279 -209 283 rlineto
          191 hlineto
          12 12 -1 12 hhcurveto
          243 65 -574 -64 hlineto
          216 -293 -216 -337 rlineto
          endchar
        </CharString>
        <CharString name="T">
          37 callsubr
          hstem
          278 84 vstem
          -76 callsubr
          endchar
        </CharString>
        <CharString name="T_uni0303">
          37 callsubr
          36 33 callgsubr
          278 84 hintmask 11001000
          -76 callsubr
          hintmask 00010000
          -4 221 -98 callsubr
          hintmask 00010000
          41 49 38 79 2 hvcurveto
          endchar
        </CharString>
        <CharString name="T_uni0308">
          37 callsubr
          36 75 hstemhm
          200 76 2 84 2 76 hintmask 11001000
          -76 callsubr
          hintmask 00110100
          -205 104 -70 callgsubr
          endchar
        </CharString>
        <CharString name="Tau">
          37 callsubr
          hstem
          278 84 vstem
          -76 callsubr
          endchar
        </CharString>
        <CharString name="Tcaron">
          37 callsubr
          57 -21 134 -20 hstemhm
          278 84 hintmask 11001000
          -76 callsubr
          hintmask 00110000
          -5 238 -81 callgsubr
        </CharString>
        <CharString name="Tcedilla">
          641 -165 -21 168 -20 59 -21 626 68 hstemhm
          221 130 -73 84 hintmask 01110100
          -76 callsubr
          -130 -644 rmoveto
          -61 hlineto
          hintmask 11001000
          -69 -168 rlineto
          68 hlineto
          endchar
        </CharString>
        <CharString name="Tdotbelow">
          641 -13 callsubr
          626 68 hstemhm
          278 84 -83 84 hintmask 01110000
          -76 callsubr
          hintmask 10001000
          -118 -826 -80 callsubr
        </CharString>
        <CharString name="Theta">
          731 -16 62 262 79 262 61 hstem
          52 81 464 81 vstem
          678 346 rmoveto
          205 -144 159 -169 -169 -144 -159 -205 -208 147 -154 166 167 146 155 207 vhcurveto
          -81 hmoveto
          -185 -113 -115 -119 -119 -113 115 185 183 110 120 122 122 110 -121 -182 vhcurveto
          -53 -38 rmoveto
          79 -358 -79 vlineto
          endchar
        </CharString>
        <CharString name="Thorn">
          547 21 -21 178 48 282 48 127 -20 hstem
          99 60 272 63 vstem
          494 367 rmoveto
          82 -63 107 -143 vhcurveto
          -129 127 -60 -683 60 178 139 hlineto
          116 80 90 99 hvcurveto
          -63 -1 rmoveto
          -65 -57 -75 -103 vhcurveto
          -112 282 91 hlineto
          128 53 -81 -61 hvcurveto
          endchar
        </CharString>
        <CharString name="Tlinebelow">
          641 -190 64 147 -21 626 68 hstemhm
          278 84 hintmask 01110000
          -76 callsubr
          hintmask 10000000
          9 -816 -58 callgsubr
        </CharString>
        <CharString name="U">
          -30 callsubr
          hstem
          88 84 307 76 vstem
          555 233 rmoveto
          461 -101 callsubr
          endchar
        </CharString>
        <CharString name="U_uni032F">
          644 -233 79 callgsubr
          45 56 654 -20 hstemhm
          88 84 307 76 hintmask 00111100
          555 233 rmoveto
          461 -101 callsubr
          hintmask 11000000
          -72 -487 -73 callgsubr
        </CharString>
        <CharString name="Uacute">
          -30 callsubr
          87 -21 122 -20 hstemhm
          88 84 307 76 hintmask 11001100
          555 233 rmoveto
          461 -101 callsubr
          hintmask 00110000
          -42 629 -94 callsubr
        </CharString>
        <CharString name="Ubreve">
          -30 callsubr
          66 66 127 -20 hstemhm
          88 84 307 76 hintmask 11001100
          555 233 rmoveto
          461 -101 callsubr
          hintmask 00110000
          -72 700 -105 callsubr
          endchar
        </CharString>
        <CharString name="Ucaron">
          -30 callsubr
          77 -21 134 -20 hstemhm
          88 84 307 76 hintmask 11001100
          555 233 rmoveto
          461 -101 callsubr
          hintmask 00110000
          -77 631 -81 callgsubr
        </CharString>
        <CharString name="Ucircumflex">
          -30 callsubr
          77 -21 134 -20 hstemhm
          88 84 307 76 hintmask 11001100
          555 233 rmoveto
          461 -101 callsubr
          hintmask 00110000
          -77 497 -103 callgsubr
          endchar
        </CharString>
        <CharString name="Udblgrave">
          -30 callsubr
          87 46 callsubr
          hstemhm
          88 84 307 76 hintmask 11001100
          555 233 rmoveto
          461 -101 callsubr
          hintmask 00110000
          -97 507 -88 callgsubr
        </CharString>
        <CharString name="Udieresis">
          -30 callsubr
          56 75 hstemhm
          88 84 30 76 88 76 37 76 hintmask 11010010
          555 233 rmoveto
          461 -101 callsubr
          hintmask 00101100
          9 callsubr
          endchar
        </CharString>
        <CharString name="Udieresisacute">
          -30 callsubr
          56 75 67 callgsubr
          88 84 30 76 88 76 37 76 hintmask 1100010010000000
          555 233 rmoveto
          461 -101 callsubr
          hintmask 0011101100000000
          9 callsubr
          147 243 -94 callsubr
        </CharString>
        <CharString name="Udieresiscaron">
          -30 callsubr
          56 75 57 -21 134 -20 hstemhm
          88 84 30 76 88 76 37 76 hintmask 1100010010000000
          555 233 rmoveto
          461 -101 callsubr
          hintmask 0011101100000000
          9 callsubr
          112 245 -81 callgsubr
        </CharString>
        <CharString name="Udieresisgrave">
          -30 callsubr
          56 75 67 callgsubr
          88 84 30 76 88 76 37 76 hintmask 1100010010000000
          555 233 rmoveto
          461 -101 callsubr
          hintmask 0011101100000000
          9 callsubr
          51 121 -69 callsubr
        </CharString>
        <CharString name="Udotbelow">
          644 -15 callsubr
          100 56 654 -20 hstemhm
          88 84 108 84 115 76 hintmask 01110100
          555 233 rmoveto
          461 -101 callsubr
          hintmask 10001000
          -191 -433 -80 callsubr
        </CharString>
        <CharString name="Ugrave">
          -30 callsubr
          87 -21 122 -20 hstemhm
          88 84 307 76 hintmask 11001100
          555 233 rmoveto
          461 -101 callsubr
          hintmask 00110000
          -138 507 -69 callsubr
        </CharString>
        <CharString name="Uhookabove">
          -30 callsubr
          77 -21 211 -20 hstemhm
          88 84 307 76 hintmask 11001100
          555 233 rmoveto
          461 -101 callsubr
          hintmask 00110000
          -143 636 -107 callgsubr
        </CharString>
        <CharString name="Uhorn">
          38 callsubr
          hstem
          89 84 307 76 22 79 vstem
          657 672 rmoveto
          77 -79 -77 24 vlineto
          -46 -32 rlineto
          54 -101 callsubr
          366 vlineto
          endchar
        </CharString>
        <CharString name="Uhornacute">
          38 callsubr
          12 -21 122 -20 hstemhm
          89 84 307 76 22 79 hintmask 11001110
          657 672 rmoveto
          77 -79 -77 24 vlineto
          -46 -32 rlineto
          54 -101 callsubr
          366 vlineto
          hintmask 00110000
          -68 263 -94 callsubr
        </CharString>
        <CharString name="Uhorndotbelow">
          647 -15 callsubr
          100 56 632 77 hstemhm
          89 84 109 84 114 76 22 79 hintmask 01110110
          657 672 rmoveto
          77 -79 -77 24 vlineto
          -46 -32 rlineto
          54 -101 callsubr
          366 vlineto
          hintmask 10001000
          -190 -799 -80 callsubr
        </CharString>
        <CharString name="Uhorngrave">
          38 callsubr
          12 -21 122 -20 hstemhm
          89 84 307 76 22 79 hintmask 11001110
          657 672 rmoveto
          77 -79 -77 24 vlineto
          -46 -32 rlineto
          54 -101 callsubr
          366 vlineto
          hintmask 00110000
          -138 141 -69 callsubr
        </CharString>
        <CharString name="Uhornhookabove">
          38 callsubr
          2 -21 211 -20 hstemhm
          89 84 307 76 22 79 hintmask 11001110
          657 672 rmoveto
          77 -79 -77 24 vlineto
          -46 -32 rlineto
          54 -101 callsubr
          366 vlineto
          hintmask 00110000
          -143 270 -107 callgsubr
        </CharString>
        <CharString name="Uhorntilde">
          38 callsubr
          -19 33 callgsubr
          89 84 307 76 22 79 hintmask 11001110
          657 672 rmoveto
          77 -79 -77 24 vlineto
          -46 -32 rlineto
          54 -101 callsubr
          366 vlineto
          hintmask 00010000
          -76 248 -98 callsubr
          hintmask 00010100
          41 49 38 79 2 hvcurveto
          endchar
        </CharString>
        <CharString name="Uhungarumlaut">
          -30 callsubr
          87 46 callsubr
          hstemhm
          88 84 307 76 hintmask 11001100
          555 233 rmoveto
          461 -101 callsubr
          hintmask 00110000
          -234 683 -64 callgsubr
        </CharString>
        <CharString name="Umacron">
          -30 callsubr
          76 64 hstemhm
          88 84 307 76 hintmask 11011000
          555 233 rmoveto
          461 -101 callsubr
          hintmask 00100000
          -63 517 -58 callgsubr
        </CharString>
        <CharString name="Uogonek">
          644 -212 70 126 56 654 -20 hstem
          88 84 170 84 53 76 vstem
          555 233 rmoveto
          461 -76 -462 vlineto
          -133 -81 -59 -74 -76 -76 62 129 vhcurveto
          463 -84 -461 vlineto
          -138 101 -102 118 -8 vhcurveto
          -39 -29 -27 -40 2 -43 -46 callgsubr
          rrcurveto
          39 33 31 40 25 vhcurveto
          99 26 77 94 122 vvcurveto
          endchar
        </CharString>
        <CharString name="Upsilon">
          731 21 -21 647 63 hstem
          52 77 194 84 194 77 cntrmask 00111000
          678 555 rmoveto
          101 -3 -76 54 -72 hhcurveto
          -108 -38 -103 -103 -15 hvcurveto
          -1 hlineto
          113 -17 -42 93 -103 hhcurveto
          -72 -76 -54 -101 -3 hvcurveto
          76 hlineto
          56 2 32 36 42 hhcurveto
          87 32 -87 -163 hvcurveto
          -397 84 397 vlineto
          166 33 84 86 42 32 -35 -57 2 vhcurveto
          endchar
        </CharString>
        <CharString name="Uring">
          644 -16 56 654 49 78 49 hstemhm
          88 84 45 58 94 58 52 76 hintmask 11010010
          555 233 rmoveto
          461 -101 callsubr
          hintmask 01101100
          -186 549 -92 callsubr
          endchar
        </CharString>
        <CharString name="Utilde">
          -30 callsubr
          56 33 callgsubr
          88 84 307 76 hintmask 11001100
          555 233 rmoveto
          461 -101 callsubr
          hintmask 00010000
          -76 614 -98 callsubr
          hintmask 00010100
          41 49 38 79 2 hvcurveto
          endchar
        </CharString>
        <CharString name="V">
          625 24 callsubr
          611 694 rmoveto
          -78 hlineto
          -173 -480 -5 -14 -31 -92 -6 -32 rlinecurve
          -1 hlineto
          -8 38 -32 89 -17 49 -116 325 rcurveline
          -43 117 rlineto
          -88 hlineto
          255 -694 rlineto
          88 hlineto
          endchar
        </CharString>
        <CharString name="W">
          886 24 callsubr
          -93 callsubr
          endchar
        </CharString>
        <CharString name="Wacute">
          886 35 callsubr
          hintmask 11000000
          -93 callsubr
          hintmask 00110000
          -48 862 -94 callsubr
        </CharString>
        <CharString name="Wcircumflex">
          886 -33 callsubr
          77 -21 134 -20 hstemhm
          hintmask 11000000
          -93 callsubr
          hintmask 00110000
          -83 730 -103 callgsubr
          endchar
        </CharString>
        <CharString name="Wdieresis">
          886 61 callsubr
          323 76 88 76 hintmask 11000000
          -93 callsubr
          hintmask 00111000
          -283 730 -70 callgsubr
          endchar
        </CharString>
        <CharString name="Wgrave">
          886 35 callsubr
          hintmask 11000000
          -93 callsubr
          hintmask 00110000
          -144 740 -69 callsubr
        </CharString>
        <CharString name="X">
          -22 callsubr
        </CharString>
        <CharString name="Xi">
          627 0 70 -70 71 253 70 226 71 -70 70 hstemhm
          39 548 hintmask 00010000
          582 620 rmoveto
          71 -538 -71 117 vlineto
          hintmask 00001000
          152 1 rlineto
          hintmask 01010100
          152 -1 rlineto
          122 -620 rmoveto
          71 -119 vlineto
          hintmask 10000000
          -155 -1 rlineto
          hintmask 01100100
          -155 1 rlineto
          -119 -71 hlineto
          483 324 rmoveto
          70 -418 -70 vlineto
          endchar
        </CharString>
        <CharString name="Y">
          625 24 callsubr
          271 82 vstem
          -79 callgsubr
          endchar
        </CharString>
        <CharString name="Yacute">
          625 35 callsubr
          271 82 hintmask 11001000
          -79 callgsubr
          hintmask 00110000
          150 585 -94 callsubr
        </CharString>
        <CharString name="Ycircumflex">
          625 -33 callsubr
          77 -21 134 -20 hstemhm
          271 82 hintmask 11001000
          -79 callgsubr
          hintmask 00110000
          115 453 -103 callgsubr
          endchar
        </CharString>
        <CharString name="Ydieresis">
          625 61 callsubr
          192 76 3 82 3 76 hintmask 11001000
          -79 callgsubr
          hintmask 00110100
          -85 453 -70 callgsubr
          endchar
        </CharString>
        <CharString name="Ydotbelow">
          63 callgsubr
          694 -20 hstemhm
          271 82 -82 84 hintmask 01110000
          -79 callgsubr
          hintmask 10001000
          2 -477 -80 callsubr
        </CharString>
        <CharString name="Ygrave">
          625 35 callsubr
          271 82 hintmask 11001000
          -79 callgsubr
          hintmask 00110000
          54 463 -69 callsubr
        </CharString>
        <CharString name="Yhookabove">
          625 -33 callsubr
          77 -21 211 -20 hstemhm
          271 82 hintmask 11001000
          -79 callgsubr
          hintmask 00111000
          49 592 -107 callgsubr
        </CharString>
        <CharString name="Ytilde">
          625 -33 callsubr
          56 33 callgsubr
          271 82 hintmask 11001000
          -79 callgsubr
          hintmask 00010000
          116 570 -98 callsubr
          hintmask 00010000
          41 49 38 79 2 hvcurveto
          endchar
        </CharString>
        <CharString name="Z">
          41 callgsubr
          hstem
          -73 callsubr
          endchar
        </CharString>
        <CharString name="Zacute">
          41 callgsubr
          67 callgsubr
          hintmask 11000000
          -73 callsubr
          hintmask 00110000
          426 862 -94 callsubr
        </CharString>
        <CharString name="Zcaron">
          41 callgsubr
          57 -21 134 -20 hstemhm
          hintmask 11000000
          -73 callsubr
          hintmask 00110000
          391 864 -81 callgsubr
        </CharString>
        <CharString name="Zdotaccent">
          41 callgsubr
          36 84 hstemhm
          246 84 hintmask 11000000
          -73 callsubr
          hintmask 00110000
          278 730 -80 callsubr
        </CharString>
        <CharString name="Zdotbelow">
          575 -15 callsubr
          116 66 565 63 hstemhm
          246 84 hintmask 01100000
          -73 callsubr
          hintmask 10010000
          278 -200 -80 callsubr
        </CharString>
        <CharString name="Zeta">
          41 callgsubr
          hstem
          -73 callsubr
          endchar
        </CharString>
        <CharString name="a">
          -67 callsubr
          hstem
          -22 callgsubr
          vstem
          -107 callsubr
          endchar
        </CharString>
        <CharString name="aacute">
          -67 callsubr
          97 -21 176 -96 callsubr
          48 500 -76 callgsubr
        </CharString>
        <CharString name="abreve">
          -67 callsubr
          68 66 127 -103 callsubr
          hintmask 00011010
          76 509 -105 callsubr
          endchar
        </CharString>
        <CharString name="abreveacute">
          -67 callsubr
          68 66 284 -103 callsubr
          hintmask 00011010
          76 509 -105 callsubr
          -17 157 -94 callsubr
        </CharString>
        <CharString name="abrevedotbelow">
          21 callsubr
          68 66 127 -20 hstemhm
          50 73 61 84 42 76 hintmask 0111111010000000
          -107 callsubr
          76 509 -105 callsubr
          hintmask 1000000100000000
          -118 -903 -80 callsubr
        </CharString>
        <CharString name="abrevegrave">
          -67 callsubr
          68 66 127 -103 callsubr
          hintmask 00011010
          76 509 -105 callsubr
          -18 35 rmoveto
          -89 hlineto
          -197 122 rlineto
          111 hlineto
          endchar
        </CharString>
        <CharString name="abrevehookabove">
          -67 callsubr
          68 66 287 66 -104 callgsubr
          hintmask 00011010
          76 509 -105 callsubr
          -70 154 -107 callgsubr
        </CharString>
        <CharString name="abrevetilde">
          -67 callsubr
          68 66 182 61 -5 61 17 callgsubr
          hintmask 11100011
          -107 callsubr
          hintmask 00010101
          76 509 -105 callsubr
          -4 172 -85 callsubr
        </CharString>
        <CharString name="acaron">
          -67 callsubr
          99 -21 172 -96 callsubr
          70 498 -80 callgsubr
        </CharString>
        <CharString name="acircumflex">
          -67 callsubr
          99 -21 172 -96 callsubr
          70 326 -89 callsubr
          endchar
        </CharString>
        <CharString name="acircumflexacute">
          -67 callsubr
          99 -21 291 -96 callsubr
          71 326 -78 callgsubr
        </CharString>
        <CharString name="acircumflexdotbelow">
          21 callsubr
          99 64 callgsubr
          50 73 61 84 42 76 hintmask 0111111010000000
          -107 callsubr
          70 326 -89 callsubr
          hintmask 1000000100000000
          -53 -720 -80 callsubr
        </CharString>
        <CharString name="acircumflexgrave">
          -67 callsubr
          99 -21 134 -96 callsubr
          71 326 -78 callsubr
        </CharString>
        <CharString name="acircumflexhookabove">
          -67 callsubr
          99 -21 360 -96 callsubr
          71 326 -103 callgsubr
          83 288 -107 callgsubr
        </CharString>
        <CharString name="acircumflextilde">
          -67 callsubr
          99 -21 189 61 -5 61 17 callgsubr
          hintmask 11100011
          -107 callsubr
          hintmask 00010100
          71 326 -103 callgsubr
          60 306 -85 callsubr
        </CharString>
        <CharString name="acute">
          470 539 -11 callgsubr
          368 694 -76 callgsubr
        </CharString>
        <CharString name="acute.cap">
          470 497 -21 122 -20 hstem
          426 598 -94 callsubr
        </CharString>
        <CharString name="acute.dup">
          470 539 -11 callgsubr
          368 694 -76 callgsubr
        </CharString>
        <CharString name="acute.ts1">
          50 callsubr
          391 716 rmoveto
          -60 hlineto
          -102 -143 -33 -47 rlineto
          50 hlineto
          endchar
        </CharString>
        <CharString name="adblgrave">
          -67 callsubr
          97 -21 176 -96 callsubr
          51 324 -88 callgsubr
        </CharString>
        <CharString name="adieresis">
          -67 callsubr
          127 75 hstemhm
          50 73 -6 76 64 76 -23 76 hintmask 11101001
          -107 callsubr
          hintmask 00010110
          -117 375 -14 callsubr
        </CharString>
        <CharString name="adotbelow">
          21 callsubr
          hstemhm
          50 73 61 84 42 76 hintmask 01111010
          -107 callsubr
          hintmask 10000100
          -42 -394 -80 callsubr
        </CharString>
        <CharString name="ae">
          -74 callsubr
        </CharString>
        <CharString name="ae.dup">
          -74 callsubr
        </CharString>
        <CharString name="aeacute">
          679 -8 61 -45 55 53 59 44 55 107 61 -59 59 17 callsubr
          42 73 -37 73 150 76 132 76 0 67 hintmask 0000010001100000
          652 219 rmoveto
          33 0 190 -159 -44 -54 -20 -51 -42 vhcurveto
          41 -27 -43 30 -63 hhcurveto
          -36 -53 -5 -35 -59 hvcurveto
          6 -66 rlineto
          26 37 42 21 62 hhcurveto
          48 34 -37 -64 hvcurveto
          -36 vlineto
          hintmask 0010000010000000
          -111 -148 -34 -96 hvcurveto
          hintmask 1000000001000000
          -34 18 -90 91 vhcurveto
          hintmask 0100000000000000
          4 61 0 16 51 hvcurveto
          23 7 40 13 26 35 rrcurveto
          hintmask 1001000000110000
          -5 4 55 -66 93 hhcurveto
          46 50 15 34 43 35 callgsubr
          -40 -45 -51 -12 -36 hhcurveto
          -71 -60 67 99 -1 hvcurveto
          hintmask 1011100010001000
          208 55 rmoveto
          -201 hlineto
          68 18 47 39 44 hhcurveto
          38 43 -27 -80 11 hvcurveto
          -280 -149 rmoveto
          -72 -98 0 -9 -51 -32 30 34 66 144 7 43 2 vhcurveto
          1 -17 rlineto
          2 -18 0 -15 -17 vvcurveto
          hintmask 0000001100000000
          167 569 -76 callgsubr
        </CharString>
        <CharString name="agrave">
          -67 callsubr
          97 -21 176 -96 callsubr
          -18 324 -60 callsubr
        </CharString>
        <CharString name="ahookabove">
          -67 callsubr
          80 -21 211 -96 callsubr
          5 446 -107 callgsubr
        </CharString>
        <CharString name="amacron">
          -67 callsubr
          132 64 17 callgsubr
          hintmask 11101100
          -107 callsubr
          hintmask 00010000
          85 380 -58 callgsubr
        </CharString>
        <CharString name="ampersand">
          712 -16 64 601 61 hstemhm
          39 76 0 66 -31 66 -9 76 1 66 -11 73 138 76 hintmask 1000001010000000
          659 -1 rmoveto
          66 vlineto
          -15 -50 -42 -2 -15 hhcurveto
          -21 -28 2 34 -46 hvcurveto
          6 5 113 97 50 191 -62 18 rcurveline
          -50 -180 -89 -75 -14 -12 -19 21 -74 87 -53 106 rrcurveto
          0 55 50 30 37 vhcurveto
          hintmask 0000000100000000
          33 39 29 42 47 vvcurveto
          hintmask 0100101000000000
          75 -50 78 -78 -86 -48 -93 -102 vhcurveto
          hintmask 0001000000000000
          -60 12 -52 19 -56 vhcurveto
          -14 -12 -50 -46 -22 -22 rrcurveto
          hintmask 1010100010000000
          -15 -14 -41 -38 -68 vvcurveto
          -85 70 -78 103 69 67 23 33 51 vhcurveto
          -45 57 51 -11 43 hhcurveto
          14 42 1 14 53 hvcurveto
          -320 559 rmoveto
          -58 -56 -55 -42 -41 vhcurveto
          -19 55 -6 56 34 vvcurveto
          hintmask 1101010100000000
          76 39 24 28 52 4 -76 -15 vhcurveto
          11 -473 rmoveto
          -23 -42 -47 -14 -48 hhcurveto
          -69 -29 61 44 hvcurveto
          hintmask 0000100000000000
          48 25 25 10 9 vhcurveto
          hintmask 0000011000000000
          18 19 19 17 20 17 23 -47 53 -81 67 -75 rrcurveto
          endchar
        </CharString>
        <CharString name="anglearc">
          731 -43 -21 628 -20 hstem
          526 34 vstem
          678 17 rmoveto
          7 -4 6 -7 3 vhcurveto
          -135 53 rlineto
          18 52 10 56 56 vvcurveto
          56 -10 56 -18 52 vhcurveto
          135 53 rlineto
          7 3 4 6 7 vvcurveto
          12 -12 8 -11 -4 vhcurveto
          -135 -53 -18 40 -22 37 -28 35 rlinecurve
          4 -3 -5 2 -5 hhcurveto
          -9 -8 -8 -9 -4 1 -4 3 -3 hvcurveto
          25 -31 21 -35 16 -37 -425 -167 rcurveline
          -7 -3 -4 -6 -7 vvcurveto
          -7 4 -6 7 -3 vhcurveto
          425 -167 -16 -37 -21 -35 -25 -31 rlinecurve
          -3 -3 -1 -4 -4 vvcurveto
          -9 8 -8 9 5 5 2 4 3 vhcurveto
          28 35 22 37 18 40 135 -53 rcurveline
          11 -4 12 8 12 vvcurveto
          -152 233 rmoveto
          -52 -9 -51 -17 -48 vhcurveto
          -385 151 385 152 rlineto
          17 -49 9 -51 -52 vvcurveto
          endchar
        </CharString>
        <CharString name="angleleft">
          58 callgsubr
          313 -231 rmoveto
          2 vlineto
          -3 14 -7 14 -4 13 -130 357 rcurveline
          -20 54 -3 8 -5 10 -1 9 rlinecurve
          4 2 4 1 4 vhcurveto
          7 19 110 303 48 132 rlineto
          2 6 3 6 6 vvcurveto
          9 -1 -8 7 -8 hhcurveto
          hintmask 11000000
          -5 -1 -15 -4 -4 -26 -6 -15 rlinecurve
          -49 -141 -57 -140 -47 -142 rrcurveto
          -4 -9 -6 -12 -10 vvcurveto
          -9 6 -10 3 -8 vhcurveto
          85 -234 77 -212 rlineto
          -11 4 4 -15 14 hhcurveto
          9 8 10 8 hvcurveto
          endchar
        </CharString>
        <CharString name="angleright">
          58 callgsubr
          262 251 rmoveto
          10 -6 10 -3 9 vhcurveto
          -21 58 -132 363 rlineto
          16 -6 -6 33 -18 hhcurveto
          hintmask 11000000
          -5 -1 rlineto
          -8 -2 -5 -8 -8 vvcurveto
          1 -5 2 -5 2 -5 8 -23 rcurveline
          130 -359 21 -56 3 -8 5 -10 1 -9 rlinecurve
          -4 -2 -4 -1 -4 vhcurveto
          -31 -84 -133 -365 rlineto
          -2 -6 -3 -9 -7 vvcurveto
          -7 4 -10 14 vhcurveto
          17 2 4 26 6 16 51 141 rcurveline
          103 284 rlineto
          4 9 6 12 10 vvcurveto
          endchar
        </CharString>
        <CharString name="aogonek">
          451 -8 61 330 59 hstem
          -22 callgsubr
          vstem
          -55 callsubr
          endchar
        </CharString>
        <CharString name="aogonekacute">
          451 -8 61 330 59 97 -21 176 -20 17 callgsubr
          hintmask 11001100
          -55 callsubr
          hintmask 00110000
          48 500 -76 callgsubr
        </CharString>
        <CharString name="aring">
          -67 callsubr
          65 49 78 49 hstemhm
          50 73 -3 58 94 58 -20 76 hintmask 1110010010000000
          -107 callsubr
          hintmask 0001101100000000
          -38 401 -92 callsubr
          endchar
        </CharString>
        <CharString name="aringacute">
          -67 callsubr
          65 49 78 49 157 -20 hstemhm
          50 73 -3 58 94 58 -20 76 hintmask 1110001001000000
          -107 callsubr
          hintmask 0001110110000000
          -38 401 -92 callsubr
          38 245 -94 callsubr
        </CharString>
        <CharString name="asciicircum">
          556 583 -21 123 59 hstem
          -5 566 vstem
          561 584 rmoveto
          -283 160 -283 -160 11 -22 271 123 272 -123 rlineto
          endchar
        </CharString>
        <CharString name="asciitilde">
          556 193 43 -25 43 -8 43 -25 43 hstemhm
          hintmask 10010000
          555 290 4 callgsubr
          hintmask 01000000
          -9 callgsubr
          hintmask 00100000
          20 10 20 11 17 14 rrcurveto
          endchar
        </CharString>
        <CharString name="asciitilde.low">
          556 0 43 -25 43 -8 43 -25 43 hstemhm
          0 555 hintmask 10010000
          555 97 4 callgsubr
          hintmask 01001000
          -9 callgsubr
          hintmask 00101000
          20 10 20 11 17 14 rrcurveto
          endchar
        </CharString>
        <CharString name="asterisk">
          470 340 56 callgsubr
          hstem
          201 67 vstem
          410 445 rmoveto
          19 -14 8 -8 4 vhcurveto
          -107 58 108 58 rlineto
          12 7 9 10 14 vvcurveto
          20 -18 15 -16 -9 -7 -4 -6 -8 vhcurveto
          -92 -68 8 135 rlineto
          23 -17 11 -17 -14 -19 -10 -24 vhcurveto
          8 -135 -92 67 rlineto
          9 -12 -3 2 -9 hhcurveto
          -16 -18 -15 -20 -19 14 -8 8 -4 hvcurveto
          107 -58 -108 -58 rlineto
          -12 -7 -9 -10 -14 vvcurveto
          -20 18 -15 16 9 7 4 6 8 vhcurveto
          92 68 -8 -135 rlineto
          -23 17 -11 17 14 19 10 24 vhcurveto
          -1 9 -7 126 92 -67 rlineto
          -9 12 3 -2 9 hhcurveto
          16 18 15 20 hvcurveto
          endchar
        </CharString>
        <CharString name="asterisk.math">
          470 57 56 callgsubr
          hstemhm
          61 195 -195 200 -53 200 -195 195 hintmask 00000100
          408 159 rmoveto
          17 -18 9 -13 7 vhcurveto
          -13 7 -13 8 -13 7 -40 23 rcurveline
          -8 5 -7 5 -9 3 rrcurveto
          2 vlineto
          9 3 7 5 8 5 40 23 rcurveline
          24 13 46 17 25 vvcurveto
          14 -11 14 -16 -12 -11 -10 -7 -10 vhcurveto
          hintmask 00100000
          -92 -64 rlineto
          hintmask 01010000
          45 5 46 45 vvcurveto
          10 vlineto
          18 -11 12 -17 vhcurveto
          hintmask 00001000
          -11 -1 -11 -8 -3 -11 rrcurveto
          -22 vlineto
          hintmask 00000100
          -45 5 -44 -45 vvcurveto
          -92 64 rlineto
          7 -10 -11 10 -12 hhcurveto
          hintmask 00100000
          -16 -11 -14 -14 -17 18 -9 13 -7 hvcurveto
          13 -7 13 -8 13 -7 40 -23 rcurveline
          8 -5 7 -5 9 -3 rrcurveto
          -2 vlineto
          -9 -3 -7 -5 -8 -5 -40 -23 rcurveline
          -24 -13 -46 -17 -25 vvcurveto
          -14 11 -14 16 12 11 10 7 10 vhcurveto
          hintmask 00000100
          92 64 rlineto
          hintmask 10001000
          -45 -5 -46 -45 vvcurveto
          -11 vlineto
          -18 12 -11 16 vhcurveto
          hintmask 00010000
          11 1 11 8 3 11 rrcurveto
          22 vlineto
          hintmask 00100000
          45 -5 44 45 vvcurveto
          92 -64 rlineto
          -7 10 11 -10 12 hhcurveto
          hintmask 00000100
          16 11 14 14 hvcurveto
          endchar
        </CharString>
        <CharString name="at">
          627 -8 61 69 61 328 61 69 61 hstem
          52 76 95 76 198 76 vstem
          573 87 rmoveto
          -47 hlineto
          -15 -2 0 -5 -10 hvcurveto
          -19 -42 -44 -10 -46 hhcurveto
          -134 -105 132 162 173 115 121 120 38 47 -20 -71 25 hvcurveto
          14 -24 -25 8 -26 hhcurveto
          -92 -83 -95 -130 -130 84 -95 91 60 115 53 188 83 0 256 -210 -161 -150 -149 -206 -202 145 -153 168 108 73 62 33 27 hvcurveto
          -76 260 rmoveto
          -94 -46 -70 -53 -53 -46 70 94 94 46 70 53 53 46 -70 -94 vhcurveto
          endchar
        </CharString>
        <CharString name="atilde">
          -67 callsubr
          106 61 -5 61 -104 callgsubr
          hintmask 00001000
          72 471 -97 callgsubr
        </CharString>
        <CharString name="b">
          -4 callgsubr
          309 -74 -694 -21 callgsubr
        </CharString>
        <CharString name="backslash">
          500 52 callsubr
          56 387 vstem
          443 -230 rmoveto
          0 0 5 -5 13 vhcurveto
          -340 940 rlineto
          11 -4 -4 11 -14 hhcurveto
          -11 -9 -9 -11 0 0 -5 5 -13 hvcurveto
          340 -940 rlineto
          -11 4 4 -11 14 hhcurveto
          11 9 9 11 hvcurveto
          endchar
        </CharString>
        <CharString name="baht">
          626 0 56 274 61 242 61 -56 56 hstemhm
          89 81 103 64 54 78 0 78 -53 79 hintmask 0000001000000000
          573 188 rmoveto
          76 -65 77 -117 22 vhcurveto
          hintmask 1001110100000000
          130 38 26 76 43 vvcurveto
          84 -86 80 -124 9 vhcurveto
          65 -64 -64 -184 -694 184 -64 64 64 1 vlineto
          hintmask 0110111010000000
          136 99 90 98 hvcurveto
          -104 331 rmoveto
          -50 -44 -55 -88 -17 vhcurveto
          236 vlineto
          77 -14 55 -46 -54 vvcurveto
          -196 -128 rmoveto
          -103 hlineto
          hintmask 1101110010000000
          247 103 vlineto
          221 -449 rmoveto
          -62 -61 -60 -96 -10 vhcurveto
          271 vlineto
          91 -12 66 -61 -66 vvcurveto
          -221 -133 rmoveto
          -103 274 103 hlineto
          endchar
        </CharString>
        <CharString name="bar">
          278 75 callsubr
          vstem
          159 -217 rmoveto
          -13 callgsubr
          endchar
        </CharString>
        <CharString name="bigcircle">
          694 0 34 626 34 hstem
          0 34 626 -84 callsubr
          endchar
        </CharString>
        <CharString name="blanksymbol">
          -4 callgsubr
          161 vlineto
          91 86 -43 46 -48 -44 rlineto
          60 -74 -129 vlineto
          -75 -70 44 -47 31 30 rlineto
          -478 -21 callgsubr
        </CharString>
        <CharString name="braceleft">
          500 -229 -21 487 24 489 -20 hstem
          216 67 vstem
          427 -239 rmoveto
          10 -6 0 -10 1 vhcurveto
          -79 5 -37 45 -9 36 rrcurveto
          -3 11 0 2 35 vvcurveto
          150 vlineto
          30 0 51 -2 10 vhcurveto
          -13 66 -64 26 -39 11 rrcurveto
          118 34 0 71 28 vvcurveto
          180 vlineto
          72 0 22 24 25 vhcurveto
          18 18 23 24 70 4 rrcurveto
          5 1 4 4 6 vvcurveto
          11 -8 0 -12 -100 -89 -51 -72 -2 vhcurveto
          -183 vlineto
          -94 0 -16 -26 -28 vhcurveto
          -14 -14 -27 -27 -63 -4 rrcurveto
          -7 -7 -1 -10 -10 6 0 10 -1 hvcurveto
          43 -3 85 -21 -100 vvcurveto
          -198 vlineto
          -58 0 -34 52 -37 vhcurveto
          -30 43 65 -8 31 hhcurveto
          12 8 0 11 hvcurveto
          endchar
        </CharString>
        <CharString name="braceright">
          500 -229 -21 510 -21 511 -20 hstem
          216 67 vstem
          427 250 rmoveto
          10 -6 0 -10 1 vhcurveto
          -43 3 -85 21 100 vvcurveto
          198 vlineto
          58 0 34 -52 37 vhcurveto
          29 -43 -64 9 -32 hhcurveto
          -10 -10 0 -11 -10 6 0 10 -1 hvcurveto
          79 -5 37 -45 9 -36 rrcurveto
          3 -11 0 -2 -35 vvcurveto
          -150 vlineto
          -30 0 -51 2 -10 vhcurveto
          13 -66 64 -26 39 -11 rrcurveto
          -118 -34 0 -71 -28 vvcurveto
          -180 vlineto
          -72 0 -22 -24 -25 vhcurveto
          -18 -18 -23 -24 -70 -4 rrcurveto
          -5 -1 -4 -4 -6 vvcurveto
          -11 10 0 10 100 89 51 72 2 vhcurveto
          183 vlineto
          94 0 16 26 28 vhcurveto
          14 14 27 27 63 4 rrcurveto
          7 7 1 10 hvcurveto
          endchar
        </CharString>
        <CharString name="bracketleft">
          273 -249 61 876 61 hstem
          93 73 vstem
          252 -249 rmoveto
          61 -86 876 86 61 -159 -998 vlineto
          endchar
        </CharString>
        <CharString name="bracketright">
          273 -249 61 876 61 hstem
          106 73 vstem
          179 -249 rmoveto
          998 -159 -61 86 -876 -86 -61 vlineto
          endchar
        </CharString>
        <CharString name="breve">
          74 callgsubr
          127 -20 hstem
          396 703 -105 callsubr
          endchar
        </CharString>
        <CharString name="breve.cap">
          470 476 66 127 -20 hstem
          396 669 -105 callsubr
          endchar
        </CharString>
        <CharString name="breve.ts1">
          575 516 52 148 -20 hstem
          79 50 316 50 vstem
          495 716 rmoveto
          -50 hlineto
          -86 -79 -62 -80 -79 -78 61 87 vhcurveto
          -50 hlineto
          -114 97 -86 111 102 106 76 124 vhcurveto
          endchar
        </CharString>
        <CharString name="brokenbar">
          278 75 callsubr
          vstem
          159 343 rmoveto
          374 vlineto
          14 0 19 -20 -20 0 -19 -14 vhcurveto
          -374 vlineto
          -15 6 -17 14 14 6 17 15 vhcurveto
          -560 vmoveto
          374 vlineto
          15 -6 17 -14 -14 -6 -17 -15 vhcurveto
          -374 -6 callgsubr
          endchar
        </CharString>
        <CharString name="bullet">
          731 142 254 hstem
          239 254 59 callsubr
          endchar
        </CharString>
        <CharString name="c">
          16 callsubr
          hstem
          33 76 vstem
          -84 callgsubr
          endchar
        </CharString>
        <CharString name="cacute">
          16 callsubr
          17 callsubr
          33 76 hintmask 11001000
          -84 callgsubr
          hintmask 00110000
          -28 654 -76 callgsubr
        </CharString>
        <CharString name="caron">
          470 541 56 callsubr
          hstem
          390 692 -80 callgsubr
        </CharString>
        <CharString name="caron.cap">
          55 callsubr
          134 -20 hstem
          391 600 -81 callgsubr
        </CharString>
        <CharString name="caron.ts1">
          575 492 -21 261 -20 hstem
          452 732 rmoveto
          -49 -2 -33 -55 -82 -149 rlineto
          -2 hlineto
          -82 149 -33 55 -15 2 rlineto
          -34 hlineto
          11 -25 15 -24 13 -24 93 -171 rcurveline
          3 -5 3 -10 6 -2 rrcurveto
          34 hlineto
          17 2 16 13 8 hvcurveto
          28 57 32 56 31 55 11 21 13 21 10 22 rrcurveto
          endchar
        </CharString>
        <CharString name="ccaron">
          16 callsubr
          99 64 callgsubr
          33 76 hintmask 11001000
          -84 callgsubr
          hintmask 00110000
          -6 652 -80 callgsubr
        </CharString>
        <CharString name="ccedilla">
          16 callsubr
          hstem
          33 76 vstem
          -84 callgsubr
          -116 -74 -7 callsubr
        </CharString>
        <CharString name="ccircumflex">
          16 callsubr
          99 64 callgsubr
          33 76 hintmask 11001000
          -84 callgsubr
          hintmask 00110000
          -6 480 -89 callsubr
          endchar
        </CharString>
        <CharString name="cdotaccent">
          16 callsubr
          122 84 hstemhm
          33 76 79 84 hintmask 11010000
          -84 callgsubr
          hintmask 00101000
          -119 524 -80 callsubr
        </CharString>
        <CharString name="cedilla">
          11 callsubr
        </CharString>
        <CharString name="cedilla.dup">
          11 callsubr
        </CharString>
        <CharString name="cent">
          418 379 63 hstem
          33 76 89 64 65 64 vstem
          391 40 rmoveto
          -6 66 -37 -28 -41 -17 -45 -5 rlinecurve
          322 vlineto
          43 -2 29 -12 40 -27 11 62 rcurveline
          7 -46 20 -12 4 vhcurveto
          -22 8 -25 3 -18 1 rrcurveto
          53 -64 -57 vlineto
          -104 -22 -61 -100 -101 vvcurveto
          -106 68 -93 97 -20 vhcurveto
          -60 64 57 vlineto
          54 5 41 19 34 23 rrcurveto
          -193 22 rmoveto
          -55 19 -34 59 76 vvcurveto
          60 23 74 66 22 vhcurveto
          endchar
        </CharString>
        <CharString name="cent.oldstyle">
          16 callsubr
          hstem
          109 64 0 76 0 64 cntrmask 00111000
          391 40 rmoveto
          -6 66 rlineto
          -33 -43 -50 -18 -54 hhcurveto
          -11 -10 1 3 -10 hvcurveto
          89 315 26 -6 23 -12 29 -19 rlinecurve
          11 62 rlineto
          7 -46 20 -12 4 vhcurveto
          -5 2 -4 1 -5 1 17 61 rcurveline
          -67 hlineto
          -14 -53 rlineto
          -8 hlineto
          -130 -78 -113 -114 -79 38 -72 60 -40 hvcurveto
          -25 -88 rlineto
          67 hlineto
          17 62 rlineto
          -4 15 16 -2 16 hhcurveto
          67 48 22 26 39 hvcurveto
          -160 339 rmoveto
          -81 -286 rlineto
          -26 29 -15 43 51 vvcurveto
          69 31 87 91 7 vhcurveto
          endchar
        </CharString>
        <CharString name="centigrade">
          810 -16 53 438 35 138 36 -35 35 hstemhm
          35 68 3 68 105 68 hintmask 11101110
          762 46 rmoveto
          16 -4 15 -1 16 vhcurveto
          -16 -8 -14 -11 -16 -9 rrcurveto
          -21 -39 -42 -7 -45 hhcurveto
          -160 -78 166 138 131 71 176 163 60 50 -18 -27 50 hvcurveto
          11 63 rlineto
          23 -57 -58 11 -62 hhcurveto
          -12 hlineto
          -182 -11 -102 -182 -164 vvcurveto
          -171 106 -188 202 66 41 21 29 59 vhcurveto
          5 3 4 3 6 vvcurveto
          -553 533 rmoveto
          53 -40 52 -66 vhcurveto
          -9 hlineto
          -53 -7 -41 -43 -54 vvcurveto
          -53 40 -52 66 vhcurveto
          9 hlineto
          53 7 41 43 54 vvcurveto
          -35 hmoveto
          -37 -33 -32 -36 -36 -28 27 35 -6 vhcurveto
          8 vlineto
          hintmask 00010100
          37 33 32 36 36 28 -27 -35 6 vhcurveto
          endchar
        </CharString>
        <CharString name="circumflex">
          470 541 56 callsubr
          hstem
          390 520 -89 callsubr
          endchar
        </CharString>
        <CharString name="circumflex.cap">
          55 callsubr
          134 -20 hstem
          391 466 -103 callgsubr
          endchar
        </CharString>
        <CharString name="circumflex.dup">
          470 541 56 callsubr
          hstem
          390 520 -89 callsubr
          endchar
        </CharString>
        <CharString name="colon">
          261 0 80 270 27 callsubr
          350 23 callgsubr
          80 -350 23 callgsubr
          endchar
        </CharString>
        <CharString name="colonmonetary">
          77 callsubr
          152 64 31 callgsubr
          -11 598 8 hlineto
          49 callgsubr
          -9 80 -64 -90 hlineto
          -141 -38 -95 -149 -166 vvcurveto
          -164 93 -151 143 -38 vhcurveto
          -90 64 80 10 vlineto
          80 37 14 42 64 hvcurveto
          -255 23 rmoveto
          -97 41 -55 121 122 vvcurveto
          128 60 116 92 40 vhcurveto
          endchar
        </CharString>
        <CharString name="comma">
          261 -104 -21 125 27 callsubr
          1 -62 callgsubr
          endchar
        </CharString>
        <CharString name="copyleft">
          694 0 34 626 34 hstem
          0 34 626 -84 callsubr
          -126 hmoveto
          131 -87 116 -123 -41 -36 -8 -16 -40 vhcurveto
          10 -55 rlineto
          30 42 35 5 31 hhcurveto
          89 63 -95 -108 -102 -57 -101 -97 -48 -29 9 32 -41 hvcurveto
          -7 -2 -11 -6 vvcurveto
          -2 -22 rlineto
          -29 43 25 -9 54 hhcurveto
          126 85 117 129 hvcurveto
          endchar
        </CharString>
        <CharString name="copyright">
          694 0 34 626 34 hstem
          0 34 626 -84 callsubr
          -166 -208 rmoveto
          -2 22 rlineto
          7 -2 10 -1 7 vhcurveto
          -32 -41 -28 -9 -48 hhcurveto
          -98 -56 102 101 108 62 95 90 30 35 -5 -30 42 hvcurveto
          10 55 rlineto
          16 -40 -35 7 -42 hhcurveto
          -122 -87 -115 -131 -129 85 -117 125 54 25 10 28 44 hvcurveto
          endchar
        </CharString>
        <CharString name="copyright.alt">
          645 -107 34 577 34 hstem
          0 34 124 52 401 34 vstem
          645 215 rmoveto
          198 -124 125 -198 -198 -125 -125 -198 -198 125 -124 198 198 124 124 198 vhcurveto
          -34 hmoveto
          -177 -111 -111 -177 -177 -112 111 177 177 112 112 177 177 111 -112 -177 vhcurveto
          -149 -190 rmoveto
          -2 20 rlineto
          6 -2 10 6 vvcurveto
          -29 -38 -26 -8 -44 hhcurveto
          -89 -51 92 93 99 57 86 82 27 33 -4 -27 38 hvcurveto
          9 49 rlineto
          15 -37 -32 7 -38 hhcurveto
          -112 -79 -105 -120 -118 77 -107 115 49 23 9 26 40 hvcurveto
          endchar
        </CharString>
        <CharString name="currency">
          731 28 34 8 34 292 34 hstem
          144 34 7 34 293 34 7 34 vstem
          587 28 rmoveto
          12 13 -11 11 -11 10 -72 73 rcurveline
          26 31 15 40 44 vvcurveto
          44 -15 39 -26 32 vhcurveto
          72 72 10 9 12 12 -12 12 rlinecurve
          -13 13 -11 -11 -11 -11 -72 -72 rcurveline
          26 -31 -40 15 -43 hhcurveto
          -44 -40 -15 -26 -31 hvcurveto
          -73 73 -10 10 -12 12 -12 -12 rlinecurve
          -13 -13 12 -11 10 -11 73 -73 rcurveline
          -25 -31 -16 -40 -43 vvcurveto
          -43 16 -40 25 -31 vhcurveto
          -73 -74 -10 -9 -12 -12 12 -12 rlinecurve
          13 -13 11 11 11 11 73 73 rcurveline
          -26 31 40 -15 44 hhcurveto
          43 40 15 26 31 hvcurveto
          73 -73 10 -10 12 -12 12 12 rlinecurve
          -75 222 rmoveto
          -81 -66 -65 -80 -81 -66 65 81 81 66 65 81 80 66 -65 -81 vhcurveto
          endchar
        </CharString>
        <CharString name="cwm">
          0 endchar
        </CharString>
        <CharString name="cwmascender">
          0 endchar
        </CharString>
        <CharString name="cwmcapital">
          0 endchar
        </CharString>
        <CharString name="d">
          484 -8 78 callsubr
          223 76 -74 74 hintmask 11110100
          -32 callgsubr
          hintmask 11011000
          -50 callsubr
          endchar
        </CharString>
        <CharString name="dagger">
          444 -195 -21 613 67 241 -20 hstem
          164 67 -43 67 -43 67 cntrmask 00011100
          387 430 43 callgsubr
          20 1 28 11 65 rrcurveto
          5 37 6 37 37 vvcurveto
          8 0 33 -33 -34 0 -32 -9 -35 9 -58 4 -24 vhcurveto
          7 -46 3 -32 1 -29 -2 callsubr
          -2 -25 -3 -20 -5 -25 rrcurveto
          -14 -72 0 -8 -53 vvcurveto
          -151 11 -168 9 -95 vhcurveto
          -14 1 1 -6 11 hhcurveto
          12 0 5 13 2 hvcurveto
          6 50 3 53 2 51 rrcurveto
          4 63 5 103 96 vvcurveto
          54 0 7 -14 71 vhcurveto
          -5 23 -3 21 -2 27 42 callsubr
          endchar
        </CharString>
        <CharString name="daggerdbl">
          444 -184 -21 194 66 389 67 194 -20 hstem
          164 67 -43 67 -43 67 cntrmask 00001110
          387 477 43 callgsubr
          30 7 34 3 14 rrcurveto
          6 33 7 40 28 vvcurveto
          7 0 32 -34 -10 -23 -3 -36 -20 4 -29 7 -35 vhcurveto
          7 -41 5 -28 1 -26 -2 callsubr
          -1 -30 -7 -34 -3 -14 rrcurveto
          -6 -33 -7 -40 -28 vvcurveto
          -35 22 -4 11 30 4 25 14 20 -4 29 -7 35 vhcurveto
          -7 41 -5 28 -1 26 42 callsubr
          -455 vmoveto
          17 -12 16 -21 -20 -17 -3 -8 -31 vhcurveto
          -26 -8 -7 -2 -22 -2 2 28 4 24 7 42 rrcurveto
          11 56 0 23 5 vvcurveto
          35 -22 4 -11 -30 -4 -25 -14 -29 8 -43 6 -34 vhcurveto
          3 -11 5 -31 2 -30 -23 2 -3 1 -40 11 rrcurveto
          9 -32 -17 0 -7 hhcurveto
          -25 -9 -20 -13 -15 10 -18 24 24 24 6 4 11 hvcurveto
          39 10 7 1 17 2 -2 -28 -4 -24 -7 -42 rrcurveto
          -11 -56 0 -23 -5 vvcurveto
          -35 22 -4 11 30 4 25 14 29 -8 43 -6 34 vhcurveto
          -3 11 -5 31 -2 30 23 -2 3 -1 40 -11 rrcurveto
          -9 33 18 0 5 hhcurveto
          24 10 18 15 hvcurveto
          endchar
        </CharString>
        <CharString name="dblbracketleft">
          379 -248 35 928 35 hstem
          112 35 82 35 vstem
          358 -248 rmoveto
          35 -94 928 94 35 -246 -998 vlineto
          117 35 rmoveto
          -82 928 82 hlineto
          endchar
        </CharString>
        <CharString name="dblbracketright">
          379 -248 35 928 35 hstem
          114 35 82 35 vstem
          266 -248 rmoveto
          998 -245 -35 93 -928 -93 -35 vlineto
          210 35 rmoveto
          -82 928 82 hlineto
          endchar
        </CharString>
        <CharString name="dblgrave.ts1">
          50 callsubr
          207 526 50 callgsubr
          205 -2 50 callgsubr
          endchar
        </CharString>
        <CharString name="dblverticalbar">
          380 75 callsubr
          62 40 vstem
          159 -217 rmoveto
          -13 callgsubr
          102 hmoveto
          -13 callgsubr
          endchar
        </CharString>
        <CharString name="dcaron">
          484 -8 61 324 61 93 -21 112 72 hstemhm
          33 76 223 76 -74 74 hintmask 11011010
          -32 callgsubr
          hintmask 11111100
          -50 callsubr
          184 294 -86 callsubr
        </CharString>
        <CharString name="dcroat">
          484 -8 61 324 61 92 64 100 -20 hstemhm
          33 76 223 76 -74 74 0 76 hintmask 00110001
          484 530 rmoveto
          64 -76 100 vlineto
          hintmask 11111010
          -74 -100 -140 -64 140 -142 hlineto
          26 -31 -51 24 -56 hhcurveto
          -91 -72 -99 -124 -124 71 -99 89 hvcurveto
          hintmask 00100100
          69 46 37 21 24 hvcurveto
          -50 76 530 vlineto
          hintmask 11101001
          -76 -396 rmoveto
          -14 0 -15 -31 -27 vhcurveto
          -17 -20 -24 -8 -23 hhcurveto
          -54 -71 40 121 126 80 37 55 hvcurveto
          hintmask 00000100
          37 30 -18 -30 21 hvcurveto
          endchar
        </CharString>
        <CharString name="ddotbelow">
          484 22 callsubr
          78 callsubr
          91 84 48 76 -74 74 hintmask 01111001
          -32 callgsubr
          hintmask 01101010
          -50 callsubr
          hintmask 10000100
          -48 -529 -80 callsubr
        </CharString>
        <CharString name="degree">
          353 433 34 193 34 hstem
          46 34 193 34 vstem
          307 564 rmoveto
          72 -59 58 -72 -72 -58 -58 -72 -72 58 -59 72 72 59 59 72 vhcurveto
          -34 hmoveto
          -54 -43 -43 -54 -53 -43 43 54 53 43 43 53 54 43 -43 -53 vhcurveto
          endchar
        </CharString>
        <CharString name="diameter">
          731 -48 34 528 34 hstem
          67 34 528 34 vstem
          678 546 rmoveto
          9 -8 8 -9 -5 -4 -2 -3 -3 vhcurveto
          -86 -86 rlineto
          47 -52 -70 29 -76 hhcurveto
          -165 -133 -133 -165 -76 29 -70 47 -53 hvcurveto
          -86 -86 rlineto
          -3 -3 -2 -4 -5 vvcurveto
          -9 8 -8 9 5 4 2 3 3 vhcurveto
          86 86 rlineto
          -47 53 69 -28 76 hhcurveto
          165 133 133 165 76 -29 70 -47 52 hvcurveto
          86 86 rlineto
          3 3 2 4 5 vvcurveto
          -49 -296 rmoveto
          -146 -118 -118 -146 -67 -60 25 40 -47 vhcurveto
          372 373 rlineto
          41 -46 25 -61 -67 vvcurveto
          -90 198 rmoveto
          -372 -373 rlineto
          -41 47 -25 61 67 vvcurveto
          146 118 118 146 67 61 -25 -41 46 vhcurveto
          endchar
        </CharString>
        <CharString name="died">
          470 -6 -21 386 54 -53 54 202 -20 hstemhm
          205 60 hintmask 00111000
          417 360 rmoveto
          54 -152 202 -60 vlineto
          hintmask 11001000
          -203 -153 -54 153 -386 60 vlineto
          hintmask 00101000
          387 vlineto
          endchar
        </CharString>
        <CharString name="dieresis">
          470 569 75 hstem
          127 76 64 76 vstem
          9 callgsubr
          endchar
        </CharString>
        <CharString name="dieresis.cap">
          470 466 75 hstem
          115 76 88 76 vstem
          8 callsubr
          endchar
        </CharString>
        <CharString name="dieresis.dup">
          470 569 75 hstem
          127 76 64 76 vstem
          9 callgsubr
          endchar
        </CharString>
        <CharString name="dieresis.ts1">
          470 586 65 hstem
          176 586 rmoveto
          65 -65 -65 vlineto
          247 hmoveto
          65 -65 -65 vlineto
          endchar
        </CharString>
        <CharString name="discount">
          470 1 100 550 100 hstem
          70 100 130 100 vstem
          416 731 rmoveto
          10 -6 9 -10 vhcurveto
          0 -3 0 -2 -1 vhcurveto
          -12 -3 -7 -21 -5 -13 -255 -551 rcurveline
          -58 -125 rlineto
          -2 -5 -4 -6 -6 vvcurveto
          -10 9 -8 9 vhcurveto
          2 hlineto
          7 1 5 6 3 6 12 27 rcurveline
          262 566 17 39 20 38 17 39 rlinecurve
          1 2 0 3 3 vvcurveto
          -246 -55 rmoveto
          51 vlineto
          19 -12 5 -14 vhcurveto
          -47 hlineto
          -4 -4 0 -1 -3 hvcurveto
          -11 -2 -5 -6 -13 vvcurveto
          -57 vlineto
          -20 13 -1 12 vhcurveto
          61 hlineto
          11 3 3 12 10 vvcurveto
          230 -649 rmoveto
          45 vlineto
          19 -5 10 -21 vhcurveto
          -51 hlineto
          -4 -3 0 -1 -3 hvcurveto
          -6 -2 -5 -5 -2 -6 rrcurveto
          -63 vlineto
          -19 10 -4 13 vhcurveto
          53 hlineto
          16 8 7 19 hvcurveto
          endchar
        </CharString>
        <CharString name="divide">
          731 90 80 0 80 -17 35 64 80 hstemhm
          325 80 hintmask 00100000
          678 250 rmoveto
          18 -17 0 -17 vhcurveto
          -558 hlineto
          hintmask 01000000
          -17 -17 0 -18 hvcurveto
          hintmask 00100000
          -17 15 0 15 vhcurveto
          566 hlineto
          hintmask 01011000
          15 15 0 17 hvcurveto
          -273 82 23 callgsubr
          80 -242 rmoveto
          80 -80 vlineto
          hintmask 10001000
          -80 vlineto
          endchar
        </CharString>
        <CharString name="divorced">
          470 -83 -21 140 55 320 55 -55 56 139 -20 hstemhm
          -184 55 217 59 58 60 57 59 217 56 hintmask 0001000000000000
          654 253 rmoveto
          91 -59 123 -106 vhcurveto
          hintmask 0110000011000000
          -4 -4 -1 -4 hhcurveto
          -100 -11 -55 -107 -97 vvcurveto
          -96 58 -119 108 vhcurveto
          11 hlineto
          102 11 53 110 96 vvcurveto
          -507 -3 rmoveto
          hintmask 0001000000000000
          94 -57 123 -109 vhcurveto
          hintmask 1110111111000000
          -4 -4 -1 -4 hhcurveto
          -102 -11 -51 -111 -94 vvcurveto
          -93 57 -121 107 vhcurveto
          11 hlineto
          101 11 55 107 96 vvcurveto
          118 -354 rmoveto
          710 -60 -710 vlineto
          -117 352 rmoveto
          -61 -23 -96 -84 -73 -29 77 66 -8 vhcurveto
          11 vlineto
          59 20 107 88 68 35 -72 -64 6 vhcurveto
          510 -26 rmoveto
          -5 0 -6 -1 -5 vhcurveto
          -65 -5 -32 -77 -73 hhcurveto
          -76 -30 90 67 hvcurveto
          27 vlineto
          56 5 30 80 68 hhcurveto
          85 29 -93 -69 hvcurveto
          endchar
        </CharString>
        <CharString name="dlinebelow">
          484 -190 64 118 78 callsubr
          223 76 -74 74 hintmask 01111010
          -32 callgsubr
          hintmask 01101100
          -50 callsubr
          hintmask 10000000
          80 -519 -58 callgsubr
        </CharString>
        <CharString name="dollar">
          470 -34 -21 48 68 67 67 318 68 53 67 48 -20 hstem
          52 71 83 58 82 71 vstem
          417 195 rmoveto
          80 -44 98 -109 23 vhcurveto
          241 vlineto
          55 -5 40 -25 30 -26 11 62 rcurveline
          4 -52 47 -84 7 vhcurveto
          48 -58 -49 vlineto
          -94 -17 -60 -82 -88 vvcurveto
          -42 17 -113 137 -33 vhcurveto
          -267 vlineto
          -57 6 -54 24 -41 40 -12 -67 rcurveline
          39 -31 52 -29 73 -8 rrcurveto
          -48 58 50 vlineto
          100 20 53 92 88 vvcurveto
          -211 217 rmoveto
          -53 15 -30 47 49 vvcurveto
          44 26 51 57 16 vhcurveto
          140 -449 rmoveto
          -45 -22 -60 -60 -19 vhcurveto
          248 vlineto
          60 -19 22 -60 -45 vvcurveto
          endchar
        </CharString>
        <CharString name="dollar.oldstyle">
          574 -12 -21 28 51 287 52 -38 51 217 51 0 51 -46 52 -25 52 hstemhm
          43 48 -40 57 -56 56 105 48 53 48 103 57 hintmask 0010100100001000
          522 196 rmoveto
          85 -62 70 -86 30 vhcurveto
          -11 4 -1 0 0 vvcurveto
          281 vlineto
          33 -3 38 -14 31 -16 33 -18 rcurveline
          6 36 rlineto
          1 3 1 3 4 vvcurveto
          19 -92 32 -51 7 vhcurveto
          31 -48 vlineto
          hintmask 0000001000011000
          -27 -53 vlineto
          hintmask 0000000100010000
          27 -48 vlineto
          hintmask 0000010000010000
          -33 vlineto
          hintmask 0000000100110000
          0 -30 -11 -16 -8 vhcurveto
          -60 -27 -55 -60 -72 vvcurveto
          -66 41 -56 57 -31 vhcurveto
          19 -11 27 -12 17 -5 rrcurveto
          -306 vlineto
          hintmask 0000000010000000
          -41 3 -45 20 -36 19 rrcurveto
          hintmask 0000000001000000
          -14 7 -12 10 -14 6 -6 -36 rcurveline
          hintmask 1101001010011100
          -1 -3 -1 -3 -4 vvcurveto
          -30 147 -37 9 -2 vhcurveto
          14 -3 rlineto
          -32 48 28 53 -28 48 37 vlineto
          50 5 63 52 27 51 rrcurveto
          13 26 7 29 29 vvcurveto
          -208 202 rmoveto
          -53 14 rlineto
          259 53 vlineto
          -101 -245 rmoveto
          hintmask 0101000000111100
          -48 21 -57 31 64 vvcurveto
          61 53 36 52 22 vhcurveto
          252 -472 rmoveto
          -62 -45 -44 -58 -25 vhcurveto
          261 vlineto
          47 -22 56 -34 -74 vvcurveto
          -151 -143 rmoveto
          -53 301 hlineto
          hintmask 0110000000001000
          53 -14 rlineto
          endchar
        </CharString>
        <CharString name="dong">
          484 -64 64 hstem
          460 538 rmoveto
          61 -72 95 -71 -95 -133 -61 133 -135 vlineto
          25 -29 -49 23 -53 hhcurveto
          -86 -69 -94 -118 -118 68 -94 84 66 44 35 20 22 hvcurveto
          -47 73 503 vlineto
          72 -602 rmoveto
          64 -429 -64 vlineto
          284 226 rmoveto
          -13 0 -15 -29 -25 vhcurveto
          -16 -19 -23 -8 -22 hhcurveto
          -51 -67 38 115 120 76 35 52 35 28 -17 -29 20 hvcurveto
          endchar
        </CharString>
        <CharString name="dotaccent">
          261 564 72 callgsubr
          564 -80 callsubr
        </CharString>
        <CharString name="dotaccent.alt">
          261 520 72 callgsubr
          520 -80 callsubr
        </CharString>
        <CharString name="dotaccent.cap">
          261 466 72 callgsubr
          466 -80 callsubr
        </CharString>
        <CharString name="dotlessi">
          -27 callsubr
          hstem
          74 74 vstem
          -44 callsubr
          endchar
        </CharString>
        <CharString name="dotlessj">
          12 callsubr
          hstem
          100 74 vstem
          -67 callgsubr
          endchar
        </CharString>
        <CharString name="e">
          -47 callsubr
          hstem
          30 71 224 66 vstem
          -106 callgsubr
          endchar
        </CharString>
        <CharString name="eacute">
          -47 callsubr
          97 -21 176 -99 callsubr
          17 420 -76 callgsubr
        </CharString>
        <CharString name="ebreve">
          -47 callsubr
          68 66 127 -99 callsubr
          45 429 -105 callsubr
          endchar
        </CharString>
        <CharString name="ecaron">
          -47 callsubr
          99 -21 172 -99 callsubr
          39 418 -80 callgsubr
        </CharString>
        <CharString name="ecircumflex">
          -47 callsubr
          99 -21 172 -99 callsubr
          39 246 -89 callsubr
          endchar
        </CharString>
        <CharString name="ecircumflexacute">
          -47 callsubr
          99 -21 291 -99 callsubr
          40 246 -78 callgsubr
        </CharString>
        <CharString name="ecircumflexdotbelow">
          418 22 callsubr
          -34 callgsubr
          99 -21 172 -20 72 callsubr
          hintmask 0111111010000000
          -106 callgsubr
          39 246 -89 callsubr
          hintmask 1000000100000000
          -54 -720 -80 callsubr
        </CharString>
        <CharString name="ecircumflexgrave">
          -47 callsubr
          99 -21 134 -99 callsubr
          40 246 -78 callsubr
        </CharString>
        <CharString name="ecircumflexhookabove">
          -47 callsubr
          99 -21 360 -99 callsubr
          40 246 -103 callgsubr
          83 288 -107 callgsubr
        </CharString>
        <CharString name="ecircumflextilde">
          -47 callsubr
          99 -21 189 61 -5 61 0 callsubr
          hintmask 11100011
          -106 callgsubr
          hintmask 00010100
          40 246 -103 callgsubr
          60 306 -85 callsubr
        </CharString>
        <CharString name="edblgrave">
          -47 callsubr
          97 -21 176 -99 callsubr
          20 244 -88 callgsubr
        </CharString>
        <CharString name="edieresis">
          -47 callsubr
          127 75 hstemhm
          30 71 0 76 64 76 8 66 hintmask 11101001
          -106 callgsubr
          hintmask 00010110
          -148 295 -14 callsubr
        </CharString>
        <CharString name="edotaccent">
          -47 callsubr
          122 84 72 callsubr
          hintmask 11101010
          -106 callgsubr
          hintmask 00010100
          -74 290 -80 callsubr
        </CharString>
        <CharString name="edotbelow">
          418 22 callsubr
          -34 callgsubr
          72 callsubr
          hintmask 01111010
          -106 callgsubr
          hintmask 10000100
          -74 -474 -80 callsubr
        </CharString>
        <CharString name="egrave">
          -47 callsubr
          97 -21 176 -99 callsubr
          -49 244 -60 callsubr
        </CharString>
        <CharString name="ehookabove">
          -47 callsubr
          80 -21 211 -99 callsubr
          -26 366 -107 callgsubr
        </CharString>
        <CharString name="eight">
          470 29 callgsubr
          39 78 -78 84 223 84 -78 78 hintmask 11101100
          430 -42 callsubr
        </CharString>
        <CharString name="eight.oldstyle">
          531 29 callgsubr
          70 78 -65 71 223 71 -65 78 hintmask 00101100
          461 -43 callgsubr
        </CharString>
        <CharString name="eight.prop">
          531 29 callgsubr
          70 78 -78 84 223 84 -78 78 hintmask 11101100
          461 -42 callsubr
        </CharString>
        <CharString name="eight.taboldstyle">
          470 29 callgsubr
          39 78 -65 71 223 71 -65 78 hintmask 00101100
          430 -43 callgsubr
        </CharString>
        <CharString name="ellipsis">
          592 0 80 hstem
          91 80 85 80 85 80 cntrmask 01110000
          171 hmoveto
          80 -80 -80 vlineto
          245 hmoveto
          80 -80 -80 vlineto
          245 hmoveto
          80 -80 -80 vlineto
          endchar
        </CharString>
        <CharString name="emacron">
          -47 callsubr
          132 64 0 callsubr
          hintmask 11101100
          -106 callgsubr
          hintmask 00010000
          54 300 -58 callgsubr
        </CharString>
        <CharString name="emdash">
          940 235 61 hstem
          0 939 vstem
          939 235 rmoveto
          61 -939 -61 vlineto
          endchar
        </CharString>
        <CharString name="emdash.alt">
          627 242 50 hstem
          626 242 rmoveto
          50 -626 -50 vlineto
          endchar
        </CharString>
        <CharString name="endash">
          470 235 61 hstem
          0 469 vstem
          469 235 rmoveto
          61 -469 -61 vlineto
          endchar
        </CharString>
        <CharString name="eng">
          484 -205 64 518 61 hstem
          -26 callgsubr
          vstem
          -83 callsubr
          -67 -10 -74 -57 vhcurveto
          -64 vlineto
          93 50 102 103 hvcurveto
          endchar
        </CharString>
        <CharString name="eogonek">
          418 -212 70 134 -34 callgsubr
          hstem
          30 71 58 63 vstem
          -52 callgsubr
          endchar
        </CharString>
        <CharString name="eogonekacute">
          418 -212 70 134 -34 callgsubr
          17 callsubr
          30 71 58 63 hintmask 11110011
          -52 callgsubr
          hintmask 00001100
          17 420 -76 callgsubr
        </CharString>
        <CharString name="equal">
          731 143 35 143 35 hstem
          52 626 vstem
          678 338 19 callgsubr
          -177 vmoveto
          17 -15 0 -15 vhcurveto
          -566 75 callgsubr
          558 hlineto
          17 17 0 18 hvcurveto
          endchar
        </CharString>
        <CharString name="ereversed">
          -47 callsubr
          hstem
          30 66 224 71 vstem
          391 217 rmoveto
          127 -88 98 -104 -43 -57 -16 -57 -35 vhcurveto
          -32 -53 -2 -64 -33 vvcurveto
          290 hlineto
          -112 -3 -69 -54 -64 hhcurveto
          -40 -55 13 39 -48 hvcurveto
          -4 -3 -33 0 vhcurveto
          0 -3 -23 -4 vvcurveto
          -36 50 55 -13 45 hhcurveto
          115 91 101 124 hvcurveto
          -79 57 rmoveto
          -216 hlineto
          105 18 70 2 15 hhcurveto
          56 44 -52 -55 13 hvcurveto
          endchar
        </CharString>
        <CharString name="estimated">
          627 -7 50 313 46 244 50 hstemhm
          32 70 -58 70 hintmask 00101000
          600 356 rmoveto
          99 -20 111 -78 69 vhcurveto
          40 -46 -64 21 -63 hhcurveto
          -143 -108 -117 -133 -34 hvcurveto
          hintmask 10010000
          -9 -37 -3 -38 -38 vvcurveto
          -165 1 123 -175 184 hhcurveto
          79 84 15 32 73 hvcurveto
          7 3 12 2 10 vvcurveto
          3 -1 5 0 vhcurveto
          -3 36 -22 -8 -20 -10 -23 -8 rlinecurve
          -19 -58 -63 -11 -61 hhcurveto
          hintmask 01001000
          -109 -86 83 108 -35 hvcurveto
          -13 40 -3 40 42 vvcurveto
          440 46 rmoveto
          hintmask 01110000
          -436 hlineto
          9 105 85 133 122 6 rrcurveto
          8 hlineto
          109 71 -80 -100 23 hvcurveto
          4 -21 2 -22 3 -21 rrcurveto
          endchar
        </CharString>
        <CharString name="eth">
          470 -8 52 348 50 hstem
          39 53 285 60 vstem
          430 213 rmoveto
          3 155 -62 147 -109 101 76 59 rcurveline
          -30 39 -84 -66 -35 27 -39 23 -43 17 rlinecurve
          -27 -41 36 -16 34 -20 31 -23 rlinecurve
          -75 -59 30 -39 84 66 54 -48 43 -60 27 -69 rlinecurve
          27 -39 -38 9 -32 hhcurveto
          -107 -89 -102 -126 -129 93 -93 102 95 98 82 139 3 hvcurveto
          -53 5 rmoveto
          -95 -58 -79 -84 -79 -64 69 110 110 69 59 73 86 57 -79 -95 vhcurveto
          endchar
        </CharString>
        <CharString name="etilde">
          -47 callsubr
          106 61 -5 61 -100 callgsubr
          hintmask 00001000
          41 391 -97 callgsubr
        </CharString>
        <CharString name="eturned">
          -41 callgsubr
        </CharString>
        <CharString name="exclam">
          300 0 80 110 -21 525 -20 hstem
          110 80 vstem
          190 694 rmoveto
          -80 hlineto
          8 -525 rlineto
          64 hlineto
          8 -169 23 callgsubr
          endchar
        </CharString>
        <CharString name="exclamdown">
          300 -174 -21 526 -20 109 80 hstem
          110 80 vstem
          190 420 23 callgsubr
          80 -615 rmoveto
          -8 526 rlineto
          -64 hlineto
          -8 -526 rlineto
          endchar
        </CharString>
        <CharString name="f">
          -24 callsubr
        </CharString>
        <CharString name="f_f">
          549 -4 callsubr
          85 74 27 74 85 74 vstem
          327 628 rmoveto
          66 vlineto
          2 -11 -30 6 -33 hhcurveto
          -92 -67 -75 -100 hvcurveto
          -97 -69 -58 69 -372 34 callgsubr
          260 hmoveto
          66 vlineto
          2 -11 -30 6 -33 hhcurveto
          -92 -67 -75 -100 hvcurveto
          -527 34 callgsubr
          endchar
        </CharString>
        <CharString name="f_f_i">
          764 48 callsubr
          186 74 186 74 cntrmask 00000111
          hintmask 11010111
          691 615 23 callgsubr
          77 -615 rmoveto
          430 -74 -430 vlineto
          -77 372 rmoveto
          58 -111 vlineto
          hintmask 00100111
          131 vlineto
          53 24 27 32 22 21 -7 -7 12 vhcurveto
          hintmask 00010111
          68 vlineto
          hintmask 11001111
          5 -18 -8 2 -29 hhcurveto
          -75 -53 -76 -97 hvcurveto
          -529 74 372 vlineto
          -128 256 -10 callsubr
          endchar
        </CharString>
        <CharString name="f_f_l">
          764 -4 callsubr
          186 74 186 74 cntrmask 00011100
          300 628 -10 callsubr
          388 -628 rmoveto
          694 42 callgsubr
          -77 -25 callgsubr
          -529 74 372 vlineto
          endchar
        </CharString>
        <CharString name="f_i">
          503 48 callsubr
          185 74 hintmask 11010010
          430 615 23 callgsubr
          77 -615 rmoveto
          430 -74 -430 vlineto
          -76 372 rmoveto
          58 -111 vlineto
          hintmask 00100000
          131 vlineto
          53 24 27 32 19 19 -5 -9 17 vhcurveto
          67 vlineto
          hintmask 11001100
          2 -8 -23 6 -24 hhcurveto
          -75 -53 -76 -97 hvcurveto
          -99 12 callgsubr
          vlineto
          endchar
        </CharString>
        <CharString name="f_k">
          747 21 -21 372 58 211 61 hstemhm
          94 72 -72 74 187 74 hintmask 11110000
          277 -25 callgsubr
          -99 -69 -58 69 -372 vlineto
          hintmask 11001100
          74 372 hlineto
          553 -372 rmoveto
          -40 callsubr
          endchar
        </CharString>
        <CharString name="f_l">
          503 -4 callsubr
          185 74 vstem
          277 -25 callgsubr
          -99 12 callgsubr
          vlineto
          259 -372 rmoveto
          694 42 callgsubr
          endchar
        </CharString>
        <CharString name="five">
          470 -16 43 callsubr
          203 -71 callgsubr
        </CharString>
        <CharString name="five.oldstyle">
          528 -211 34 callsubr
          8 -71 callgsubr
        </CharString>
        <CharString name="five.prop">
          528 -16 34 callsubr
          203 -71 callgsubr
        </CharString>
        <CharString name="five.taboldstyle">
          470 -211 43 callsubr
          8 -71 callgsubr
        </CharString>
        <CharString name="florin">
          -24 callsubr
        </CharString>
        <CharString name="four">
          470 21 -21 171 61 424 -20 hstem
          276 76 vstem
          443 -9 callsubr
        </CharString>
        <CharString name="four.oldstyle">
          487 76 callsubr
          282 79 -76 76 hintmask 01101000
          452 -10 callgsubr
        </CharString>
        <CharString name="four.prop">
          487 21 -21 171 61 424 -20 hstem
          285 76 vstem
          452 -9 callsubr
        </CharString>
        <CharString name="four.taboldstyle">
          470 76 callsubr
          273 79 -76 76 hintmask 01101000
          443 -10 callgsubr
        </CharString>
        <CharString name="fraction">
          520 468 674 rmoveto
          -40 27 callgsubr
          endchar
        </CharString>
        <CharString name="fraction.alt">
          0 208 674 rmoveto
          -40 27 callgsubr
          endchar
        </CharString>
        <CharString name="g">
          -48 callsubr
          -28 callsubr
          hintmask 0001010100000000
          5 callsubr
          hintmask 0000000010000000
          -18 -25 -10 -27 -30 vvcurveto
          -35 14 -25 11 -14 vhcurveto
          hintmask 1110101001110000
          -52 -32 -7 -49 -19 vvcurveto
          -73 91 -60 117 118 91 60 74 138 -153 1 -42 vhcurveto
          -81 hlineto
          -15 -40 0 51 20 10 14 0 hvcurveto
          -11 15 31 -17 41 hhcurveto
          83 69 70 86 48 -22 35 -9 12 hvcurveto
          3 hlineto
          3 42 3 15 hhcurveto
          32 3 -1 -3 28 hvcurveto
          -166 -94 rmoveto
          -87 -55 -14 -26 vhcurveto
          hintmask 1000010100100000
          -34 -48 21 80 87 55 14 26 34 48 -21 -80 hvcurveto
          82 -354 rmoveto
          -43 -62 -34 -75 vhcurveto
          hintmask 0100001000010000
          -76 -62 33 45 5 0 62 69 hvcurveto
          81 hlineto
          24 101 0 -68 hvcurveto
          endchar
        </CharString>
        <CharString name="gacute">
          -48 callsubr
          101 46 callsubr
          -28 callsubr
          hintmask 0001010001000000
          456 376 -102 callsubr
          hintmask 0000001100000000
          -37 766 -76 callgsubr
        </CharString>
        <CharString name="gbreve">
          -48 callsubr
          72 66 127 -20 -28 callsubr
          hintmask 0001010001000000
          456 376 -102 callsubr
          hintmask 0000001100000000
          -9 775 -105 callsubr
          endchar
        </CharString>
        <CharString name="gcaron">
          -48 callsubr
          103 -21 172 -20 -28 callsubr
          hintmask 0001010001000000
          456 376 -102 callsubr
          hintmask 0000001100000000
          -15 764 -80 callgsubr
        </CharString>
        <CharString name="gcedilla">
          -48 callsubr
          92 72 112 -20 -28 callsubr
          hintmask 0001011101000000
          239 714 rmoveto
          -36 hlineto
          -37 -113 rlineto
          -71 72 72 -22 vlineto
          240 -226 -102 callsubr
          endchar
        </CharString>
        <CharString name="gcircumflex">
          -48 callsubr
          103 -21 172 -20 -28 callsubr
          hintmask 0001010001000000
          456 376 -102 callsubr
          hintmask 0000001100000000
          -15 592 -89 callsubr
          endchar
        </CharString>
        <CharString name="gcommaaccent">
          -48 callsubr
          92 72 112 -20 -28 callsubr
          hintmask 0001011101000000
          239 714 rmoveto
          -36 hlineto
          -37 -113 rlineto
          -71 72 72 -22 vlineto
          240 -226 -102 callsubr
          endchar
        </CharString>
        <CharString name="gdotaccent">
          -48 callsubr
          126 84 hstemhm
          26 71 -41 71 -67 67 33 84 -77 67 56 71 11 71 hintmask 0001010010000000
          5 callsubr
          hintmask 0000000001000000
          -18 -25 -10 -27 -30 vvcurveto
          -35 14 -25 11 -14 vhcurveto
          hintmask 1110100100011100
          -52 -32 -7 -49 -19 vvcurveto
          -73 91 -60 117 118 91 60 74 138 -153 1 -42 vhcurveto
          -81 hlineto
          -15 -40 0 51 20 10 14 0 hvcurveto
          -11 15 31 -17 41 hhcurveto
          83 69 70 86 48 -22 35 -9 12 hvcurveto
          3 hlineto
          3 42 3 15 hhcurveto
          32 3 -1 -3 28 hvcurveto
          -166 -94 rmoveto
          -87 -55 -14 -26 vhcurveto
          hintmask 1000010010001000
          -34 -48 21 80 87 55 14 26 34 48 -21 -80 hvcurveto
          82 -354 rmoveto
          -43 -62 -34 -75 vhcurveto
          hintmask 0100000100000100
          -76 -62 33 45 5 0 62 69 hvcurveto
          81 hlineto
          24 101 0 -68 hvcurveto
          hintmask 0000001000100000
          -128 636 -80 callsubr
        </CharString>
        <CharString name="germandbls">
          -46 callsubr
        </CharString>
        <CharString name="germandbls.dup">
          -46 callsubr
        </CharString>
        <CharString name="gnaborretni">
          444 331 18 callgsubr
          -45 -33 -46 -15 -39 -4 rlinecurve
          -4 352 rlineto
          5 32 0 24 10 45 callgsubr
          -77 36 -64 88 -13 vhcurveto
          -26 64 25 vlineto
          75 8 57 32 19 12 rrcurveto
          -211 216 rmoveto
          -3 -204 rlineto
          -39 11 -10 33 44 vvcurveto
          47 12 15 15 19 vhcurveto
          9 12 8 11 8 12 rrcurveto
          endchar
        </CharString>
        <CharString name="grave">
          470 539 -11 callgsubr
          302 518 -60 callsubr
        </CharString>
        <CharString name="grave.cap">
          470 497 -21 122 -20 hstem
          330 476 -69 callsubr
        </CharString>
        <CharString name="grave.ts1">
          470 549 -21 188 -20 hstem
          273 528 rmoveto
          -135 186 -19 2 rlineto
          -41 hlineto
          145 -188 rlineto
          endchar
        </CharString>
        <CharString name="greater">
          57 callsubr
          250 rmoveto
          6 -2 7 -18 8 vhcurveto
          -541 249 rlineto
          -13 6 -4 1 0 vvcurveto
          -12 -7 -10 -8 -12 8 -4 13 -6 hvcurveto
          514 -237 -515 -238 rlineto
          -20 -9 0 -7 -6 vvcurveto
          -8 7 -10 12 vhcurveto
          0 3 1 14 6 vhcurveto
          541 249 rlineto
          19 9 1 6 7 vvcurveto
          endchar
        </CharString>
        <CharString name="guarani">
          627 -16 64 185 61 352 64 hstem
          62 84 110 64 167 76 vstem
          563 33 rmoveto
          261 -198 -61 122 -166 vlineto
          -7 -21 -47 -12 -50 hhcurveto
          -17 -16 2 5 -16 hvcurveto
          584 vlineto
          5 16 16 2 17 hhcurveto
          59 57 -15 -50 55 hvcurveto
          1 hlineto
          14 80 rlineto
          46 -80 -69 3 -37 hhcurveto
          -17 -16 -1 -3 -16 hvcurveto
          84 -64 -104 vlineto
          -116 -53 -78 -133 -153 vvcurveto
          -155 80 -131 114 -53 vhcurveto
          -104 64 84 vlineto
          -3 16 16 -1 16 hhcurveto
          68 66 18 31 61 hvcurveto
          -307 55 rmoveto
          -67 52 -43 98 109 vvcurveto
          110 43 98 67 52 vhcurveto
          endchar
        </CharString>
        <CharString name="guillemotleft">
          470 21 -21 437 -20 hstem
          261 2 callsubr
          218 2 callsubr
          endchar
        </CharString>
        <CharString name="guillemotright">
          470 21 -21 437 -20 hstem
          366 219 rmoveto
          -96 218 rlineto
          -61 hlineto
          81 -218 -81 -219 rlineto
          61 hlineto
          -61 32 callsubr
        </CharString>
        <CharString name="guilsinglleft">
          313 21 -21 437 -20 hstem
          261 2 callsubr
          endchar
        </CharString>
        <CharString name="guilsinglright">
          313 21 -21 437 -20 hstem
          209 32 callsubr
        </CharString>
        <CharString name="h">
          -3 callgsubr
          256 -20 hstemhm
          74 74 -74 -15 callgsubr
          hintmask 11110100
          -48 callgsubr
          hintmask 11001100
          -37 callgsubr
          endchar
        </CharString>
        <CharString name="h_uni0303">
          -3 callgsubr
          256 -20 56 33 callgsubr
          74 74 -74 -15 callgsubr
          hintmask 11100101
          -48 callgsubr
          hintmask 11000011
          -37 callgsubr
          hintmask 00001000
          66 847 -97 callgsubr
        </CharString>
        <CharString name="hbar">
          -3 callgsubr
          92 64 100 -20 hstemhm
          -2 76 0 74 -74 -15 callgsubr
          hintmask 01110101
          409 hmoveto
          292 vlineto
          63 -15 83 -113 -63 -41 -31 -34 -29 vhcurveto
          157 94 64 -94 100 -74 -100 vlineto
          hintmask 10101000
          -76 -64 76 -530 hlineto
          hintmask 11000011
          -37 callgsubr
          endchar
        </CharString>
        <CharString name="hbrevebelow">
          484 66 callsubr
          102 80 callgsubr
          256 -20 hstemhm
          74 74 -74 -15 callgsubr
          hintmask 00111101
          -48 callgsubr
          hintmask 00110011
          -37 callgsubr
          hintmask 11000000
          70 -61 -105 callsubr
          endchar
        </CharString>
        <CharString name="hcircumflex">
          -3 callgsubr
          256 -20 77 -21 134 -20 hstemhm
          74 74 -74 -15 callgsubr
          hintmask 11100101
          -48 callgsubr
          hintmask 11000011
          -37 callgsubr
          hintmask 00011000
          65 730 -103 callgsubr
          endchar
        </CharString>
        <CharString name="hdieresis">
          -3 callgsubr
          256 -20 56 75 hstemhm
          74 74 -74 76 -28 76 88 76 -29 76 hintmask 1110100010000000
          -48 callgsubr
          hintmask 1100010010000000
          -37 callgsubr
          hintmask 0001001100000000
          -135 730 -70 callgsubr
          endchar
        </CharString>
        <CharString name="hdotbelow">
          484 -13 callsubr
          377 61 256 -20 hstemhm
          74 74 -74 76 50 84 49 76 hintmask 01111001
          -48 callgsubr
          hintmask 01100101
          -37 callgsubr
          hintmask 10000010
          -49 -200 -80 callsubr
        </CharString>
        <CharString name="hungarumlaut">
          470 539 -11 callgsubr
          234 694 -64 callgsubr
        </CharString>
        <CharString name="hungarumlaut.cap">
          470 497 -11 callgsubr
          234 652 -64 callgsubr
        </CharString>
        <CharString name="hungarumlaut.ts1">
          50 callsubr
          235 716 60 callgsubr
          213 138 60 callgsubr
          endchar
        </CharString>
        <CharString name="hyphen">
          -8 callgsubr
        </CharString>
        <CharString name="hyphen.alt">
          157 186 58 hstem
          260 -2 callgsubr
        </CharString>
        <CharString name="hyphen.dup">
          -8 callgsubr
        </CharString>
        <CharString name="hyphen.prop">
          313 294 58 hstem
          32 250 vstem
          282 294 rmoveto
          58 -250 -58 vlineto
          endchar
        </CharString>
        <CharString name="hyphendbl">
          313 11 callgsubr
        </CharString>
        <CharString name="hyphendbl.alt">
          157 11 callgsubr
        </CharString>
        <CharString name="i">
          -27 callsubr
          154 84 hstemhm
          70 84 -80 -31 callsubr
          hintmask 00110000
          80 564 -80 callsubr
        </CharString>
        <CharString name="i_j">
          449 -203 64 703 84 hstemhm
          69 84 -79 74 142 84 -74 74 hintmask 01100100
          153 564 -74 callgsubr
          305 hmoveto
          84 vlineto
          hintmask 01011000
          -84 -84 hlineto
          -142 -564 rmoveto
          430 -74 -430 vlineto
          300 -60 rmoveto
          490 vlineto
          hintmask 10000100
          -74 -499 hlineto
          -61 -46 -9 -26 -22 -26 7 24 -23 vhcurveto
          -15 -61 rlineto
          -20 32 39 -14 42 hhcurveto
          63 56 54 89 hvcurveto
          endchar
        </CharString>
        <CharString name="iacute">
          7 callsubr
          200 694 -76 callgsubr
        </CharString>
        <CharString name="ibreve">
          -27 callsubr
          100 66 127 -20 -37 callsubr
          hintmask 00110000
          198 703 -105 callsubr
          endchar
        </CharString>
        <CharString name="icaron">
          -27 callsubr
          131 -21 172 -20 -37 callsubr
          hintmask 00110000
          192 692 -80 callgsubr
        </CharString>
        <CharString name="icircumflex">
          -27 callsubr
          131 -21 172 -20 -37 callsubr
          hintmask 00110000
          192 520 -89 callsubr
          endchar
        </CharString>
        <CharString name="idblgrave">
          13 callgsubr
          hintmask 00110000
          173 518 -88 callgsubr
        </CharString>
        <CharString name="idieresis">
          -27 callsubr
          159 75 hstemhm
          3 76 -5 74 -5 76 hintmask 11001000
          -44 callsubr
          hintmask 00110100
          5 569 -14 callsubr
        </CharString>
        <CharString name="idieresisacute">
          -27 callsubr
          159 75 78 -21 122 -20 hstemhm
          3 76 -5 74 -5 76 hintmask 11000010
          -44 callsubr
          hintmask 00111101
          5 569 -68 callgsubr
          159 254 -94 callsubr
        </CharString>
        <CharString name="idotbelow">
          223 -13 callsubr
          430 -20 154 84 hstemhm
          70 84 -80 74 hintmask 01100100
          -44 callsubr
          80 564 rmoveto
          hintmask 00011000
          -62 callsubr
          hintmask 10001000
          84 -764 -80 callsubr
        </CharString>
        <CharString name="igrave">
          7 callsubr
          74 518 -60 callsubr
        </CharString>
        <CharString name="ihookabove">
          -27 callsubr
          112 -21 211 -20 -37 callsubr
          hintmask 00110000
          127 640 -107 callgsubr
        </CharString>
        <CharString name="imacron">
          -27 callsubr
          164 64 hstemhm
          74 74 hintmask 11010000
          -44 callsubr
          hintmask 00100000
          207 574 -58 callgsubr
        </CharString>
        <CharString name="imacron.alt">
          -27 callsubr
          164 64 hstemhm
          74 74 hintmask 11010000
          -44 callsubr
          hintmask 00100000
          129 574 -5 callsubr
        </CharString>
        <CharString name="infinity">
          940 -21 55 -52 61 345 61 -52 55 hstemhm
          52 62 712 62 hintmask 10101000
          429 207 rmoveto
          -90 -47 -64 -83 -97 hhcurveto
          -78 -29 92 90 85 33 87 75 73 49 -64 -59 43 hvcurveto
          439 -49 rmoveto
          hintmask 01010100
          -86 -33 -87 -75 -73 -49 64 59 -43 vhcurveto
          -42 58 rlineto
          90 47 64 83 97 hhcurveto
          78 29 -92 -89 hvcurveto
          62 hmoveto
          125 -84 111 -119 -99 -68 -79 -90 -50 vhcurveto
          -20 27 rlineto
          hintmask 10101000
          69 -50 -60 70 -85 hhcurveto
          -117 -84 -110 -123 -126 84 -111 119 99 68 79 90 50 hvcurveto
          20 -27 rlineto
          hintmask 01000100
          -69 50 60 -70 85 hhcurveto
          117 84 110 124 hvcurveto
          endchar
        </CharString>
        <CharString name="interrobang">
          444 262 hmoveto
          80 -80 -80 vlineto
          196 547 rmoveto
          77 -36 64 -88 13 vhcurveto
          26 -64 -25 vlineto
          -75 -8 -57 -32 -19 -12 22 -62 rcurveline
          45 33 46 15 39 4 4 -352 rcurveline
          -5 -32 0 -24 -10 vvcurveto
          -53 64 51 vlineto
          92 37 71 40 43 vhcurveto
          19 20 28 29 72 vvcurveto
          -76 3 rmoveto
          -47 -12 -15 -15 -19 vhcurveto
          -9 -12 -8 -11 -8 -12 3 204 rcurveline
          39 -11 10 -33 -44 vvcurveto
          endchar
        </CharString>
        <CharString name="iogonek">
          223 -212 70 -70 84 149 56 callgsubr
          164 84 hstemhm
          74 74 hintmask 01001000
          153 574 -74 callgsubr
          126 -761 rmoveto
          -14 59 rlineto
          hintmask 10110100
          -12 callsubr
          endchar
        </CharString>
        <CharString name="iogonekacute">
          223 -212 70 -70 84 149 56 callgsubr
          129 46 callsubr
          hstemhm
          74 74 hintmask 01000000
          195 -187 rmoveto
          -14 59 rlineto
          hintmask 10111110
          -12 callsubr
          79 881 -76 callgsubr
        </CharString>
        <CharString name="itilde">
          -27 callsubr
          138 61 -5 61 -37 callsubr
          hintmask 00010000
          194 665 -98 callsubr
          hintmask 00010000
          41 49 38 79 2 hvcurveto
          endchar
        </CharString>
        <CharString name="j">
          12 callsubr
          154 84 hstemhm
          90 84 -74 74 hintmask 11001000
          -67 callgsubr
          hintmask 00101000
          624 vmoveto
          84 vlineto
          hintmask 00110000
          -84 -84 hlineto
          endchar
        </CharString>
        <CharString name="jacute">
          12 callsubr
          129 46 callsubr
          hstemhm
          100 74 hintmask 11001000
          -67 callgsubr
          hintmask 00111000
          126 754 -76 callgsubr
        </CharString>
        <CharString name="jcaron">
          12 callsubr
          131 64 callgsubr
          100 74 hintmask 11001000
          -67 callgsubr
          hintmask 00110000
          113 752 -80 callgsubr
        </CharString>
        <CharString name="jcircumflex">
          12 callsubr
          131 64 callgsubr
          100 74 hintmask 11001000
          -67 callgsubr
          hintmask 00110000
          113 580 -89 callsubr
          endchar
        </CharString>
        <CharString name="k">
          458 24 callsubr
          75 74 vstem
          441 hmoveto
          -40 callsubr
          endchar
        </CharString>
        <CharString name="kcedilla">
          458 14 callgsubr
          hstem
          75 74 vstem
          441 hmoveto
          -40 callsubr
          -90 -129 -86 callsubr
        </CharString>
        <CharString name="kcommaaccent">
          458 6 callsubr
          75 74 hintmask 00111000
          441 hmoveto
          -40 callsubr
          hintmask 11000000
          -90 -129 -86 callsubr
        </CharString>
        <CharString name="l">
          223 24 callsubr
          74 74 vstem
          -19 callsubr
          endchar
        </CharString>
        <CharString name="l_uni0303">
          223 -33 callsubr
          56 33 callgsubr
          74 74 hintmask 11001000
          -19 callsubr
          hintmask 00010000
          194 847 -98 callsubr
          hintmask 00010000
          41 49 38 79 2 hvcurveto
          endchar
        </CharString>
        <CharString name="lacute">
          223 35 callsubr
          74 74 hintmask 11001000
          -19 callsubr
          33 callsubr
        </CharString>
        <CharString name="lcaron">
          223 21 -21 531 -21 112 72 hstem
          74 74 vstem
          -19 callsubr
          182 623 -86 callsubr
        </CharString>
        <CharString name="lcedilla">
          223 14 callgsubr
          hstem
          74 74 vstem
          -19 callsubr
          74 -129 -86 callsubr
        </CharString>
        <CharString name="lcommaaccent">
          223 6 callsubr
          74 74 hintmask 00111000
          -19 callsubr
          hintmask 11001000
          74 -129 -86 callsubr
        </CharString>
        <CharString name="ldot">
          283 21 -21 321 84 289 -20 hstem
          74 74 62 84 vstem
          -19 callsubr
          220 321 -80 callsubr
        </CharString>
        <CharString name="ldotbelow">
          223 -13 callsubr
          694 -20 hstemhm
          70 84 -80 74 hintmask 01101000
          -19 callsubr
          hintmask 10010000
          80 -200 -80 callsubr
        </CharString>
        <CharString name="ldotbelowmacron">
          223 -13 callsubr
          694 -20 76 64 hstemhm
          70 84 -80 74 hintmask 01100100
          -19 callsubr
          80 -200 rmoveto
          hintmask 10001000
          -62 callsubr
          hintmask 00010000
          223 950 -58 callgsubr
        </CharString>
        <CharString name="leaf">
          940 -17 -21 21 22 163 22 193 22 291 22 -6 22 21 -20 hstemhm
          203 21 0 21 0 21 cntrmask 0000000111000000
          hintmask 1011101111000000
          950 711 rmoveto
          31 -146 13 -74 vhcurveto
          -20 -2 -19 1 -20 -2 rrcurveto
          -368 -37 -314 -303 -405 vvcurveto
          -32 143 -13 71 393 354 323 426 vhcurveto
          -444 -286 rmoveto
          -2 -25 -199 -153 -60 -46 rlineto
          312 vlineto
          4 -1 5 5 vvcurveto
          23 41 26 23 17 vhcurveto
          53 38 57 31 61 24 9 3 9 3 9 4 rrcurveto
          345 -312 rmoveto
          -36 -65 -38 -60 -53 -53 rrcurveto
          -9 -9 -6 -7 -14 hhcurveto
          -429 hlineto
          255 193 rlineto
          165 -214 rmoveto
          hintmask 0110100111000000
          -136 -120 -169 -63 -179 -3 rrcurveto
          -42 -43 5 7 -41 hvcurveto
          -17 3 -18 5 -17 2 215 163 rcurveline
          676 544 rmoveto
          -119 -91 -269 -205 rlineto
          287 vlineto
          20 2 21 10 21 3 rrcurveto
          hintmask 0001010111000000
          10 47 51 6 48 hhcurveto
          52 51 -7 -10 52 hvcurveto
          8 -2 9 -2 8 -1 rrcurveto
          -691 -498 rmoveto
          -2 -28 -60 -48 -151 -115 rlineto
          183 84 185 129 129 vhcurveto
          704 174 rmoveto
          -93 -23 -94 -36 -83 vhcurveto
          -12 -5 -2 -8 -15 -5 -4 1 -3 hhcurveto
          -286 hlineto
          endchar
        </CharString>
        <CharString name="less">
          57 callsubr
          -9 rmoveto
          6 -2 7 -18 8 vhcurveto
          -515 237 515 238 rlineto
          18 8 2 7 6 vvcurveto
          11 -8 8 -11 vhcurveto
          0 -3 -1 -14 -6 vhcurveto
          -541 -249 rlineto
          -18 -8 -2 -7 -6 vvcurveto
          -7 1 -6 19 -9 vhcurveto
          541 -249 rlineto
          13 -6 4 -1 0 vvcurveto
          11 8 8 11 hvcurveto
          endchar
        </CharString>
        <CharString name="lira">
          625 250 64 66 64 hstem
          18 callsubr
          50 6 54 rrcurveto
          121 64 -122 hlineto
          -1 12 -2 12 -4 11 -6 22 rcurveline
          -4 9 rlineto
          139 64 -163 hlineto
          87 -22 49 87 80 59 callgsubr
          -124 -83 -122 -128 22 vhcurveto
          -72 -64 92 hlineto
          5 -11 5 -12 4 -12 2 -5 2 -5 1 -6 rrcurveto
          1 -5 2 -5 -5 vvcurveto
          -114 -64 115 hlineto
          -11 -77 -47 -66 -49 -62 25 callsubr
        </CharString>
        <CharString name="logicalnot">
          731 322 34 hstem
          644 34 vstem
          678 160 rmoveto
          179 vlineto
          9 -8 8 -9 vhcurveto
          -592 hlineto
          -9 -8 -8 -9 -9 8 -8 9 hvcurveto
          575 -162 hlineto
          -9 8 -8 9 9 8 8 9 vhcurveto
          endchar
        </CharString>
        <CharString name="longs">
          267 641 61 hstem
          74 74 83 74 vstem
          305 628 rmoveto
          66 vlineto
          5 -23 -28 3 -22 hhcurveto
          -93 -65 -76 -99 hvcurveto
          -527 74 558 vlineto
          71 52 12 31 10 28 0 -13 36 vhcurveto
          endchar
        </CharString>
        <CharString name="lslash">
          303 24 callsubr
          121 74 vstem
          304 448 rmoveto
          -40 44 -69 -62 rlineto
          264 -74 -324 vlineto
          -98 -88 38 -45 60 54 rlineto
          -291 74 353 vlineto
          endchar
        </CharString>
        <CharString name="m">
          745 30 callsubr
          hstem
          74 76 184 76 184 76 cntrmask 00111000
          -26 callsubr
          endchar
        </CharString>
        <CharString name="macron">
          470 574 64 hstem
          405 574 -58 callgsubr
        </CharString>
        <CharString name="macron.alt">
          470 574 64 hstem
          327 574 -5 callsubr
        </CharString>
        <CharString name="macron.cap">
          470 486 64 hstem
          405 486 -58 callgsubr
        </CharString>
        <CharString name="macron.cap.alt">
          470 486 64 hstem
          327 486 -5 callsubr
        </CharString>
        <CharString name="macron.dup">
          470 574 64 hstem
          405 574 -58 callgsubr
        </CharString>
        <CharString name="macron.ts1">
          731 680 35 -34 35 hstemhm
          hintmask 01000000
          652 698 rmoveto
          9 -7 8 -9 1 vhcurveto
          -537 hlineto
          hintmask 10000000
          -3 -3 0 -1 -2 hvcurveto
          -8 -2 -4 -8 -7 vvcurveto
          hintmask 01000000
          -9 7 -8 14 vhcurveto
          509 hlineto
          hintmask 10000000
          5 6 -1 6 hhcurveto
          13 13 5 13 hvcurveto
          endchar
        </CharString>
        <CharString name="married">
          470 36 55 -10 55 275 55 hstemhm
          -80 55 183 59 -22 58 0 58 183 55 hintmask 10110000
          549 251 rmoveto
          108 -80 107 -115 vhcurveto
          -9 hlineto
          -37 -2 -47 -15 -26 -28 rrcurveto
          27 -31 -43 18 -41 hhcurveto
          -117 -83 -102 -114 -109 81 -105 115 hvcurveto
          hintmask 01000000
          40 50 15 30 28 hvcurveto
          1 hlineto
          hintmask 10110101
          -30 27 54 -15 41 hhcurveto
          117 75 112 103 hvcurveto
          -354 -129 rmoveto
          -15 -54 -16 -27 -94 -45 86 75 vhcurveto
          7 vlineto
          72 2 46 80 91 hhcurveto
          24 57 -14 -17 -6 -6 -7 -3 -5 hvcurveto
          hintmask 00001000
          -19 -33 -9 -40 -38 vvcurveto
          -39 10 -41 20 -34 vhcurveto
          hintmask 10000100
          2 -4 5 -6 -5 vvcurveto
          299 128 rmoveto
          -80 -53 -79 -87 -25 -55 14 17 vhcurveto
          hintmask 01101011
          4 5 6 2 4 vhcurveto
          19 36 11 38 41 vvcurveto
          37 -9 41 -19 33 vhcurveto
          -3 5 -6 7 7 vvcurveto
          14 53 16 27 95 45 -84 -77 vhcurveto
          -241 4 rmoveto
          -31 -9 -27 -9 -28 vhcurveto
          -14 25 -4 30 28 vvcurveto
          32 8 23 9 30 vhcurveto
          1 hlineto
          9 -28 9 -24 -30 vvcurveto
          endchar
        </CharString>
        <CharString name="mdotbelow">
          745 -13 callsubr
          377 61 hstemhm
          74 76 181 84 -81 76 184 76 hintmask 01110110
          -26 callsubr
          hintmask 10001000
          -179 -200 -80 callsubr
        </CharString>
        <CharString name="minus">
          731 233 35 hstem
          678 250 19 callgsubr
          endchar
        </CharString>
        <CharString name="multiply">
          731 -40 callgsubr
          endchar
        </CharString>
        <CharString name="n">
          -3 callgsubr
          hstem
          -26 callgsubr
          vstem
          -83 callsubr
          endchar
        </CharString>
        <CharString name="nacute">
          -3 callgsubr
          101 46 callsubr
          -24 callgsubr
          hintmask 11001100
          -83 callsubr
          hintmask 00110000
          42 694 -76 callgsubr
        </CharString>
        <CharString name="naira">
          663 21 -21 250 64 66 64 250 -20 hstem
          88 78 330 78 vstem
          617 250 rmoveto
          64 -43 66 43 64 -43 250 -78 -250 -169 vlineto
          -98 213 -18 37 rlineto
          -123 -250 -43 -64 43 -66 -43 -64 43 -250 78 250 169 hlineto
          98 -213 18 -37 rlineto
          123 250 hlineto
          -328 194 rmoveto
          -80 173 hlineto
          1 1 52 -116 rlineto
          86 -188 rmoveto
          -139 66 109 hlineto
          221 -66 rmoveto
          -109 hlineto
          -31 66 rlineto
          140 hlineto
          -303 vmoveto
          -1 -1 -52 116 -27 58 rlineto
          80 hlineto
          endchar
        </CharString>
        <CharString name="ncaron">
          -3 callgsubr
          103 -21 172 -20 -24 callgsubr
          hintmask 11001100
          -83 callsubr
          hintmask 00110000
          64 692 -80 callgsubr
        </CharString>
        <CharString name="ncedilla">
          484 62 callgsubr
          377 61 hstem
          -26 callgsubr
          vstem
          -83 callsubr
          -54 -129 -86 callsubr
        </CharString>
        <CharString name="ncommaaccent">
          484 62 callgsubr
          377 61 -24 callgsubr
          hintmask 00111100
          -83 callsubr
          hintmask 11000000
          -54 -129 -86 callsubr
        </CharString>
        <CharString name="ndotaccent">
          -3 callgsubr
          126 84 51 callsubr
          hintmask 11010100
          -83 callsubr
          hintmask 00101000
          -49 564 -80 callsubr
        </CharString>
        <CharString name="ndotbelow">
          484 -13 callsubr
          377 61 51 callsubr
          hintmask 01110100
          -83 callsubr
          hintmask 10001000
          -49 -200 -80 callsubr
        </CharString>
        <CharString name="nine">
          470 -16 53 callsubr
          hstem
          39 79 28 83 118 83 vstem
          430 335 -87 callsubr
          1 -7 0 -13 -4 vvcurveto
          endchar
        </CharString>
        <CharString name="nine.oldstyle">
          531 -211 53 callsubr
          hstemhm
          70 79 229 83 -81 81 hintmask 11110100
          461 140 -87 callsubr
          hintmask 00001000
          1 -7 0 -13 -4 vvcurveto
          endchar
        </CharString>
        <CharString name="nine.prop">
          531 -16 53 callsubr
          hstem
          70 79 28 83 118 83 vstem
          461 335 -87 callsubr
          1 -7 0 -13 -4 vvcurveto
          endchar
        </CharString>
        <CharString name="nine.taboldstyle">
          470 -211 53 callsubr
          hstemhm
          39 79 229 83 -81 81 hintmask 11110100
          430 140 -87 callsubr
          hintmask 00001000
          1 -7 0 -13 -4 vvcurveto
          endchar
        </CharString>
        <CharString name="ntilde">
          -3 callgsubr
          110 61 -5 61 -24 callgsubr
          hintmask 11001100
          -83 callsubr
          hintmask 00010000
          66 665 -98 callsubr
          hintmask 00010000
          41 49 38 79 2 hvcurveto
          endchar
        </CharString>
        <CharString name="numbersign">
          784 -174 -21 338 35 143 35 338 -20 hstem
          52 679 vstem
          731 161 rmoveto
          17 -15 0 -15 vhcurveto
          -200 hlineto
          34 143 rlineto
          166 hlineto
          15 15 0 17 18 -17 0 -17 hvcurveto
          -152 19 callsubr
          -181 19 callsubr
          -206 hlineto
          -17 -17 0 -18 -17 15 0 15 hvcurveto
          200 hlineto
          -34 -143 rlineto
          -166 75 callgsubr
          152 20 callgsubr
          181 20 callgsubr
          206 hlineto
          17 17 0 18 hvcurveto
          -232 160 rmoveto
          -34 -143 rlineto
          -181 hlineto
          34 143 rlineto
          endchar
        </CharString>
        <CharString name="numero">
          767 22 -21 164 48 53 54 167 54 143 -20 hstemhm
          98 61 200 62 89 46 83 45 -45 47 hintmask 0011000101000000
          686 399 rmoveto
          59 -28 83 -60 -61 -27 -76 -66 -56 27 -77 61 60 28 77 56 vhcurveto
          -2 -234 rmoveto
          hintmask 1111111110000000
          48 -172 -48 vlineto
          -91 -164 rmoveto
          683 -62 -621 vlineto
          0 -9 50 -6 26 vhcurveto
          -153 545 rlineto
          -93 -683 61 625 hlineto
          4 -37 2 -7 8 -27 155 -554 rcurveline
          311 397 rmoveto
          -35 -15 -43 -26 -30 -12 43 35 40 9 49 33 34 7 -49 -40 vhcurveto
          endchar
        </CharString>
        <CharString name="o">
          -33 callgsubr
          hstem
          55 callgsubr
          vstem
          -104 callsubr
          endchar
        </CharString>
        <CharString name="oacute">
          -33 callgsubr
          17 callsubr
          55 callgsubr
          hintmask 11001100
          -104 callsubr
          hintmask 00110000
          2 472 -76 callgsubr
        </CharString>
        <CharString name="obreve">
          -33 callgsubr
          68 66 127 -20 hstemhm
          55 callgsubr
          hintmask 11001100
          -104 callsubr
          hintmask 00110000
          30 481 -105 callsubr
          endchar
        </CharString>
        <CharString name="ocaron">
          -33 callgsubr
          99 64 callgsubr
          55 callgsubr
          hintmask 11001100
          -104 callsubr
          hintmask 00110000
          24 470 -80 callgsubr
        </CharString>
        <CharString name="ocircumflex">
          -33 callgsubr
          99 64 callgsubr
          55 callgsubr
          hintmask 11001100
          -104 callsubr
          hintmask 00110000
          24 298 -89 callsubr
          endchar
        </CharString>
        <CharString name="ocircumflexacute">
          -33 callgsubr
          99 -21 291 -20 hstemhm
          55 callgsubr
          hintmask 11001100
          -104 callsubr
          hintmask 00110000
          25 298 -78 callgsubr
        </CharString>
        <CharString name="ocircumflexdotbelow">
          470 22 callsubr
          62 326 62 99 64 callgsubr
          27 76 90 84 89 76 hintmask 01111101
          -104 callsubr
          24 298 -89 callsubr
          hintmask 10000010
          -54 -720 -80 callsubr
        </CharString>
        <CharString name="ocircumflexgrave">
          -33 callgsubr
          99 -21 134 -20 hstemhm
          55 callgsubr
          hintmask 11001100
          -104 callsubr
          hintmask 00110000
          25 298 -78 callsubr
        </CharString>
        <CharString name="ocircumflexhookabove">
          -33 callgsubr
          99 -21 360 -20 hstemhm
          55 callgsubr
          hintmask 11001100
          -104 callsubr
          hintmask 00110100
          25 298 -103 callgsubr
          83 288 -107 callgsubr
        </CharString>
        <CharString name="ocircumflextilde">
          -33 callgsubr
          99 -21 189 33 callgsubr
          55 callgsubr
          hintmask 11000110
          -104 callsubr
          hintmask 00101000
          25 298 -103 callgsubr
          60 306 -97 callgsubr
        </CharString>
        <CharString name="odblgrave">
          -33 callgsubr
          17 callsubr
          55 callgsubr
          hintmask 11001100
          -104 callsubr
          hintmask 00110000
          5 296 -88 callgsubr
        </CharString>
        <CharString name="odieresis">
          -33 callgsubr
          127 75 hstemhm
          27 76 24 76 64 76 23 76 hintmask 11010010
          -104 callsubr
          hintmask 00101100
          -163 347 -14 callsubr
        </CharString>
        <CharString name="odotbelow">
          470 22 callsubr
          62 326 62 hstemhm
          27 76 90 84 89 76 hintmask 01110100
          -104 callsubr
          hintmask 10001000
          -89 -422 -80 callsubr
        </CharString>
        <CharString name="oe">
          -63 callsubr
        </CharString>
        <CharString name="oe.dup">
          -63 callsubr
        </CharString>
        <CharString name="ogonek">
          470 -212 70 hstem
          334 -187 rmoveto
          -45 callsubr
          -63 hlineto
          -29 callsubr
          endchar
        </CharString>
        <CharString name="ograve">
          -33 callgsubr
          17 callsubr
          55 callgsubr
          hintmask 11001100
          -104 callsubr
          hintmask 00110000
          -64 296 -60 callsubr
        </CharString>
        <CharString name="ohm">
          -58 callsubr
        </CharString>
        <CharString name="ohookabove">
          -33 callgsubr
          80 -21 211 -20 hstemhm
          55 callgsubr
          hintmask 11001100
          -104 callsubr
          hintmask 00110000
          -41 418 -107 callgsubr
        </CharString>
        <CharString name="ohorn">
          15 callgsubr
          hstemhm
          55 callgsubr
          -71 79 hintmask 00100100
          450 432 rmoveto
          78 -79 -79 24 vlineto
          -34 -35 rlineto
          hintmask 11011000
          29 -39 -44 17 -44 hhcurveto
          -114 -93 -103 -125 -127 96 -95 111 114 94 98 124 63 -26 56 -34 40 hvcurveto
          hintmask 11010100
          -38 callsubr
          hintmask 00001000
          65 67 -46 -112 hvcurveto
          endchar
        </CharString>
        <CharString name="ohornacute">
          15 callgsubr
          29 46 callsubr
          -79 callsubr
          hintmask 00011000
          -25 472 -76 callgsubr
        </CharString>
        <CharString name="ohorndotbelow">
          463 22 callsubr
          62 326 62 -11 79 hstemhm
          27 76 87 84 92 76 -71 79 hintmask 00010001
          450 432 rmoveto
          78 -79 -79 24 vlineto
          -34 -35 rlineto
          hintmask 01101010
          29 -39 -44 17 -44 hhcurveto
          -114 -93 -103 -125 -127 96 -95 111 114 94 98 124 63 -26 56 -34 40 hvcurveto
          hintmask 01101001
          -38 callsubr
          hintmask 00000010
          65 67 -46 -112 hvcurveto
          hintmask 10000100
          -92 -422 -80 callsubr
        </CharString>
        <CharString name="ohorngrave">
          15 callgsubr
          29 46 callsubr
          -79 callsubr
          hintmask 00011000
          -65 296 -60 callsubr
        </CharString>
        <CharString name="ohornhookabove">
          15 callgsubr
          12 -21 211 -20 -79 callsubr
          hintmask 00011000
          -42 418 -107 callgsubr
        </CharString>
        <CharString name="ohorntilde">
          15 callgsubr
          38 61 -5 61 -79 callsubr
          hintmask 00001000
          25 443 -97 callgsubr
        </CharString>
        <CharString name="ohungarumlaut">
          -33 callgsubr
          17 callsubr
          55 callgsubr
          hintmask 11001100
          -104 callsubr
          hintmask 00110000
          -132 472 -64 callgsubr
        </CharString>
        <CharString name="omacron">
          -33 callgsubr
          132 64 hstemhm
          55 callgsubr
          hintmask 11011000
          -104 callsubr
          hintmask 00100000
          39 352 -58 callgsubr
        </CharString>
        <CharString name="one">
          470 0 58 490 58 66 -20 hstem
          207 77 vstem
          402 2 callgsubr
        </CharString>
        <CharString name="one.oldstyle">
          368 0 48 338 48 43 -20 hstemhm
          35 181 -67 59 -51 59 hintmask 10100100
          333 -11 callsubr
        </CharString>
        <CharString name="one.prop">
          388 0 58 490 58 66 -20 hstem
          158 77 vstem
          353 2 callgsubr
        </CharString>
        <CharString name="one.superior">
          350 671 39 hstem
          -1 callgsubr
          21 callgsubr
          endchar
        </CharString>
        <CharString name="one.taboldstyle">
          470 0 48 338 48 43 -20 hstemhm
          95 181 -67 59 -51 59 hintmask 10100100
          393 -11 callsubr
        </CharString>
        <CharString name="onehalf">
          738 0 38 327 38 233 38 -3 39 hstemhm
          560 61 hintmask 00010000
          -1 callgsubr
          hintmask 11101000
          21 callgsubr
          614 -307 -8 callsubr
          -33 rlineto
          55 16 22 35 56 hhcurveto
          62 35 -42 -46 -56 -50 -42 -39 -32 hvcurveto
          -124 -109 rlineto
          -38 vlineto
          169 674 rmoveto
          -40 27 callgsubr
          endchar
        </CharString>
        <CharString name="onequarter">
          738 671 39 hstemhm
          149 55 174 55 125 54 -54 55 hintmask 11110000
          -1 callgsubr
          21 callgsubr
          614 -204 1 callsubr
          hintmask 00101000
          44 callgsubr
        </CharString>
        <CharString name="oogonek">
          470 -8 63 326 61 hstemhm
          27 76 187 76 0 76 hintmask 11110000
          -27 callgsubr
          hintmask 11101000
          4 callsubr
          endchar
        </CharString>
        <CharString name="oogonekacute">
          470 -8 63 326 61 17 callsubr
          27 76 187 76 0 76 hintmask 11001100
          -27 callgsubr
          hintmask 11001010
          4 callsubr
          hintmask 00110000
          2 472 -76 callgsubr
        </CharString>
        <CharString name="openbullet">
          731 142 34 186 34 hstem
          239 34 186 34 59 callsubr
          220 127 rmoveto
          -51 -42 -42 -51 -51 -42 42 51 51 42 42 51 51 42 -42 -51 vhcurveto
          endchar
        </CharString>
</ttFont>
